<mxfile host="www.draw.io" modified="2020-03-02T14:32:38.883Z" agent="Mozilla/5.0 (Windows NT 10.0; WOW64) AppleWebKit/537.36 (KHTML, like Gecko) Chrome/80.0.3987.122 Safari/537.36" etag="_NKzms6iwkmllHvJ3mue" version="12.7.9" type="github">
  <diagram id="vcLBVAxee22WzfM6w69p" name="Page-1">
    <mxGraphModel dx="1574" dy="1930" grid="1" gridSize="10" guides="1" tooltips="1" connect="1" arrows="1" fold="1" page="1" pageScale="1" pageWidth="827" pageHeight="1169" math="0" shadow="0">
      <root>
        <mxCell id="0" />
        <mxCell id="1" parent="0" />
        <mxCell id="k4Nb-jH2joKSZ2VRX0Bj-137" value="" style="shape=image;verticalLabelPosition=bottom;labelBackgroundColor=#ffffff;verticalAlign=top;aspect=fixed;imageAspect=0;image=data:image/jpeg,/9j/4AAQSkZJRgABAQEAAAAAAAD/4RCyRXhpZgAATU0AKgAAAAgAAodpAAQAAAABAAAIMuocAAcAAAgMAAAAJgAAAAAc6gAAAAgAAAAAAAAAAAAAAAAAAAAAAAAAAAAAAAAAAAAAAAAAAAAAAAAAAAAAAAAAAAAAAAAAAAAAAAAAAAAAAAAAAAAAAAAAAAAAAAAAAAAAAAAAAAAAAAAAAAAAAAAAAAAAAAAAAAAAAAAAAAAAAAAAAAAAAAAAAAAAAAAAAAAAAAAAAAAAAAAAAAAAAAAAAAAAAAAAAAAAAAAAAAAAAAAAAAAAAAAAAAAAAAAAAAAAAAAAAAAAAAAAAAAAAAAAAAAAAAAAAAAAAAAAAAAAAAAAAAAAAAAAAAAAAAAAAAAAAAAAAAAAAAAAAAAAAAAAAAAAAAAAAAAAAAAAAAAAAAAAAAAAAAAAAAAAAAAAAAAAAAAAAAAAAAAAAAAAAAAAAAAAAAAAAAAAAAAAAAAAAAAAAAAAAAAAAAAAAAAAAAAAAAAAAAAAAAAAAAAAAAAAAAAAAAAAAAAAAAAAAAAAAAAAAAAAAAAAAAAAAAAAAAAAAAAAAAAAAAAAAAAAAAAAAAAAAAAAAAAAAAAAAAAAAAAAAAAAAAAAAAAAAAAAAAAAAAAAAAAAAAAAAAAAAAAAAAAAAAAAAAAAAAAAAAAAAAAAAAAAAAAAAAAAAAAAAAAAAAAAAAAAAAAAAAAAAAAAAAAAAAAAAAAAAAAAAAAAAAAAAAAAAAAAAAAAAAAAAAAAAAAAAAAAAAAAAAAAAAAAAAAAAAAAAAAAAAAAAAAAAAAAAAAAAAAAAAAAAAAAAAAAAAAAAAAAAAAAAAAAAAAAAAAAAAAAAAAAAAAAAAAAAAAAAAAAAAAAAAAAAAAAAAAAAAAAAAAAAAAAAAAAAAAAAAAAAAAAAAAAAAAAAAAAAAAAAAAAAAAAAAAAAAAAAAAAAAAAAAAAAAAAAAAAAAAAAAAAAAAAAAAAAAAAAAAAAAAAAAAAAAAAAAAAAAAAAAAAAAAAAAAAAAAAAAAAAAAAAAAAAAAAAAAAAAAAAAAAAAAAAAAAAAAAAAAAAAAAAAAAAAAAAAAAAAAAAAAAAAAAAAAAAAAAAAAAAAAAAAAAAAAAAAAAAAAAAAAAAAAAAAAAAAAAAAAAAAAAAAAAAAAAAAAAAAAAAAAAAAAAAAAAAAAAAAAAAAAAAAAAAAAAAAAAAAAAAAAAAAAAAAAAAAAAAAAAAAAAAAAAAAAAAAAAAAAAAAAAAAAAAAAAAAAAAAAAAAAAAAAAAAAAAAAAAAAAAAAAAAAAAAAAAAAAAAAAAAAAAAAAAAAAAAAAAAAAAAAAAAAAAAAAAAAAAAAAAAAAAAAAAAAAAAAAAAAAAAAAAAAAAAAAAAAAAAAAAAAAAAAAAAAAAAAAAAAAAAAAAAAAAAAAAAAAAAAAAAAAAAAAAAAAAAAAAAAAAAAAAAAAAAAAAAAAAAAAAAAAAAAAAAAAAAAAAAAAAAAAAAAAAAAAAAAAAAAAAAAAAAAAAAAAAAAAAAAAAAAAAAAAAAAAAAAAAAAAAAAAAAAAAAAAAAAAAAAAAAAAAAAAAAAAAAAAAAAAAAAAAAAAAAAAAAAAAAAAAAAAAAAAAAAAAAAAAAAAAAAAAAAAAAAAAAAAAAAAAAAAAAAAAAAAAAAAAAAAAAAAAAAAAAAAAAAAAAAAAAAAAAAAAAAAAAAAAAAAAAAAAAAAAAAAAAAAAAAAAAAAAAAAAAAAAAAAAAAAAAAAAAAAAAAAAAAAAAAAAAAAAAAAAAAAAAAAAAAAAAAAAAAAAAAAAAAAAAAAAAAAAAAAAAAAAAAAAAAAAAAAAAAAAAAAAAAAAAAAAAAAAAAAAAAAAAAAAAAAAAAAAAAAAAAAAAAAAAAAAAAAAAAAAAAAAAAAAAAAAAAAAAAAAAAAAAAAAAAAAAAAAAAAAAAAAAAAAAAAAAAAAAAAAAAAAAAAAAAAAAAAAAAAAAAAAAAAAAAAAAAAAAAAAAAAAAAAAAAAAAAAAAAAAAAAAAAAAAAAAAAAAAAAAAAAAAAAAAAAAAAAAAAAAAAAAAAAAAAAAAAAAAAAAAAAAAAAAAAAAAAAAAAAAAAAAAAAAAAAAAAAAAAAAAAAAAAAAAAAAAAAAAAAAAAAAAAAAAAAAAAAAAAAAAAAAAAAAAAAAAAAAAAAAAAAAAAAAAAAAAAAAAAAAAAAAAAAAAAAAAAAAAAAAAAAAAAAAAAAAAAAAAAAAAAAAAAAAAAAAAAAAAAAAAAAAAAAAAAAAAAAAAAAAAAAAAAAAAAAAAAAAAAAAAAAAAAAAAAAAAAAAAAAAAAAAAAAAAAAAAAAAAAAAAAAAAAAAAAAAAAAAAAAAAAAAAAAAAAAAAAAAAAAAAAAAAAAAAAAAAAAAAAAAAAAAAAAAAAAAAAAAAAAAAAAAAAAAAAAAAAAAAAAAAAAAAAAAAAAAAAAAAAAAAAAAAAAAAAAAAAAAAAAAAAAAAAAAAAAAAAAAAAAAAAAAAAAAAAAAAAAAAAAAAAAAAAAAAAAAAAAAAAAAAAAAAAAAAAAAAAAAAAAAAAAAAAAAAAAAAAAAAAAAAAAAAAAAAAAAAAAAAAAAAAAAAAAAAAAAAAAAAAAAAAAAAAAAAAAAAAAAAAAAAAAAAAAAAAAAAAAAAAAAAAAAAAAAAAAAAAAAAAAAAAAAAAAAAAAAAAAAAAAAAAAAAAAAAAAAAAAAAAAAAAAAAAAAAAAAAAAAAAAAAAAAAAAAAAAAAAAAAAAAAAAAAAAAAAAAAAAAAAAAAAAAAAAAAAAAAAAAAAAAAAAAAAAAAAAAAAAAAAAAAAFkAMAAgAAABQAABCAkAQAAgAAABQAABCUkpEAAgAAAAMwMAAAkpIAAgAAAAMwMAAA6hwABwAACAwAAAh0AAAAABzqAAAACAAAAAAAAAAAAAAAAAAAAAAAAAAAAAAAAAAAAAAAAAAAAAAAAAAAAAAAAAAAAAAAAAAAAAAAAAAAAAAAAAAAAAAAAAAAAAAAAAAAAAAAAAAAAAAAAAAAAAAAAAAAAAAAAAAAAAAAAAAAAAAAAAAAAAAAAAAAAAAAAAAAAAAAAAAAAAAAAAAAAAAAAAAAAAAAAAAAAAAAAAAAAAAAAAAAAAAAAAAAAAAAAAAAAAAAAAAAAAAAAAAAAAAAAAAAAAAAAAAAAAAAAAAAAAAAAAAAAAAAAAAAAAAAAAAAAAAAAAAAAAAAAAAAAAAAAAAAAAAAAAAAAAAAAAAAAAAAAAAAAAAAAAAAAAAAAAAAAAAAAAAAAAAAAAAAAAAAAAAAAAAAAAAAAAAAAAAAAAAAAAAAAAAAAAAAAAAAAAAAAAAAAAAAAAAAAAAAAAAAAAAAAAAAAAAAAAAAAAAAAAAAAAAAAAAAAAAAAAAAAAAAAAAAAAAAAAAAAAAAAAAAAAAAAAAAAAAAAAAAAAAAAAAAAAAAAAAAAAAAAAAAAAAAAAAAAAAAAAAAAAAAAAAAAAAAAAAAAAAAAAAAAAAAAAAAAAAAAAAAAAAAAAAAAAAAAAAAAAAAAAAAAAAAAAAAAAAAAAAAAAAAAAAAAAAAAAAAAAAAAAAAAAAAAAAAAAAAAAAAAAAAAAAAAAAAAAAAAAAAAAAAAAAAAAAAAAAAAAAAAAAAAAAAAAAAAAAAAAAAAAAAAAAAAAAAAAAAAAAAAAAAAAAAAAAAAAAAAAAAAAAAAAAAAAAAAAAAAAAAAAAAAAAAAAAAAAAAAAAAAAAAAAAAAAAAAAAAAAAAAAAAAAAAAAAAAAAAAAAAAAAAAAAAAAAAAAAAAAAAAAAAAAAAAAAAAAAAAAAAAAAAAAAAAAAAAAAAAAAAAAAAAAAAAAAAAAAAAAAAAAAAAAAAAAAAAAAAAAAAAAAAAAAAAAAAAAAAAAAAAAAAAAAAAAAAAAAAAAAAAAAAAAAAAAAAAAAAAAAAAAAAAAAAAAAAAAAAAAAAAAAAAAAAAAAAAAAAAAAAAAAAAAAAAAAAAAAAAAAAAAAAAAAAAAAAAAAAAAAAAAAAAAAAAAAAAAAAAAAAAAAAAAAAAAAAAAAAAAAAAAAAAAAAAAAAAAAAAAAAAAAAAAAAAAAAAAAAAAAAAAAAAAAAAAAAAAAAAAAAAAAAAAAAAAAAAAAAAAAAAAAAAAAAAAAAAAAAAAAAAAAAAAAAAAAAAAAAAAAAAAAAAAAAAAAAAAAAAAAAAAAAAAAAAAAAAAAAAAAAAAAAAAAAAAAAAAAAAAAAAAAAAAAAAAAAAAAAAAAAAAAAAAAAAAAAAAAAAAAAAAAAAAAAAAAAAAAAAAAAAAAAAAAAAAAAAAAAAAAAAAAAAAAAAAAAAAAAAAAAAAAAAAAAAAAAAAAAAAAAAAAAAAAAAAAAAAAAAAAAAAAAAAAAAAAAAAAAAAAAAAAAAAAAAAAAAAAAAAAAAAAAAAAAAAAAAAAAAAAAAAAAAAAAAAAAAAAAAAAAAAAAAAAAAAAAAAAAAAAAAAAAAAAAAAAAAAAAAAAAAAAAAAAAAAAAAAAAAAAAAAAAAAAAAAAAAAAAAAAAAAAAAAAAAAAAAAAAAAAAAAAAAAAAAAAAAAAAAAAAAAAAAAAAAAAAAAAAAAAAAAAAAAAAAAAAAAAAAAAAAAAAAAAAAAAAAAAAAAAAAAAAAAAAAAAAAAAAAAAAAAAAAAAAAAAAAAAAAAAAAAAAAAAAAAAAAAAAAAAAAAAAAAAAAAAAAAAAAAAAAAAAAAAAAAAAAAAAAAAAAAAAAAAAAAAAAAAAAAAAAAAAAAAAAAAAAAAAAAAAAAAAAAAAAAAAAAAAAAAAAAAAAAAAAAAAAAAAAAAAAAAAAAAAAAAAAAAAAAAAAAAAAAAAAAAAAAAAAAAAAAAAAAAAAAAAAAAAAAAAAAAAAAAAAAAAAAAAAAAAAAAAAAAAAAAAAAAAAAAAAAAAAAAAAAAAAAAAAAAAAAAAAAAAAAAAAAAAAAAAAAAAAAAAAAAAAAAAAAAAAAAAAAAAAAAAAAAAAAAAAAAAAAAAAAAAAAAAAAAAAAAAAAAAAAAAAAAAAAAAAAAAAAAAAAAAAAAAAAAAAAAAAAAAAAAAAAAAAAAAAAAAAAAAAAAAAAAAAAAAAAAAAAAAAAAAAAAAAAAAAAAAAAAAAAAAAAAAAAAAAAAAAAAAAAAAAAAAAAAAAAAAAAAAAAAAAAAAAAAAAAAAAAAAAAAAAAAAAAAAAAAAAAAAAAAAAAAAAAAAAAAAAAAAAAAAAAAAAAAAAAAAAAAAAAAAAAAAAAAAAAAAAAAAAAAAAAAAAAAAAAAAAAAAAAAAAAAAAAAAAAAAAAAAAAAAAAAAAAAAAAAAAAAAAAAAAAAAAAAAAAAAAAAAAAAAAAAAAAAAAAAAAAAAAAAAAAAAAAAAAAAAAAAAAAAAAAAAAAAAAAAAAAAAAAAAAAAAAAAAAAAAAAAAAAAAAAAAAAAAAAAAAAAAAAAAAAAAAAAAAAAAAAAAAAAAAAAAAAAAAAAAAAAAAAAAAAAAAAAAAAAAAAAAAAAAAAAAAAAAAAAAAAAAAAAAAAAAAAAAAAAAAAAAAAAAAAAAAAAAAAAAAAAAAAAAAAAAAAAAAAAAAAAAAAAAAAAAAAAAAAAAAAAAAAAAAAAAAAAAAAAAAAAAAAAAAAAAAAAAAAAAAAAAAAAAAAAAAAAAMjAxOTowNToyMSAxMDowMzozNAAyMDE5OjA1OjIxIDEwOjAzOjM0AAAA/+EKeWh0dHA6Ly9ucy5hZG9iZS5jb20veGFwLzEuMC8APD94cGFja2V0IGJlZ2luPSfvu78nIGlkPSdXNU0wTXBDZWhpSHpyZVN6TlRjemtjOWQnPz4NCjx4OnhtcG1ldGEgeG1sbnM6eD0iYWRvYmU6bnM6bWV0YS8iPjxyZGY6UkRGIHhtbG5zOnJkZj0iaHR0cDovL3d3dy53My5vcmcvMTk5OS8wMi8yMi1yZGYtc3ludGF4LW5zIyI+PHJkZjpEZXNjcmlwdGlvbiByZGY6YWJvdXQ9InV1aWQ6ZmFmNWJkZDUtYmEzZC0xMWRhLWFkMzEtZDMzZDc1MTgyZjFiIiB4bWxuczpNaWNyb3NvZnRQaG90bz0iaHR0cDovL25zLm1pY3Jvc29mdC5jb20vcGhvdG8vMS4wLyI+PE1pY3Jvc29mdFBob3RvOkl0ZW1TdWJUeXBlPkx1bWlhLkxpdmluZ0ltYWdlPC9NaWNyb3NvZnRQaG90bzpJdGVtU3ViVHlwZT48L3JkZjpEZXNjcmlwdGlvbj48cmRmOkRlc2NyaXB0aW9uIHJkZjphYm91dD0idXVpZDpmYWY1YmRkNS1iYTNkLTExZGEtYWQzMS1kMzNkNzUxODJmMWIiIHhtbG5zOnhtcD0iaHR0cDovL25zLmFkb2JlLmNvbS94YXAvMS4wLyI+PHhtcDpDcmVhdGVEYXRlPjIwMTktMDUtMjFUMTA6MDM6MzQ8L3htcDpDcmVhdGVEYXRlPjwvcmRmOkRlc2NyaXB0aW9uPjwvcmRmOlJERj48L3g6eG1wbWV0YT4NCiAgICAgICAgICAgICAgICAgICAgICAgICAgICAgICAgICAgICAgICAgICAgICAgICAgICAgICAgICAgICAgICAgICAgICAgICAgICAgICAgICAgICAgICAgICAgICAgICAgICAKICAgICAgICAgICAgICAgICAgICAgICAgICAgICAgICAgICAgICAgICAgICAgICAgICAgICAgICAgICAgICAgICAgICAgICAgICAgICAgICAgICAgICAgICAgICAgICAgICAgIAogICAgICAgICAgICAgICAgICAgICAgICAgICAgICAgICAgICAgICAgICAgICAgICAgICAgICAgICAgICAgICAgICAgICAgICAgICAgICAgICAgICAgICAgICAgICAgICAgICAgCiAgICAgICAgICAgICAgICAgICAgICAgICAgICAgICAgICAgICAgICAgICAgICAgICAgICAgICAgICAgICAgICAgICAgICAgICAgICAgICAgICAgICAgICAgICAgICAgICAgICAKICAgICAgICAgICAgICAgICAgICAgICAgICAgICAgICAgICAgICAgICAgICAgICAgICAgICAgICAgICAgICAgICAgICAgICAgICAgICAgICAgICAgICAgICAgICAgICAgICAgIAogICAgICAgICAgICAgICAgICAgICAgICAgICAgICAgICAgICAgICAgICAgICAgICAgICAgICAgICAgICAgICAgICAgICAgICAgICAgICAgICAgICAgICAgICAgICAgICAgICAgCiAgICAgICAgICAgICAgICAgICAgICAgICAgICAgICAgICAgICAgICAgICAgICAgICAgICAgICAgICAgICAgICAgICAgICAgICAgICAgICAgICAgICAgICAgICAgICAgICAgICAKICAgICAgICAgICAgICAgICAgICAgICAgICAgICAgICAgICAgICAgICAgICAgICAgICAgICAgICAgICAgICAgICAgICAgICAgICAgICAgICAgICAgICAgICAgICAgICAgICAgIAogICAgICAgICAgICAgICAgICAgICAgICAgICAgICAgICAgICAgICAgICAgICAgICAgICAgICAgICAgICAgICAgICAgICAgICAgICAgICAgICAgICAgICAgICAgICAgICAgICAgCiAgICAgICAgICAgICAgICAgICAgICAgICAgICAgICAgICAgICAgICAgICAgICAgICAgICAgICAgICAgICAgICAgICAgICAgICAgICAgICAgICAgICAgICAgICAgICAgICAgICAKICAgICAgICAgICAgICAgICAgICAgICAgICAgICAgICAgICAgICAgICAgICAgICAgICAgICAgICAgICAgICAgICAgICAgICAgICAgICAgICAgICAgICAgICAgICAgICAgICAgIAogICAgICAgICAgICAgICAgICAgICAgICAgICAgICAgICAgICAgICAgICAgICAgICAgICAgICAgICAgICAgICAgICAgICAgICAgICAgICAgICAgICAgICAgICAgICAgICAgICAgCiAgICAgICAgICAgICAgICAgICAgICAgICAgICAgICAgICAgICAgICAgICAgICAgICAgICAgICAgICAgICAgICAgICAgICAgICAgICAgICAgICAgICAgICAgICAgICAgICAgICAKICAgICAgICAgICAgICAgICAgICAgICAgICAgICAgICAgICAgICAgICAgICAgICAgICAgICAgICAgICAgICAgICAgICAgICAgICAgICAgICAgICAgICAgICAgICAgICAgICAgIAogICAgICAgICAgICAgICAgICAgICAgICAgICAgICAgICAgICAgICAgICAgICAgICAgICAgICAgICAgICAgICAgICAgICAgICAgICAgICAgICAgICAgICAgICAgICAgICAgICAgCiAgICAgICAgICAgICAgICAgICAgICAgICAgICAgICAgICAgICAgICAgICAgICAgICAgICAgICAgICAgICAgICAgICAgICAgICAgICAgICAgICAgICAgICAgICAgICAgICAgICAKICAgICAgICAgICAgICAgICAgICAgICAgICAgICAgICAgICAgICAgICAgICAgICAgICAgICAgICAgICAgICAgICAgICAgICAgICAgICAgICAgICAgICAgICAgICAgICAgICAgIAogICAgICAgICAgICAgICAgICAgICAgICAgICAgICAgICAgICAgICAgICAgICAgICAgICAgICAgICAgICAgICAgICAgICAgICAgICAgICAgICAgICAgICAgICAgICAgICAgICAgCiAgICAgICAgICAgICAgICAgICAgICAgICAgICAgICAgICAgICAgICAgICAgICAgICAgICAgICAgICAgICAgICAgICAgICAgICAgICAgICAgICAgICAgICAgICAgICAgICAgICAKICAgICAgICAgICAgICAgICAgICAgICAgICAgICAgICAgICAgICAgICAgICAgICAgICAgICAgICAgICAgICAgICAgICAgICAgICAgICAgICAgICAgICAgICAgICAgICAgICAgIAogICAgICAgICAgICAgICAgICAgICAgICAgICAgPD94cGFja2V0IGVuZD0ndyc/Pv/bAEMAAgEBAQEBAgEBAQICAgICBAMCAgICBQQEAwQGBQYGBgUGBgYHCQgGBwkHBgYICwgJCgoKCgoGCAsMCwoMCQoKCv/bAEMBAgICAgICBQMDBQoHBgcKCgoKCgoKCgoKCgoKCgoKCgoKCgoKCgoKCgoKCgoKCgoKCgoKCgoKCgoKCgoKCgoKCv/AABEIAtACmAMBIgACEQEDEQH/xAAfAAABBQEBAQEBAQAAAAAAAAAAAQIDBAUGBwgJCgv/xAC1EAACAQMDAgQDBQUEBAAAAX0BAgMABBEFEiExQQYTUWEHInEUMoGRoQgjQrHBFVLR8CQzYnKCCQoWFxgZGiUmJygpKjQ1Njc4OTpDREVGR0hJSlNUVVZXWFlaY2RlZmdoaWpzdHV2d3h5eoOEhYaHiImKkpOUlZaXmJmaoqOkpaanqKmqsrO0tba3uLm6wsPExcbHyMnK0tPU1dbX2Nna4eLj5OXm5+jp6vHy8/T19vf4+fr/xAAfAQADAQEBAQEBAQEBAAAAAAAAAQIDBAUGBwgJCgv/xAC1EQACAQIEBAMEBwUEBAABAncAAQIDEQQFITEGEkFRB2FxEyIygQgUQpGhscEJIzNS8BVictEKFiQ04SXxFxgZGiYnKCkqNTY3ODk6Q0RFRkdISUpTVFVWV1hZWmNkZWZnaGlqc3R1dnd4eXqCg4SFhoeIiYqSk5SVlpeYmZqio6Slpqeoqaqys7S1tre4ubrCw8TFxsfIycrS09TV1tfY2dri4+Tl5ufo6ery8/T19vf4+fr/2gAMAwEAAhEDEQA/AP38ooooAKKKKACiiigAooooAKKKKACiiigAooooAKKKKACiiigAooooAKKKKACiiigAooooAKKKKACiiigAooooAKKKKACiiigAooooAKKKKACiiigAooooAKKKKACiiigAooooAKKKKACiiigAooooAKKKKACiiigAooooAKKKKACiiigAooooAKKKKACiiigAooooAKKKKACiiigAooooAKKKKACiiigAooooAKKKKACiiigAooooAKKKKACiiigAooooAKKKKACiiigAooooAKKKKACiiigAooooAKKKKACiiigAooooAKKKKACiiigAooooAKKKKACiiigAooooAKKKKACiiigAooooAKKKKACiiigAooooAKKKKACiiigAooooAKKKKACiiigAooooAKKKKACiiigAooooAKKKKACiiigAooooAKKKKACiiigAooooAKKKKACiiigAooooAKKKKACiiigAooooAKKKKACiiigAooooAKKKKACiiigAooooAKKKKACiiigAooooAKKi+0xf7VMuL+1tf9YaALFR+b/0xrkfiH8cvhN8JdDm8SfEv4h6Todlb/6y41K+jjSvkH4//wDBwv8A8EwfghFqWlxfHN/E2qafDvhsfDenySJcSf7Eh8uM/wDfygD7s8ztHR9pi34zX4Y/HD/g7zs4dT+x/AL9nCSS2jik82+8QX/lySf88/Lj/wDtlfH/AMZP+DlL/gpv8VdP1Lw5pfjbR/DlhqF1vi/sTS/9It4/+Wcccnmf+06AP6hNT1zTtLtftF/exxx/89JJNlc34v8Ajt8IfAOgSeJPGPxK0Oxsrf8A1lzdapGiV/Jb4s/a9/4KlftIaXbeG/Efxg+JviCG4l8u1t7H7RHHJJ/2zrS/4d9/8FaPiDpcOm3XwI+KGpWdx5flW19qEkkf/TP93JJ/6MoA/p11H/gpp+wTpenTajc/tR+EtlvFvm/0/fXkvi7/AIOBf+CXXhG9TTrr9oSC7eSHf/oNrJJX4feE/wDg2x/4K0eJ/D8OsTfCXTdNe4+f7FqXiOOOSP8A66Rx+ZH/AORKv/8AEMT/AMFXPn/4t74Z/wDB9/8Aa6AP2d/4iNv+CV//AEWy6/8ABXJR/wARG3/BK/8A6LZdf+CuSvxi/wCIYn/gq7/0T3wx/wCFJ/8Aa6P+IYn/AIKx/wDRPvDH/hRf/a6AP2hsv+DiL/gljf3S2kXxznjeT5P3umlI/wDvuu60r/gtZ/wTO1SeG0tv2odDje4+WLzDsr8If+IYn/gq588P/CvfDn7z/qY//tdH/EMT/wAFYYv3UXw98Mbvv/8AIe/+10Af0N/8PIf2FfK87/hp/wAJ/wDg0rtvAf7RXwO+Jlj/AGl4A+Kvh/VrT/nra6pG9fyu/FT/AIImf8FUPhDrb6PrP7K+v30Mkuz7dol1b3Ucn/XP/lp/38jjrg/EH7JX/BSD4BW7zax8GfiV4ctpIvP/ANBiuI4/Lj/56SR/+1KAP7C7XV9Ov41nsbyOZD/y0ik3pVr7SD9wV/Hh4P8A20v+CkH7PFt/xIfjZ8RvD9t5Wz/TpbiSPy/+2lfQ/wAB/wDg5h/4KZfCU2Gm+I/FWleLtNt5Y/N/taw8u4uI/wDrp/8Aa6AP6iPtUPmeTmjzf9qvw2+CP/B3jps1+9l8ff2dZ7eHtN4f1TzJB/vxyeX/AOjK+1/hJ/wcaf8ABLH4qyabZy/Gyfw/eahD+8t9b0uSOO3/AOuj0Afe1Fee/Dj9qP8AZ3+MGmf2x8LvjD4f1y287Z5um6lHJ89d1BfQzR+agegCxRUSSxnpuqWgAooooAKKKKACiiigAooooAKKKKACiiigAooooAKKKKACiiigAooooAKKKKACiiigAooooAKKKKACiiigAooooAKKKKACiiigAooooAKKKKACiiigAooooAKKKKACiiigAooooAKKKKACiiigAopu8Ubx/wA9KAHU3eKr3F1F8/76P93XzV+13/wVc/Yu/Y00a+k+Lnxm0tdWs4d58P6ZdR3V5J/wAHj/ALaeXQB9NSXEUO3zTtriviv8ePg18FdJbUvip8UtD0CGOLeZNSv445Nn+wlfhF+2H/wdbfH74qQ6l8PP2UPhZB4dtryWSCw8QX0vn3ckf/TOD/np/wBtK+Y/h/8AsM/8FjP+CoviS28YeI9B8XarbahFs/tvxJdSWtp5f/xugD9bf2sv+DoP9hr4H2dzo/wgl1T4ha5H5iR/2Za+Xbxyf7ckn/LP/rn5lfnT+0h/wdE/t6/HzT4fBPwk8HaV4Le88xJf7N8y+uLjzP8AV+X+7r6e/Zb/AODQ/QLCSHWP2qfj6bvHlv8A2R4btf3Z/wCekbyS/wDxuv0a/Zz/AOCQn/BPz9mPS7fTfhp+z5pLzW8nmR6lqUfn3Hmf79AH873h/wDZB/4LMf8ABRPxJbTaz4P8eaxDqHz/ANpeIJZLWw/+N19c/s3f8Ginx38U6fp2u/tFfHnTfDO+6/4muh6ZbSXUgt/RJP8AV1+/GnaXZ6XbpZ2FnDawx/JFHbReXWhQB+XPwT/4NS/+Cfvw41S51L4g674g8ZQ3EOyK2vsQRxn+/wDu6+nPhX/wRo/4JvfCW0WDw5+zHoF08ePLudSHnyfJX1VRQBx/hb4JfCbwbaw2vhX4VaDp4txiIW2mRp5f+4/l766qO1/d4ii8upqKAGR+bjnzKfRRQAeV/wBNqKKKAE8uT/ns/wCVRSRfe/6af9NKmooAreVL/wBNP3lQajo1nrET2esafDdQyR/6u4i8yP8A74rQooA858efsrfs6/FDS30Lx78FPDmpW0n/ACzk0eOvm/4r/wDBAH/gmD8Wrh73UPgDDps0n/LTSbqSOvtaigD8Z/jl/wAGg/wM8QadeXvwB/aJ1bRL4ySSWtlrWmC4t8f3Hk9P+2dfIvx7/wCDUn9vv4ayRz/C7xL4Z8a2vk+ZJ9lupLWSOT/rnJH/AO1K/pSpJU8yNvePFAH8dHxI/Zu/4KBfsPao8PjP4e+PPBaRy7/tMf2iO3/d/wCs+eP935dfQ37NH/ByH/wUT/Z+t7DRta8YWPjHSrOTfLb61/rLj/pn5n/2uv6cPG3w68EfEbRpdB8d+ENP1izk+SS2vrWORK+Q/wBqD/ggH/wTk/aWt7me6+D9v4Z1iS18uPV/Df7uSP8A4BQB81fsa/8AB1n+y58W7aLQf2qfCGpeA9W8r95fW8X2uwk+f93HH/y08z/fjr9K/gl+1X+zr+0PpEOtfBj4weH/ABBDcQxv5Om6pHJJ8/TfH98V+KP7W3/BpR8U/DFjda5+yL8YLHXlijj/AOJR4gtntbj/AKaeXJ/q/wDyJX56+NP2c/8AgpZ/wTs8YfbNU8E+OPBd5+8S11LTYpJI5PLk/efvI/3fl0Af1/x3UMg4lpd/b+5X81v7D/8AwdCftdfs8W9t4J/aC0GD4haJbyxp9ukl8i/jj/66f6uT/tp5dfsd+wV/wWj/AGM/28NPSz8B/EO10PxJJ8n/AAjfiCaOC4/7Z/8APSgD7IoqpbSQ7T5W3Z7fcqz5if3qAHUU3eKdQAUUUUAFFFFABRRRQAUUUUAFFFFABRRRQAUUUUAFFFFABRRRQAUUUUAFFFFABRRRQAUUUUAFFFFABRRRQAUUUUAFFFFABRRRQAUUUUAFFFFABRRRQAUUUUAFFFFABTX6U2SUeW1fIP8AwUK/4LCfsof8E/8AwvczeO/GtvqPiT/mH+GtNuo3uJJP3mzzP+ecf7ugD6x1C/tNMt5ry/njjhj+eWSST/lnXwl+3n/wcF/sIfsZQ3Phix8cJ448Xf6v/hH/AA2fPjjk/wCm8/8Aq4/+ufmV+MP7X/8AwXV/4KG/8FA/E9x8MPh7dzaHo+qS+Xp/hbwtDI88kcn7v53/ANZJXuH/AATn/wCDYr4/fHzULX4qftpaxdeEdBkljm/siT/j/vI5P8x/6ygDhf2hP+C5f/BTf/gov4jf4P8A7Meg6p4fs9Q/cRab4X8x7i48zzPvyVrfsp/8Gyf/AAUH/aV1CHx5+1BrEHgewuJfMl/4SC++1X9x/wAA/wBZ/wB/PLr94v2Tf2EP2Xf2N/CEPhT4F/DLTdL8uKNLrUfsv+kXEkf/AC0kf+/Xs8cRoA+Hf2IP+CCP7C37HH2fXbTwHH4q8RR+X5mra9H5iRyJ/wA846+2NI0qy0uzSz0uyhtYY/8AlnbQ+XH/AN8VdooAKKKKACiiigAooooAKKKKACiiigAooooAKKKKACiiigAooooAKKKKACiiigBkkRrI8TeD/C/iqyfTvFHhmx1KCRSk0V9axyJ5b/f+/W1RQB+ef7a3/BuV+wV+1VPeeKvB/hv/AIQPxDcS7/7S0COOODzP+udfkB+3Z/wb7/t4fsM6vN8Qvhfo+peLvDFn5jxeJPDd1/pFnH/00j/1n/kOv6i6rXltZS20lvdQJJG/EnmLuB/36AP5iP2EP+Dhv9tj9ji7s/AXxevZ/G/hvT5PLutO1qWRLy3j/wCecb/6yv2+/YJ/4LQ/sXft96XDZfDnx7DpXiYw/vvCurN5dx5n/TP+CSP/AKaVg/t3f8EJ/wBhz9ti11DV77wRB4Z8WXlr+78QaLCkcnmf7ad/4K/EX9t//gh9+3r/AME6Nck+J3geK+8QeHrO68618UeG4pPMt/L/ANXJJH/rKAP6lrc/u1lEX+sqxX82v/BOT/g5h/aP/Z+1O2+G/wC1gLjxr4R/dwfbv9Xf6f8A9NN9fvV+yj+2F8Av2w/hrZ/Er4F/EKx1mzuIcTRxXP7y3k/55yJ/z0oA9gopqdKdQAUUUUAFFFFABRRRQAUUUUAFFFFABRRRQAUUUUAFFFFABRRRQAUUUUAFFFFABRRRQAUUUUAFFFFABRRRQAUUUUAFFFFABRRRQAUUUUAFFFFABRRUdxL5UfmigBJ5PKTmVU+tcd8WvjP8N/gf4C1H4jfFPxha6PpOl2vn3V1dTRokdfPv/BSz/gq9+z//AME6Ph1Nq/jfWLXUfElzFImheG7W63yXEn8G9B/BX4CftAftaf8ABRT/AILh/HRPBPhfQdVurOSWNLDwlpMUkdhp/wDrI/Mk/wCWf/bSSgD69/4Kaf8AB0J418dpqHwb/YPgm02G4k+y/wDCVSRf6RJ/z08hP+elfMH7C/8AwQ+/bk/4KT+JH+LXxM/tXw/oN5db7/xJ4oik+0ah5nmeZJB5n+sr9Tv+CT3/AAbp/BP9jmw0/wCKn7TWmab418ff66OOSPfaadJ/zzjj/wBX+7/56V+ndnY2trBHaW0MccMcWyOONdkf/fFAHyn/AME9P+CP37I3/BPvwxDF8PfAkGpeJJP+P/xRq0PmXEn+5/zzr6xji+T/AJZ0GKH/AJ4+ZT6ADyYf+eP6UUUUAFFFFABRRRQAUUUUAFFFFABRRRQAUUUUAFFFFABRRRQAUUUUAFFFFABRRRQAUUUUAFFFFABRRRQAeV+7aKqOo6dpt/YSafqVnHcW8i7JIpIvMjP++lXqKAPzJ/4KSf8ABtx+y5+1TaXnxB/Z902HwH4zk/fyR6bDGlnqEn/TRK/GK8tf+Cin/BD39pD91eax4Vv47rZF+9k/szWLeP8Ad/vP+WcnmV/Wh5X3/KryD9r39ir9nv8AbW+GM3wv/aD+Htrrlj9+1kk+SSzk/wCeiP8A89KAPkD/AIJT/wDBwJ8Ef2657P4SfFC6tPCvxBuP3f2GSTy7e8k/6Zv/AH6/Rq0vfOieWL95X8v3/BVj/ghp+0H/AME7fFE3xg+D9pqWsfD23ut9jrdj5klxp/7z935//wAcr6S/4I0f8HH2pfDmPTf2cP26tYurqx82ODRvFsv7ySPzP9X57/8APOgD99oM+X+8qSsHwd408NePvD9r4p8H67a6lYXkKTWtzbTeZHJ/uPW1b/coAkooooAKKKKACiiigAooooAKKKKACiiigAooooAKKKKACiiigAooooAKKKKACiiigAooooAKKKKACiiigAooooAKKKKACiiigAooqvPcwwq0sp+SgCSSXyq/O3/gsF/wXP8Ag/8AsG+Fb74bfDme08QfEiSHy7XTRJvj0+ST/VyT1yP/AAXG/wCC5XhD9jHwlcfAj9nrXrfUviVqlrIjSw+W8ejxyf8ALR/9uvzt/wCCT/8AwRM/aE/4KJ/FuH9qj9r6z1WDwZeX8eo3WpavLJHd65/y0/d/8tPLkoA8z/Yl/wCCd37bH/BaP49zfFv4ra9qX9g3l/v17xbq3zx+X5nmPHAn/XOT/lnX9Fn7Ff7BX7N/7Cfwztvhj8DPAlrY+XFsv9W8n/S7yT/npI9elfC74XfDn4NeELTwH8L/AAXp2h6PYRRw2tlptqI4xHXSpF5XAmoAfHH3zRRRQAUUUUAFFFFABRRRQAUUUUAFFFFABRRRQAUUUUAFFFFABRRRQAUUUUAFFFFABRRRQAUUUUAFFFFABRRRQAUUUUAFFFFABTJIv3iTfx0+igDH8SeE/DvjLQ7rw54o0i1vrG8hkS6sbyHzI5Efs6GvxP8A+Cxf/Btjo7DWP2l/2E7T7L5cUk+seBYo/wB35n/LSSD/AON1+5FV5raCWNxLEjrJ8u2T7lAH82//AARN/wCC3nxB/YL8cR/su/tLzXd94DuL/wAmKTUpv3+hyeZ+82f9M/M8yv6Lfhx8SfB/xV8E6f49+H3iO11TSdUhSaxvrWbzI5I/9+vza/4LHf8ABvn8Lf2w7K++O/7M2jWvhj4gRwyT3Wm2Nrss9Y/34/8AV+ZX57/8Ekv+Cq/xy/4JR/HrUP2Q/wBsePVo/B8eqRwXWn3kkkkmhXH/AC0lj/6Zyf8APOOgD+lCOXzakrmfhp8TvBPxc8GWHxC+HWvWuraTqkXmWt7ZSeZHJHXRRydqAJKKKKACiiigAooooAKKKKACiiigAooooAKKKKACiiigAooooAKKKKACiiigAooooAKKKKACiiigAooooAKKKKACiim+Yn96gBslzDGP3hr8xv8AgvX/AMFo9N/Yi+H958AvgbNb33xG8QWPkfafN8yPR45P+Wjx/wDPT/nnXtv/AAV1/wCCnngD/gnP+zzqPim4vLO78Z6pD5HhXRfM/eTzyb4/MdP9ZiPfX5e/8ETP+CW3jb/gpL8crz/goT+3VJfazoMeqSXWn6ZqPmJ/bN55nmR7/wDp3j/55x0AUf8AgjB/wQ+8e/tweM/+Gx/29Bq0nhuS6+1Wum6l/wAfGsSSf8tHk/1nl1/QJ4W8NaB4N0Cz8H+GNOhtbHT7aOCxsYo9kcUaDZ8lSaHoWj+HtPttH0DTbe1sbeLy7W1ij8uOOP0RK0bb70lACQRSxbsmpKKKACiiigAooooAKKKKACiiigAooooAKKKKACiiigAooooAKKKKACiiigAooooAKKKKACiiigAooooAKKKKACiiigAooooAKKKKACiiigAooooAZJFx/qY6/Pj/AILM/wDBFT4V/wDBQHwBqHxU+HunR6J8TtLtZHsL62/1eq+X5n+jz1+hVMkx/wB/KAP5tv8AgkR/wVZ+OX/BLH493n7HH7V8N1/whn9qeRdWWpRfvNDuP9X5kb/8+8n7uv6Lfh58QfB/xQ8H6f488B6zBqWj6paxz2F7bTb45I5K/P7/AILd/wDBFX4d/t4+Abj44/C7SI9K+Jnh+wkeK4jTamp28fz+VInr+7/d1+fv/BBj/gsB41/Y5+MH/DB/7WGrvB4Sn1SSy0++1KTZJo155n+rf/pnJQB/REksRkwKkrL0XVdP1eyh1LS9SjurW4h32ssU3mJJH/z031pbxQA6iiigAooooAKKKKACiiigAooooAKKKKACiiigAooooAKKKKACiiigAooooAKKKKACiiigAooooAKKKKACvI/2xf2rfhX+xd8CNe+P3xa1NYNN0e1zFb/8tLy4/wCWcUf/AE0r0fXNas/DulTavqE0ccNvDJJNJIdiBEr+bj/gsJ+3r8U/+CrP7bmlfsc/s8aldXHhKz8Rx6do1tbf6vULySTy5LiT/pnH+8oAufs4fDX4/f8ABw3/AMFJ5vjD8WtNntfh34bv9+qfvf3dnZxyfu7eOP8A56Sfu45PLr+ij4afDXwd8JfBGm/D74f6Db6VpWl2scFrZW8Xlxxxx14f/wAEyf2Afhx/wT1/Zs0n4P8Ag20jk1SSGOTX9S/5aXlx/wDG/v19KRx980AEXaiiigAooooAKKKKACiiigAooooAKKKKACiiigAooooAKKKKACiiigAooooAKKKKACiiigAooooAKKKKACiiigAooooAKKKKACiiigAooooAKKKKACiiigAooooAjn8rH/jlfi7/AMHHH/BGuz8R+G9S/bz/AGZfCMi69p8kb+MtK02PZ9pj/wCflE/6Z/JX7TVl+ItH0zxBo95oOsWcd1a3kJguoZPuSxv8jh/wzQB+PP8AwbV/8FdP+Fp+HH/Yb+Pvie4XxRpcPneEb688vy7y3j/1kDv9/wAz/wC2V+y9nJ50Hnf89K/mh/4LUfsH+N/+CTv7Z+g/tL/s53l3a+HvEGqSajpdzbRSJHp95H+8kt5JP+eckfmf+RK/bX/gk1/wUN8If8FC/wBlzSPiPpVwsevafDHY+KNOH/LtcJ3/AO2lAH1hRRRQAUUUUAFFFFABRRRQAUUUUAFFFFABRRRQAUUUUAFFFFABRRRQAUUUUAFFFFABRRRQAUUUUAFRu+I28ypK5f4i+PvDHwx8D6x498ValHb6folhJfX8sh2eXGiE/wDslAH51f8ABx9/wUr0f9lj9la8+AHw+14R+OfHH+i+XF88lvp//LST/wBAj/7aV5Z/wbF/8EwNH+Hvwv8A+G3vjV4Pd/FXiCT/AIpP+0rXy5LO3/5aSR/9dK+D/h/F8SP+C63/AAWUttYv7OSTw3b6pI915f7yOz0e0kkkj8z/AK6SSRx/9+6/pg8GeEdG8CeEtO8HeHbOOGz0y1jgtYvufcoA3P3VFFFABRRRQAUUUUAFFFFABRRRQAUUUUAFFFFABRRRQAUUUUAFFFFABRRRQAUUUUAFFFFABRRRQAUUUUAFFFFABRRRQAUUUUAFFFFABRRRQAUUUUAFFFFABRRRQAUUUUAFMkiNPooA8F/4KBfsVfDj9un9mvxB8CvH2mwvLcWrzaDeSQ/8g+8RH8uRK/n9/wCCUH7Xvjb/AIJE/wDBRPUvgP8AGWe6sfD2oeIv7E8UR3Eckcdn+88uO82f8845PL8z/tpX9PMkUPl1+If/AAdP/wDBOezl0Oz/AG9fhzp0kdzZyW9l4o+zR/u/Lkk/dyf9/KAP2p8N6tZaxpNvqmn3Uc0N5H5ltJF/qykg31sJ0r81/wDg3I/4KFD9rP8AZLs/hL4z177R4q8Dx/Zbr7T/AKy4s4/9XJX6UJ0oAdRRRQAUUUUAFFFFABRRRQAUUUUAFFFFABRRRQAUUUUAFFFFABRRRQAUUUUAFFFFABRRRQBG/wDqq/Jf/g6a/biHwb/Zu0n9l7wrqfk6148kknuvLOyT7HB+7k/8iSR1+q/iHVbPS9CvNYv5EjhtIpJJZP8ApmlfzZfGS617/gs1/wAF0P8AhD7WafUvB+n61HZRW3m+ZHHpdp5nmSf88/Lkk8ygD9G/+DZj/gn7F+zP+yrN+0V4x0eOPxL8RTHND5h/eW2np9xP+Byc1+oHlewrE8E+CNB+H/hTSvBPhLToLPTdLsY7W0t4YtiW8ccexNiVvUAFFFFABRRRQAUUUUAFFFFABRRRQAUUUUAFFFFABRRRQAUUUUAFFFFABRRRQAUUUUAFFFFABRRRQAUUUUAFFFFABRRRQAUUUUAFFFFABRRRQAUUUUAFFFFABRRRQAUUUUAFFFFABXBftE/BDwT+0j8FvFHwK8fWkdxpXiXRrjT7o/8ALSLzI/8AWJ/tpJskBrvaP+WVAH8v/wCwR8S/Gv8AwRm/4K7w/D34o3k1roP9s3Gi+I45P3cclnP5kccn/bOTy6/pu0DWbbXtNi1O2ljkhmjEkckZ/gevwq/4Oz/2R9S8L+PPB/7aXhP5La8mj0vVJI/9ZHcR/wCrk/8AIdfpR/wRO/a+tP2wv2CvCXja41OOfWNHthpWsx/8tI7i3Ty/n/74oA+wU3bP3lOpsf3BTqACiiigAooooAKKKKACiiigAooooAKKKKACiiigAooooAKKKKACiiigAooooAKKKgn/AIP+utAHxr/wXK/bEtP2Qv8Agn94t8SWM3l6xrkf9kaN++2SeZJ9+SP/AK518Gf8Gjv7MGo3Om/ED9sHxQ0jfbLr+yNL8y13+Z/y0kkST/WfxpXkv/B1T+1RrvxS/ai8K/sh+FtdabSvD9rHJd2MMn7v+0bjzETf/wBNI49lfsB/wSJ/Zrsv2VP2APh58K7a1aO5/sf+0NUz/wA/Nx+8k/8AZKAPpqOPHH8NFFFABRRRQAUUUUAFFFFABRRRQAUUUUAFFFFABRRRQAUUUUAFFFFABRRRQAUUUUAFFFFABRRRQAUUUUAFFFFABRRRQAUUUUAFFFFABRRRQAUUUUAFFFFABRRRQAUUUUAFFFFABRRRQAUf8sqKKAPlv/gr/wDsqr+17/wT++IXwk08xx6hHop1HR5PsvmSR3Fv+8jjRP8Apps8v8a/J/8A4NNP2ldR8CfHDx5+yL4j1eOGz1yL+0LW2/5afbIP+ef/AJEr9+ruxhv7R7K6ij8mT5Jf+mlfzFfFy11H/glD/wAFzH161mksdH0/xlHdfu4v+YfcSeZ/q/8Ann+8oA/qBT7i06sfwp4h03xToFnr+mT77e8tY54pP99K2KACiiigAooooAKKKKACiiigAooooAKKKKACiiigAooooAKKKKACiiigAooooAKwfHXirTfB3g/UPFWqSxx2+m2sk8skkmzGyt6vlH/gtF8brb4D/wDBOH4leNprdp5LjQZNPtYxJs/eT/c/9AoA/Az4B2E3/BRj/gug3iSLQoL6z1z4gyXt1bSXUkkf2O3/AHfmf9c/3cdf1G6Zp1jpVnb6PpcXk29vH5cUP8EccfyYr8Bf+DRT9n4eJ/jx48/aR1XQfOh0PS49O0u+kl/1dxJ+8k/8h+XX9AyYy3l/9tKAJKKKKACiiigAooooAKKKKACiiigAooooAKKKKACiiigAooooAKKKKACiiigAooooAKKKKACiiigAooooAKKKKACiiigAooooAKKKKACiiigAooooAKKKKACiiigAooooAKKKKACiiigAooooAK/n9/4O4/2aT4X+PHgn9qHR9NuvJ8QaX/Z2qX33447i3/1cf/fuOv6Aq/On/g5d/Z/t/jN/wTX1/wAS29rPJeeD7qPVLX7N/wBM3/eb/wDx+gD1L/ghn8fP+Gg/+CaXwz8VS3lxPfaXoUej6rc3EvmSSXFp+7kkf/rpsr7Et/uV+Nv/AAaM/G+bxF8BfG3wNv8AWfM/sPVPtWn2J/5Zxyff8uv2ST/VUASUUUUAFFFFABRRRQAUUUUAFFFFABRRRQAUUUUAFFFFABRRRQAUUUUAFFFFAEcvevyX/wCDsj43Q+F/2O/DfwlsdXjjufEmvSPNY/8ALSSOOP8A+2V+tE/nY/dV/PN/wdgfFmz+Iv7Y/gD4D6L5klx4f0bfL+9/d+Zdyfu/koA+6/8Ag1v+AI+Ff/BO2Hx5qOmvBfeNNeuNQlP9+NPLjj/9Ar9Lq8R/4J1fCq7+C37D/wAMfhxqEUaXGn+ErN7oY2fvJI/Mf/0OvbqACiiigAooooAKKKKACiiigAooooAKKKKACiiigAooooAKKKKACiiigAooooAKKKKACiiigAooooAKKKKACiiigAooooAKKKKACiiigAooooAKKKKACiiigAooooAKKKKACiiigAooooAKKKKACvMP2vPhPZ/G/wDZo8cfCq6tBdf254cvLWOP/ppJH8len1DcRC4t5Iv+mciUAfzkf8Gv/wAUJvhT/wAFBPEPwZv4ZI31yxuIP+2kckn/AMbr+jmz/wCPNP8ArnX8yfwTv/8AhiP/AIOJH8B+DbyOfTf+Fv3GkfvP3ccdvcXnl/8AkOv6bLPyRH+6loAsUUUUAFFFFABRRRQAUUUUAFFFFABRRRQAUUUUAFFFFABRRRQAUUUUAFFFFAFedM/9+6/lx/4KYf8ACYftLf8ABeDWvAf2P/SZPiDp+kWsfm/8s444/wDV/wDbOOSSv6hNd1OHRNKvNVkPy29tJL/3wlfy+fsr3+sftS/8HBEPiS6vJHfUPi/qF1Fcxxfu/s9vcSRx/u/+uaR0Af08+FPD8Xhjw/p/hu1+ZNPsYrXzP+ekcabErYqGAZk83/pn+7qagAooooAKKKKACiiigAooooAKKKKACiiigAooooAKKKKACiiigAooooAKKKKACiiigAooooAKKKKACiiigAooooAKKKKACiiigAooooAKKKKACiiigAooooAKKKKACiiigAooooAKKKKACiiigApnlewp9FAH8tf/AAWq0m8/Z/8A+C2XinxRoJuFmfxZZ61EbqPYksk/+kSRpJ/zz+ev6gPCFz/a3hjTdRk2f6RYxTfu/wDbTNfzd/8AB0nY6x4d/wCCocPiS5s/JjvPDenz2sv/ACzk8uPy5P8A0XX9Bn7IHj0fEv8AZc+Hvjr+0o7p9U8G6fPNcR/8tJPs8e+gD1CiiigAooooAKKKKACiiigAooooAKKKKACiiigAooooAKKKKACiiigAooooA5P4va7ZeHPh3rmr32/Zb6PcPNiPf+78uSv5uf8AggBqtl4m/wCC16+JdMi3w3kmsT2vmxfvI45Lj/7Ov6Fv24Neu/C/7KPj7xJYXnkTWfhe8fzcb/L/AHdfz7f8Gv8A4XtPFv8AwU8m8SX95JJNpeg3k8Mn/XST95/7ToA/pfTrTqE/8fooAKKKKACiiigAooooAKKKKACiiigAooooAKKKKACiiigAooooAKKKKACiiigAooooAKKKKACiiigAooooAKKKKACiiigAooooAKKKKACiiigAooooAKKKKACiiigAooooAKKKKACiiigAooooAKKKKAP57/8Ag708B/ZP2p/AHxImvI/JuPC/2Ly/+eflySSV+xH/AASc/wCUd3wi/wCxH0//ANF1+Tf/AAeCZ/4Wf8MfLh/1el3H/bSv0k/4IQeMr/xZ/wAEuvhXPe6i95c2+hPBLJLNvx5cskaJ+SUAfZlFNTpTqACiiigAooooAKKKKACiiigAooooAKKKKACiiigAooooAKKKKACiiigDxH/goh/yZF8UZv8AqT7n/wBAr8I/+DUfRtSuv+Cg+vaxa2byQ2fheRLqT/nn5kn7v/0XX7vf8FFP+THvil/2Jt5/KvxO/wCDRS/htv2v/iRZyXkcclx4Xj8qP/lpJ5dxJ5lAH9DMf8VFMj4/ff8APSn0AFFFFABRRRQAUUUUAFFFFABRRRQAUUUUAFFFFABRRRQAUUUUAFFFFABRRRQAUUUUAFFFFABRRRQAUUUUAFFFFABRRRQAUUUUAFFFFABRRRQAUUUUAFFFFABRRRQAUUUUAFFFFABRRRQAUUUUAFFFFAH4K/8AB4RkfEv4Xzf9OMv86+6v+DbP+3pf+CXfgz+3hJsjlvPsvmf88/tElfHv/B4H4S0eLT/hd42EMn2zzbiCvsL/AINvYIbf/gmN4Jmi8Syaj5n2jzPM/wCXf/SP9XH/ANM6AP0AgqSo4/4qkoAKKKKACiiigAooooAKKKKACiiigAooooAKKKKACiiigAooooAKKKKAPHf26vD8viv9kb4i+FLSby5tQ8J3MMX/AHxX4A/8Gul9e6P/AMFM7zRodOkmW48N3kF1L/yzj8uSP/0ZX9Ffx60G88SfCLxJoOnzJG9xoNwkfm/c/wBXX84H/Bu/baz4N/4LHw+CZdS8tY4tYguvL/1ckkdx5dAH9Nkf+f8AppUlJH/q/wDtnS0AFFFFABRRRQAUUUUAFFFFABRRRQAUUUUAFFFFABRRRQAUUUUAFFFFABRRRQAUUUUAFFFFABRRRQAUUUUAFFFFABRRRQAUUUUAFFFFABRRRQAUUUUAFFFFABRRRQAUUUUAFFFFABRRRQAUUUUAFFFFAH4pf8Hhv/IhfC3/AK/7ivsP/g3g8MTaB/wS/wDh7eSwwR/bI7ib91/10kr4X/4PB/GV6L/4Y/D2OGPyfKuLoyf8tP8AlpX6Hf8ABB/RNZ0T/gl38KdM1e0e3mXQPNaOb74V5JNh/KgD7GTpTqKKACiiigAooooAKKKKACiiigAooooAKKKKACiiigAooooAKKKKACiiigDF8U2P9raHeadD964tZI/M/wB+Ov5b/wBgTxHrH7PH/Bdiz02WaSSaz+LWoaRdeX+78yOS8uPM/wC2f7uv6o7iLzZMV/LR+35L4q/Zp/4Lya348v8ATY7H7P8AEyz1G1/dfu5Le48v95/208ySSgD+pS3/ANY8MtTVm6Dq1nr2k2us6bJvhvLWOaGT+CRJE35rSoAKKKKACiiigAooooAKKKKACiiigAooooAKKKKACiiigAooowfSgAoowfSigAooooAKKKKACiiigAooooAKKKKACiiigAooooAKKKKACiiigAooooAKKKKACiiigAooooAKKKKACiiigAooooAKKKKACiiiXvQB+AP/AAd5+LNAuf2h/hn4IE0kl/b6LJNL5f8Ayzjkkkr9gP8AglVpV9o//BPH4R2up2kkNwPBdnvjlXDD5Oh/z3r8Lv8Ag6E1688R/wDBVDTfDeqTRyW2n+HNPgtY4/8AWRxyf6z/ANGSV/RZ8FfC+leCPg/4X8HaEP8AQtL8P2dpafPu/dxwqq89+AKAOnooooAKKKKACiiigAooooAKKKKACiiigAooooAKKKKACiiigAooooAKKKKAI5ODjdt/d1/Ov/wdJ/DCX4Y/8FAvBfx0lPmW2uaLbz+X9z/UXEkcn/bSv6KZYI5vvr0r4O/4LY/8Ectb/wCCovgPw2nw68f6J4e8UeF7i4azvNdt5jDPFIwcRM0QZlUOCfunrQB9RfshfEPSfix+zH8PviDoG77HqvhHT3gz/wBc/n/9Ar06vEv+CeHwO+L37Ov7H/gb4IfG5tI/4SDwro66fdSaDevcWsyI2VKvJHG3Tg5UV7bgjtQAUUYJ7UuxqAEop3lnuaNg9aAG0U/avpS4A6CgCPBPQUu1j2p9FADdjUbD3NOooAb5fvRsFOooATYvpRtUdqWigAwPSjp0FFG4etABRTd4o8z2oAdTG68UFmPekoAKKKKACiiigAooooAKKKKACiiigAooooAKKKKACiiigAooooAKKKKACiiigAooooAKKKKACiiigAooooAKKKKACinBCaPL96AG1D5v7v8Ae1Y8v3qN7PcjBZMN/A2Pu/SgD+Z3/go7pUn7Wv8AwcUn4UW8s8cd38SNI8Oxi6XzI12yi2klx/zzEiV/TLbwRWsEdrboFjjQKijsAMAV+f8A4K/4IFfDvw9/wUjm/wCCkPiP9ojVtV1yTxNJrkfh5fDsUNvHcNIZMCTzWYLk8gAA+lfoHQAUUUUAFFFFABRRRQAUUUUAFFFFABRRRQAUUUUAFFFFABRRRQAUUUUAFFFFABRRRQAUUUUAFFFFABRRRQAUU0uwPSk3tQA+imbm9aTJPWgCTIHU0m5fWmUUAO3ijzPam0UAO3tTdzetFFABRRRQAUUUUAFFFFABRRRQAUUUUAFFFFABRRRQAUUUUAFFFFABRRRQAUUUUAFFFFABRRRQAUUUUAFFFFABRRRQAUUUUAFFFFABTkGTTach5oAdRRRQAUUUUAFFFFABRRRQAUUUUAFFFFABRRRQAUUUUAFFFFABRRRQAUUUUAFFFFABRRRQAUUUUAFFFFABRRRQAUUUUAFFFFACMMimVJUZ4OKACiiigAooooAKKKKACiiigAooooAKKKKACiiigAooooAKKKKACiiigAooooAKKKKACiiigAooooAKKKKACiiigAooooAKKKKACiiigAooooAKKME9BS7GoASineX6ml2CgBlAB7CpMAdBRQAg3dxS0UUAFFFFABRRRQAUUUUAFFFFABRRRQAUUUUAFFFFABRRRQAUUUUAFFFFABRRRQAUUUUAFFFFABRRRQAUUUUAFFFFABRRRQAVHTnbsKbQAUUUUAFFFFABRRRQAUUUUAFFFFABRRRQAUUUUAFFFFABRRRQAUUUUAFFFFABRRRQAUUUUAFFFFABRRRQAUUUu1j2oASinbD3NGwUANowT0FSYA7UUAM2N6UvlnuadRQAmwUuAOgoooAKKKKACiiigAooooAKKKKACiiigAooooAKKKKACiiigAooooAKKKKACiiigAooooAKKKKACiiigAooooAKKKKACiiigAooooAKKKKACiimsSOlADicdaazk9KaST1ooAKKKKACiiigAooooAKKKKACiiigAooooAKKKKACiiigAooooAKKKKACiiigAooooAKKKKACiiigApQpPalVe5p1ADQnqaUKB2paKACiiigAooooAKKKKACiiigAooooAKKKKACiiigAooooAKKKKACiiigAooooAKKKKACiiigAooooAKKKKACiiigAooooAKKKKACiiigAooooAKKKKACiiigAooooAjg85QUuHVjuO1l/iX3Hr+nfjOBJUN9ZR38HkvJJGysGjliba0bDowP9DkEZBBBIMq7tuGPPfAxQAtB5GKKKAIyMHFFPYZFMoAKKKKACiiigAooooAKKKKACiiigAooooAKKKKACiiigAooooAKKKKACiiigAooooAKKKKACiiigCQdOKKardjTqACiiigAooooAKKKKACiiigAooooAKKKKACiiigAooooAKKKKACiiigAooooAKKKKACiiigAooooAKKKKACiiigAooooAKKKKACiiigAooooAKKKKACiiigAooooAKKKKACiiigAooooAKa4wc06gjIxQBHRRRQAUUUUAFFFFABRRRQAUUUUAFFFFABRRRQAUUUUAFFFFABRRRQAUUUUAFFFFABRRRQAUUUUAFGSOlFFABuPrRuPrRRQAbj60bj60UUAG4+tG4+tFFABuPrRuPrRRQAbj60bj60UUAG4+tG4+tFFADkyeSadQBgYooAKKKKACkO49KWigBu092pdo9KWigA/CiiigAooooAKKKKACiiigAooooAKKKKACiiigAooooAKKKKACiiigAooooAKKKKACiiigAooooAKKKKACiiigAooooAa4702pCMjFR0AFFFFABRRRQAUUUUAFFFFABRRRQAUUUUAFFFFABRRRQAUUUUAFFFFABRRg+lLtb0oASinbGo8v3oAbRTtg7ml2CgBlFP2r6UuB6UAR0YJ6CpKKAI8H0pdjelPooAZsal2GnUUAN2HuaPL96dRQA3y/ejYKdRQAm1R2paKKACiiigAooooAKKKKACiiigAooooAKKKKACiiigAooooAKKKKACiiigAooooAKKKKACiiigAooooAKKKKACiiigAooooAKKKKACiiigAooooAKKKKACmuOc06gjIxQBHRRRQAUUUUAFFFFABRRRtb0oAKKdsajy/egBtFO2Cl2qO1ADKMH0qTp0FFADNjelLsPc06igBuz1NLsWlooANo9KKKKACiiigAooooAKKKKACiiigAooooAKKKKACiiigAooooAKKKKACiiigAooooAKKKKACiiigAooooAKKKKACiiigAooooAKKKKACiiigAooooAKKKKACiiigAooooAKKKKACiiigAooooAKKKKACiiigAooooAKKKKACiiigAooooAY4w1JgnoKkooAZsb0pfLPc06igBuwU7aB2oooAKKKKACiiigAooooAKKKM460AFFJuX1pQcjIoAKKKKACiiigAooooAKKKKACiiigAooooAKKKKACiiigAooooAKKKKACiiigAooooAKKKKACiiigAooooAKKKKACiiigAooooAKKKKACiiigAooooAKKKKACiiigAooooAKKKKACiiigAooooAKKKKACiiigAooooAKKKKACiiigAooooAKKKKACiiigAoo3D1pu8UAOopu89hSbm9aAH0ZA6mo8k9TRQA/cvrSbx6U2jBPagB289hSb29aXY1Hl+poAbk+tFP2L6UuMdBQBHgntUg4HSiigAooooAKKKKACiiigAooooAKKM460m5fWgBaKTcvrRvWgBaKbvFG8UAOopu8UbxQA6im7xRvFADqKbvFG8UAOopu8UbxQA6im7xRvFADqKKKACiiigAoopplUcEGgB1FNDuxGE47kmnUAFFFFABRRRQAUUUUAFFFFABRRRQAUUUUAFFFFABRRRQAUUUUAFFFFABRRRQAUUUUAFFFFABRRRQAUUUUAFFFFABRRRQAUUUUAFI4yKWigCOipMD0owPSgCPBPQUoRj2p9FADfL9TS7FpaKADAHQUUUUAFFFFABRRRQAUUUUAFFFFABRnHWijaD2oATcvrSeZ6Cl2L6UbF9KAE3tTdzetP2L6UbF9KAGUU/YvpRsX0oAZRT9i+lGxfSgBlFP2L6UbF9KAGUU/YvpRsX0oAZRT9i+lGxfSgBlFP2L6UbF9KAGUU/YvpRsX0oAZSqMmnbF9KUADoKACiiigAooooAD0pojH8Qp1FABRRRQAUUUUAFFFFABRRRQAUUUUAFFFFABRRRQAUUUUAFFFFABRRRQAUUUUAFFFFABRRRQAUUUUAFFFFABRRRQAUUUUAFFFFABRRRQAUUUUAFFFFABRRRQAUUUUAFFFFABRRRQAUUUUAFFFFABRRRQAUUUUAFFFFABRRRQAUUUUAFFFFABRRRQAUUUUAFFFFABRRRQAUUUUAFFFFABRRRQAUUUUAFFFFABRRRQAUUUUAFFFFABRRRQAUUUUAFFFFABRRRQAUUUUAFFFFABRRRQAUUUUAFFFFABRRRQAUUUUAFFFFABRRRQAUUUUAFFFFABRRRQAUUUUABJAyKZvb1p9GB6UAM3N60bm9afgelGB6UAM3N60bm9afgelGB6UAM3N60bm9adsX0o2L6UAN3N60bm9adsX0o2L6UAN3N60bm9adsX0o2L6UAN3N60bm9adsX0o2L6UAN3N60bm9adsX0o2L6UAN3N60bm9adsX0o2L6UAN3N60bm9adsX0o2L6UAN3N60bm9adsX0o2L6UAN3N60bm9adtX0pcD0oAZub1o3N60/A9KMD0oAZub1o3N60/A9KMD0oAZub1o3N60/A9KMD0oAZub1o3N60/A9KMD0oAZub1o3N60/A9KMD0oAZub1o3N60/A9KMD0oAahJ5NOo6dBRQAUUUUAFFFFABRRRQAUUUUAFFFFABRRRQAUUUUAFFFFABRRRQAUUUUAFFFFABRRRQAUUUUAFFFFABRRRQAUUUUAFFFFABRRRQAUUUUAFFFFABRRRQAUUUUAFFFFABRRRQAUUUUAFFFFABRRRQAUUUUAFFFFABRRRQAUUUUAFFFFABRRRQAUUUUAFFFFABRRRQAUUUUAFFFFABRRRQAUUUUAFFFFABRRRQAUUUUAFFFFABRRRQAUUUUAFFFFABRRRQAUUUUAFFFFABRRRQAUUUUAFFFFABRRRQAUUUUAFFFFABRRRQAUUUUAFFFFABRRRQAUUUUAFFFFABRRRQAUUy4iaaLy1facg7tuehzSqm1NgZvqTzQA6ikC4Oc0tABSMSBxS0jcrQA3c3rRub1pKKAF3N60bm9aSigBdzetG5vWkooAXc3rRub1pKKAF3N60bm9aSigBdzetG5vWkooAXc3rRub1pKKAF3N60bm9aSigBdzetG5vWkooAXc3rRub1pKKAF3N60bm9aSigBdzetG5vWkooAXc3rRub1pKKAF3N60bm9aSigBdzetG5vWkooANzetG4+tFFABuPrRuPrRRQAAseM1JTUHenUAFFFBOBQAnJPWloACjAFFABRRRQAUUUUAFFFFABRRRQAUUUUAFFFFABRRRQAUUUUAFFFFABRRRQAUUUUAFFFFABRRRQAUUUUAFFFFABRRRQAUUUUAFFFFABRRRQAUUUUAFFFFABQeeKKKAI6KD1oAJ6CgAowT0FOCAdadQBHRUhANRng4oAKKKKACiiigAooooAKKKKACiiigAooooAKKKKACiiigAoowT0FG1vSgAopdjelLsNADaKd5fvRsHc0ANop+wUbVHagBlFSYHpRQBHhvSl2N6U+igAAwMUUUUAFFFFABRRRQAUUUUAFFFFABRRRQAUUUUAFFFFABRRRQAUUUUAFFFFABRRRQAUUUUAFFFFABRRRQAUUUUAFFFFABRRRQAUUUUAFFFFABRRRQAUUUUAFFFFABRRRQAUUUUANKktTgAOlFFABRRRQAU1/vU6mNy1ACUU4Ie9O2gdqAI6KkAA6CigCOjB9KkooAZtY9qNjelPooAbsajYe5p1FADfL96Ng9adRQAmwUbV9KWigAwPSiiigAooooAKKKKACiiigAooooAKKKKACiiigAooooAKKKKACiiigAooooAKKKKACiiigAooooAKKKKACiiigAooooAKKKKACiiigAooooAKKKKACiiigAooooAr3d9DaRedJTbS6+1W/nRf8tP9XTpLSG5GLn56Le2FrH5MX7uNKAJk6U6mp0p1ABRRRQAUUUUAFFFFABRRRQAUUUUAFFFFABRRRQAUUUUAFFFFABQFAoooAKKKKACiiigAooooAKKKKACiiigAooooAKKKKACiiigAooooAKKKKACiiigAooooAKKKKACiiigAooooAKKKKACiiigAooooAKKKKACiiigAooooAKKKKACiiigAooooAKKKKACiiigAooooAKKKKACiiigAooooAKKKKACiiigAooooAKKKKACiiigAooooAKKKKACiiigAooooAKKKKACiiigAooooAKKKKACiiigAooooAKKKKACiiigAooooAKKKKACiiigAooooAKKMCk2L6UALuHrSbl9aNi+lGxfSgBN4o3+gpdi+lKFA5AoAKKKKACiiigBEdXG5DnnFLQAFGAKKACiiigAooooAKKKKACiiigAooooAKKKKACiiigAooooAKKKKACiiigAooooAKKKKACiiigAooooAKKKKACiiigAooooAKKKKACiiigAooooAKKKKACiiigAooooAKKKKACiiigAooooAKKKKACiiigAooooAKKKKACiiigAooooAKKKKACiiigAooooAKKKKACiiigAooooAKKKKACiiigAooooAKKKKACiiigAooooAKKKKACiiigAooooAKKKKACiiigAooooAKKKKACiiigAooooAKKKKACioLubyo2m/wCedM0y/hv7P7XHQBaooooAKKKKACiiigAooooAKKKKACiiigAooooAKKKKACiiigAooooAKKKKACiiigAooooAKKKKACiiigAooooAKKKKACiiigAooooAKKKKACiiigAooooAKKKKACiiigAooooAKKKKACiiigAooooAKKKKACiiigAooooAKKKKACiiigAooooAKKKKACiiigAooooAKKKKACiiigAooooAKKKKAI5Y4Zf9ZSRW0Fsn7qIJUtFABRRRQAUUUUAFFFFABRRRQAUUUUAFFFFABRRRQAUUUUAFFFFABRRRQAUUUUAFFFFABRRRQAUUUUAFFFFABRRRQAUUUUAFFFFABRRRQAUUUUAFFFFABRRRQAUUUUAFFFFABRRRQAUUUUAFFFFABRRRQAUUUUAFFFFABRRRQAUUUUAFFFFABRRRQAUUUUAFFFFABRRRQAUUUUAFFFFABRRRQAUUUUAFFFFABRRRQAUUUUAFFFFABRRRQAUUUUAFFFFABRRRQAUUUUAFFFFABRRRQAUUUUAFFFFABRRRQAUUUUAFFFFABRRRQAUUUUAFFFFABRRnnFAOegoAKKKQbs8mgBaKKKACiiigAooooAKKKKACiiigAooooAKKKKACiiigAooooAKKKKACiiigAooooAKKKKACiiigAooooAKKKKACiiigAooooAKKKKACiiigAooooAKKKKACiiigAooooAKKKKACiiigAooooAKKKKACiiigAooooAKKKKACiiigAooooAKKKKACiiigAooooAKKKKACiiigAooooAKKKKACiiigAooooAKKKKACiiigAooooAKKKKACiiigAooooAKKKKACiiigAooooAKKKKACiiigAooooAKKKKACiiigAooooAKKKKACiiigAooooAKKKKACiiigAooooAKKKKACiiigAooooAKKKKACigEHkGigAooooAKKKKACiiigAooooAKKKKACiiigAooooAKKKKACiiigAooooAKKKKACiiigAooooAKKKKACiiigAooooAKKKKACiiigAooooAKKKKACiiigAooooAKKKKACiiigAooooAKKKKACiiigAooooAKKKKACiiigAooooAKKKKACiiigAooooAKKKKACiiigD//ZUEsDBC0ACAAAADVvtU4AAAAAAAAAAAAAAAAZAAAAZm9ybWF0cy9saXZpbmcvbGl2aW5nLmpwZ//Y/+AAEEpGSUYAAQEBAEgASAAA/9sAQwADAgIDAgIDAwMDBAMDBAUIBQUEBAUKBwcGCAwKDAwLCgsLDQ4SEA0OEQ4LCxAWEBETFBUVFQwPFxgWFBgSFBUU/9sAQwEDBAQFBAUJBQUJFA0LDRQUFBQUFBQUFBQUFBQUFBQUFBQUFBQUFBQUFBQUFBQUFBQUFBQUFBQUFBQUFBQUFBQU/8AAEQgC0AKYAwEiAAIRAQMRAf/EAB8AAAEFAQEBAQEBAAAAAAAAAAABAgMEBQYHCAkKC//EALUQAAIBAwMCBAMFBQQEAAABfQECAwAEEQUSITFBBhNRYQcicRQygZGhCCNCscEVUtHwJDNicoIJChYXGBkaJSYnKCkqNDU2Nzg5OkNERUZHSElKU1RVVldYWVpjZGVmZ2hpanN0dXZ3eHl6g4SFhoeIiYqSk5SVlpeYmZqio6Slpqeoqaqys7S1tre4ubrCw8TFxsfIycrS09TV1tfY2drh4uPk5ebn6Onq8fLz9PX29/j5+v/EAB8BAAMBAQEBAQEBAQEAAAAAAAABAgMEBQYHCAkKC//EALURAAIBAgQEAwQHBQQEAAECdwABAgMRBAUhMQYSQVEHYXETIjKBCBRCkaGxwQkjM1LwFWJy0QoWJDThJfEXGBkaJicoKSo1Njc4OTpDREVGR0hJSlNUVVZXWFlaY2RlZmdoaWpzdHV2d3h5eoKDhIWGh4iJipKTlJWWl5iZmqKjpKWmp6ipqrKztLW2t7i5usLDxMXGx8jJytLT1NXW19jZ2uLj5OXm5+jp6vLz9PX29/j5+v/aAAwDAQACEQMRAD8A/VOiiigAooooAKKKKACiiigAooooAKKKKACiiigAooooAKKKKACiiigAooooAKKKKACiiigAooooAKKKKACiiigAooooAKKKKACiiigAooooAKKKKACiiigAooooAKKKKACiiigAooooAKKKKACiiigAooooAKKKKACiiigAooooAKKKKACiiigAooooAKKKKACiiigAooooAKKKKACiiigAooooAKKKKACiiigAooooAKKKKACiiigAooooAKKKKACiiigAooooAKKKKACiiigAooooAKKKKACiiigAooooAKKKKACiiigAooooAKKKKACiiigAooooAKKKKACiiigAooooAKKKKACiiigAooooAKKKKACiiigAooooAKKKKACiiigAooooAKKKKACiiigAooooAKKKKACiiigAooooAKKKKACiiigAooooAKKKKACiiigAooooAKKKKACiiigAooooAKKKKACiiigAooooAKKKKACiiigAooooAKKKKACiiigAooooAKKKKACiiigAoqPzF96SS4SLrQBLTN3+zWD4i8c6D4SsZLzWdWtNMto/vSXMyqtfP/xA/wCChnwV8DreQL4mbWr63XcsGmwsyyN/st8q/wDj1AH09u9KPMXdX5l+OP8Agr1Gl15fhXwezQqrbp9Qm2s393av/wBlXz/4y/4KU/GjxVb3lnBqVnpFrcSbl+w2/wC8jX+FVbd/7LQB+1t1fQ2sW+WRUX+8zbax9Y8d6BoGnteahrNja20f3pJbhVWvwe1b4vfG74kWsNneeIPE2qxyNtjjg8xVZv8AgNXP+Gffjx4gtY4X8L+KLy3k27Y55mZf9n5Wb/0KgD9o7j9pr4W2tvJM/jbSdsa7m/fbq4PV/wDgoF8E9ImWF/Fkc7Mu79xGzV+amk/8E2Pjxqmnx3DaDbWbSfN5NzfKrL/vKu5f/Hqtf8OxPjp83/Ep0z/wM/8AsaAP0T/4eN/A/wD6GSX/AMB2o/4eN/A//oZJf/Adq/Oz/h2J8dP+gTpf/gd/9jR/w7E+O3/QJ0v/AMDv/saAP0Wh/wCCiPwQuJVjXxNIrN8vzQFV/wC+q6e1/bW+DN1JHGnjaxVpOF3fLX5gf8OxPjp8y/2Tpvzf9P3/ANjR/wAOxPjsvyrpOl7vvf8AH5/9jQB+s/8Aw0h8Mdu7/hNdJ/8AAiuk0H4i+GfE0HnaVrmn30H96K4Vq/D7xV+xL8cPCF81vceB9Quo2bb59jJHMrf7v8X/AH0q1y+ofCX4weAY2a48O+JdIhZfM/cLIq7V/vMv/s1AH9A8V5DcKGikWRf7ytuWp/M9K/n10f40/GD4dx/6L4k8R6VDt2/v2kZdv/Aq9a8B/wDBTD4zeEvssN5fWuvWcbLu+1w7ZJF/3v8A7GgD9sPNXdto3e9fmd4I/wCCvEL3DR+KvCMkUf8Af0+43N/wJW2/+hV9IeEf+CjXwQ8VNZxt4kk0q4uF+aO+t2VY/wDeagD6kork/DfxS8JeMLX7RoniDT9Th3bd1tOrfNXTRzq67huoAmoqNWHvUlABRRRQAUUUUAFFFFABRRRQAUUUUAFFFFABRRRQAUUUUAFFFFABRRRQAUUUUAFFFFABRRRQAUUUUAFFFFABRRRQAUUUUAFFFFABRRRQAUUUUAFFFFABRRRQAUUUUAFFFFABRRRQAUUUUAFFFFABRSbqTd70AOpN1QySr83zL8teOfF79q74c/BmzuTr/iK1F9Cu7+z7WRZZ2/4D/wDFbaAPZmkVMbvlrnPFnjzw74KtGm1zW7HSo1XduuZlVtv+ytfmD8Yv+CrfirxUl5pPgXQ49IhmZo4dQnbzJmX/AGY/73/Aq8X8P/Az9oT9qLUodQvLXV76G4Xb9u1KRoYdv/xNAH3n8Wf+CoXwz8DwzW/h9rrxZqS7lX7LHtiVv9pm/h/3d1fI3xI/4KifFLx9bx6boOn2vhxptyt9m3XEkm77u35a9p+Fv/BIe1t2juPHHirz/ut9j02P5f8AaVmb/wCJr69+HP7IPwp+GNrDDo3hO0aSNty3NyvmSbv96gD8k9P+EH7RH7RWpQtcafr2oR3HzfadQZobb/4mve/hv/wSJ8Uapb2l14u8UW2jbpP9IsbWNpm8v/Zb7tfqjb2sdrGscUaQRr8qrGu2rVAHxN4J/wCCUvwp8N3U02rXWoeIY5F2rHP+7Vf9r5a9o8K/sZ/B/wAJQqtn4L0+dl+7Jc/vG+WvcaKAOf0vwToOjRRpY6HYWgj+75duq7f91tu6txYvl+VdtSUUANXd/tU6iigA2/7VFFFACbT/AHmpjL97/a/2qkooAh2t/tfNUVxZx3itHcRJPGy/dkXcv/fNW6KAOR174V+EfFFq1rqnhvTbyFv4WtVrx/xZ+wB8FfFsjSS+FUs5G/itJGWvo6igD87/ABz/AMEg/DOoW9xJ4V8XXem3W5mjhvbfzI/91m/+xrwPx9/wSk+KnhplbRLzTPEcG3c3lSNCyt/usv8A7NX7GUjLuU/7tAH8+HiT4b/Fb4H3TLqOk694cVW3eYvmLH8v3vmX5dtetfDP/gpF8XPh/Ha29zqEHiGxhbc0d796T/Z3f/Y1+z+t+HdN8R2b2uqafb6hbt8rRzxqy14F8UP2AfhD8S45mfw/HouoNHtW8035WX/gNAHjnwa/4KteCfF0aWvjjT7nwvf7fmnjXzrZvm+VV/i3f7y19j+Cfit4R+IlnHc+HfEGn6rHIqtstrhWb5vVfvV+cHxb/wCCSeuaXBPc+AfEEGqKqr/oeoRtDJ/tbW+7/wCPV8na18OfjJ+zrrHmT6brnhy4+ZY7m2VmVtrfN8y/LtoA/f8AWVW/ipd3/jtfjn8D/wDgqF4++HccOm+K7WPxZpsbKvns3l3Kr/vfdb/gW2v0K+Av7aXw7+PFusel6tFpmsN8v9m6gyxyf8B/vUAfQtFV42XB242/+O1PuHrQAtFJupaACiiigAooooAKKKKACiiigAooooAKKKKACiiigAooooAKKKKACiiigAooooAKKKKACiiigAooooAKKKKACiiigAooooAKKKKACiiigAooooAKKKKACiiigAooooAKRqazfK1eAftC/theBf2f9LmbVNSju9Y/5Y6bbSK0jN823d/dX5aAPdri4jtY5JJWVI1+ZmZv4a+Yfj1/wUG+F/wZSayi1NfE2v8A3f7P0394qt/00k+6v+7ur87PjB+3V8Wv2gtUm0XSZH0zT7ptsOl6WrNIyt8vzN95q9K/Zz/4Ji+KvH1xDrnxGuJdB0tmWT7G3/HzMrf5X71AHM/EL9ub40ftGak3h/wXa3WlW9x+7W20vc0km7d95qvfCn/gmT8WPiVcR6p41uI/DVrI25v7Qm865k/4D97/AL621+oPwm+A/gn4N6PHY+GNFtrHaqrJceX+8kZf4mb+9XoqrQB80fA/9gj4Y/BvyrqPS11zV127ru/Xcqsv91a+kLO1jtYVjgjSCNf4Y12r/wB81ZooAKKKKACiiigAooooAKKKKACiiigAooooAKKKKACiiigAooooAKKKKACiiigBrLVDU9HstVhaG9soLyJhtZZ41Zdrfe+9WjRQB8mfGv8A4Jy/C34qyXF9p9n/AMIvq0jbvtOnqqx7v92vgD47f8E+/ih8DLyTVtEt7nXtFh3MupabJ+8hX/aX73/jtftlUM0cbRsjqrK33twz+dAH4t/Af/god8SPg3Nb6Xr8kniXR7dtslvesyzxr/dVvvV+lPwE/bQ+HPx+tY49I1RLHWtvzaVdnbJu/wBn+Fl/2qy/jv8AsJ/DP42RXdxLpsei69NH8uoWSqrbv9pf++a/Nj44fsP/ABS/Zzvm1rTFn1XSYZPMj1TTVbdHt+6zL96gD9uo/uq2371S1+PH7OP/AAUw8YfD+6h0fx35niPQflj8/wC7cW/+1ur9R/hR8YfCvxi8NW+s+GNWg1G3kX5lWT5o2/usv96gD0CikWloAKKKKACiiigAooooAKKKKACiiigAooooAKKKKACiiigAooooAKKKKACiiigAooooAKKKKACiiigAooooAKKKKACiiigAooooAKKKKACiiigAoopkjbV3UAJI21fvBa5/xb400fwPoN3q+uahFp9jax+ZJLKyqq15R+0t+1f4U/Zz8OyXGpXEV3rEistnpsUm55G/h3L/AHa/K34gfFr4uftxeOl02ytbqe3ZlWHSbRWW2t/vLub+H/gTUAe/ftNf8FQtS15brw98L1ezjkbyf7VZf3jf3vLX+9XivwL/AGH/AImftKak2vaz9q0rS5pN02paoreZcbt25o933q+3/wBk/wD4J0+G/g5b2mueM4bbxH4q/wBYFZd0Nu391V+78v8Aer7RhgSKNI0VUjVdqqo2r/3zQB4b+zz+x/4B/Z90uNdJ0uO81hv9dql2u6Rv93+7Xuyr8v8ADRtX+7up1ABsX+7RRRQAUUUUAFFFFABRRRQAUUUUAFFFFABRRRQAUUUUAFFFFABRRRQAUUUUAFFFFABRRRQAUUUUAFFFFABt+VlqrcW8NxbvFNGssTDaysu5f+BLVqigD4x/aS/4Jt+CfipDcat4UhTwv4ib94y2yqsFw3+0tfnXNF8XP2HviR8sl5od0sm1fmb7JeRr8vzfwtur94Nv3ttcB8Xvgr4T+NfhiTRPFmkxana/ejZvlaFv7yt/eoA+f/2U/wDgoF4a+O0lvoOtvDofiuT5fIZtsczf7Lf3q+vIZt6sy/NX4qftWfsM+LP2dtUk8QeH47nUPCccm6G+g3NJb/N8vmf/ABVexfsZ/wDBR+bw4tn4P+J1xLPa7ljtdWb5mXd93zG/u0AfqdH93mn1laPrVnr+nw32n3UV5azKrxyRtuRv91q0o/u0APooooAKKKKACiiigAooooAKKKKACiiigAooooAKKKKACiiigAooooAKKKKACiiigAooooAKKKKACiiigAooooAKKKKACiiigAooqKSRUBZvu0AOZttfJH7YP7dHh/4DaVdaPpDQ6r4wZdsdtu3Lbs33WkrB/bj/AG5dP+DGkzeF/Cd1HeeMbqNlLJtZbNW/ib/ar5I/ZP8A2JfFn7RXi6Pxx4/juovDs0y3UlzeMyzX38Xy/wAW1qAON+CX7O/xI/bS8fSa9rt1c/2XNNuvNWu/mXbu3Msa/wC638Nfrl8FfgL4P+BPhmHRfDOlxW21ds13t/fTN/eZq7Hwv4X0jwbo8Gl6Jp1vpun26rHHDbR7VC1squ3+KgByrRRRQAUUUUAFFFFABRRRQAUUUUAFFFFABRRRQAUUUUAFFFFABRRRQAUUUUAFFFFABRRRQAUUUUAFFFFABRRRQAUUUUAFFFFABTWX5lb+KnUUAZ+paTaazYzWd7bxXNrMrLJBMu5WVv7y1+b/AO2N/wAE2Lc/2h4y+GEfkbVaS60JV+Xd/E0f/wATX6YVE8asrblVg3GG+7QB+PX7E37b2rfAXXF8E+MmmuvC8k3lq1y37yxbd823/Z3bq/XPw34k0/xVolrqmk3kV9YXSrJDPE25WX/er47/AGx/+CfOifGKG68UeDLeLRfFSq0kltBHtgvP95fu7q+UP2Sf2rPE37KPj278AfEIXaeH1uFjkt5mZmsZP4mX/Zb+6tAH7FK26n1i+GfE+m+LtFtdW0i6ivrG6XdHNC25WWtdWoAfRRRQAUUUUAFFFFABRRRQAUUUUAFFFFABRRRQAUUUUAFFFFABRRRQAUUUUAFFFFABRRRQAUUUUAFFFFABRRRQAUUUm4etADWkVetfF37e37aUPwR8P3HhXwy0dz4u1CHy/M3bls1b+Jl/vf3a9J/a6/ae0r9nP4eXd88kM/iK6Xy9Ost3zSSNuXcy/e+XNfFP7Ev7LepftJeObj4sfE4z6jpa3DTQ2txuX7ZNu3Lu/wCma/3VoAq/sX/sP6p8cNa/4WF8Uftb6O0nnR21z/rLxm/iZvvba/VjS9NtdG0+30+yhSC1t41jhgVdqoq/L8tPsbG30+3ht7WGOC2jXbHEq7VVf9latx9WoAI1Zd1OoooAKKKKACiiigAooooAKKKKACiiigAooooAKKKKACiiigAooooAKKKKACiiigAooooAKKKKACiiigAooooAKKKKACiiigAooooAKKKKACiiigBrL/srXyh+2Z+xTof7QHh+61zSYV03xpaxs0M8f3brbu/dyV9Y01v/AEKgD8ef2Q/2rPE37LHj64+HvjpZf+Ed+0eXJDcr81jJ93crf882+Wv1z8O+INP8UaPa6ppdxHeafdRrJDNG25WVq+VP23v2KtI+PGgTeJtEt1sfGWnwsyyKMLdRr821l/4D8tfKf7Bf7YGpfBzxh/wq/wAd3DRaDJcNbwz3LbWs5t33W/2WoA/WxWXdT6o2V1FeQxzQTLPBIu6NlbcrL/e3Vd3UALRRRQAUUUUAFFFFABRRRQAUUUUAFFFFABRRRQAUUUUAFFFFABRRRQAUUUUAFFFFABRRRQAUUUUAFFFFABXA/GL4raH8F/AeqeKtemEVnZx/LH/FNJ/Cq/7VdhfXsenWslxKypHGrMzN8qhVr8ev2wvj1rn7Vnxusfh74Smll0GG+W1tY4/u3EzNtaRv9lfmoAsfDfw14q/4KHftKSeINehkg8I6bNuuPm+WGFW+WNV/vN8qttr9cPDPhrT/AAlodnpOlWsdjY2saxxwxrtVVWvNP2ZPgBo/7PXw1sfD+nRq16yq15c/xTSf/E/er2NVoAF7UUUUAFFFFABRRRQAUUUUAFFFFABRRRQAUUUUAFFFFABRRRQAUUUUAFFFFABRRRQAUUUUAFFFFABRRRQAUUUUAFFFFABRRRQAUUUUAFFFFABRRRQAUUUUAFFFFADZNv8A7LX50f8ABRz9jWPUtNvPij4MsGXVLdlbVLW2Xb5i/wDPRV/2flr9Gao6jZw6hZ3FrcRrPBMnlyI33WVvlbNAH5+f8E1f2uv+Eq01vhn4qvZBrVqvmabPNt2zRr96Nm+9u/8Asq/Q+Ft8e7+9X41/tqfAfUv2TvjRpfjLwhJNBpOoXDXVvJGrKtvMvzNGzf3WXd/49X6R/sm/tDaf+0N8LbDWIHCapbqtvqFv/wA85F/+KoA92ooooAKKKKACiiigAooooAKKKKACiiigAooooAKKKKACiiigAooooAKKKKACiiigAooooAKKKKACmM3ytmn1ieItfsvDGh6hql9MsVrYwtcTM3y7VVf/ALGgD5G/4KP/ALS1v8K/hXceFdJutvibXP3O1fmaO3/ib/0Ff+BVxH/BMX9l+38PeF/+FleI9PZtc1Bv+Jb9pj2tDH/Ey/71fL/h9dY/br/bKhuJY2bR47hmk2/MsNnCzMu7/eZlX/vmv2V0XSLfQdJtNPtI1jt7WNY41+792gDT+WiiigAooooAKKKKACiiigAooooAKKKKACiiigAooooAKKKKACiiigAooooAKKKKACiiigAooooAKKKKACiiigAooooAKKKKACiiigAooooAKKKKACiiigAooooAKKKKACmstOooA8t/aB+Cuj/HT4a6r4Y1WFGeSNns5mX/AI95lVtrLX5U/sn/ABe1L9kT9oq88L+ImlttJuL7+z9QWRWVYfm2rNt/uq23d/wKv2mZV21+a/8AwVQ/Zzjaxt/ilpELLNC0dvqHlr8u1m+Vv++qAP0b027jvLSGeJ1kjmXfGy/d2t81aK18c/8ABOP9oX/hbXwlt9B1G683XNDXyZPM+9JCv3Wr7GWgBaKKKACiiigAooooAKKKKACiiigAooooAKKKKACiiigAooooAKKKKACiiigAooooAKKKKAGN92vg/wD4Km/HH/hDfhvY+CbGby9S15mkk2/K3kx/K3/jzLX3LqF1Ha2NxcSlUjhVmZv9la/HbxlLdftm/t0f2ejSXnh+3ult1j3blW1h3bm/u7WbdQB9e/8ABMv9n5fhn8KpPF2oW6rrPiLbIu770duv3V/4E1fau2s3RNDtfD+k2Om2EMdvZ2sKwxxou1Y1Vdq7VrUoAKKKKACiiigAooooAKKKKACiiigAooooAKKKKACiiigAooooAKKKKACiiigAooooAKKKKACiiigAooooAKKKKACiiigAooooAKKKKACiiigAooooAKKKKACiiigAooooAKKKKACuW+IngfTfiR4L1vwxqsay2OpWslrJ/eXcv3l/2lba1dTR/DQB+KvwD8Tal+xn+15HpOtyPBpf2qTT75W+VWhk3Krf8BbbX7PafeJf2yTIyvG67lZf7rV+Y3/BWj4RzaXr3h/4jWHywzMtncMv3lkX7rf+O19jfsT/ABfj+MPwF0HUnmWXULOP7HdL/Eska7fm/wC+aAPoBc7eadSL90UtABRRRQAUUUUAFFFFABRRRQAUUUUAFFFFABRRRQAUUUUAFFFFABRRRQAUUUUAFFFRSfw/71AHzx+3L8Yo/hD+z/r15E23UL5fsNr821tzfeZf92vl3/gkd8L5pLbxV8QL0s3nSfYbfdHu3fxMyt97+Ja4P/gqp8VLrxT8UdD8AWN0ZLHT41aSBG+X7RJuVd3+0q7a/QD9kT4ax/Cn9n/wloaIUm+y/arj/rpJ8zf+y0Aezqv/AHzRRRQAUUUUAFFFFABRRRQAUUUUAFFFFABRRRQAUUUUAFFFFABRRRQAUUUUAFFFFABRRRQAUUUUAFFFFABRRRQAUUUUAFFFFABRRRQAUUUUAFFFFABRRRQAUUUUAFFFFABRRRQAUUUUAFH8NFFAHiX7YHwqHxe/Z/8AFmgxbUu1tftVq3l7mWSP5lVV/wBrbtr4U/4JM/EqbQfHHijwDeXCx298v2qOP+Lzo/7v/j1fqjNAtxC0bqvlt8rf7Vfi54uim/ZQ/bma6RmttPt9UWb5V/5d5G3fd/u/NQB+1a/dFOrP0nUIdU0+3uoW3RTRrIrf7y1oUAFFFFABRRRQAUUUUAFFFFABRRRQAUUUUAFFFFABRRRQAUUUUAFFFFABRRRQAVl67qsOj6Pd307KsNtG0jMzbfu1qV4V+2j43TwH+zh4y1JkMryWbWsa7tvzSfd/9BoA/LPwDbt+0Z+3Q14trHc299rTXEkbSMy+TH8u7/d+Va/bO1t4rWGG3gXy4Y12qn8Kqvy1+V3/AASJ+H/9qePPFHjCe18yOxt1tbedm+7I3zN/47tr9Wl74/4FQA6iiigAooooAKKKKACiiigAooooAKKKKACiiigAooooAKKKKACiiigAooooAKKKKACiiigAooooAKKKKACiiigAooooAKKKKACiiigAooooAKKKKACiiigAooooAKKKKACiiigAooooAKKKKACvyp/4K5fDT+y/Hnhvxtbwy+XqFv8AZbif7yrJH91f++Vr9Vq+Rv8Agpd8P08Z/s16reIkj3GjyLeR+X/st827/wAeoA7b9hnx9/wsL9mnwbfNJJLdWtmtjcSSNuZpIflZm/3ttfQcf3a/PP8A4JGeOG1HwF4k8My3G77DcedDB/dVvvba/Qxfu0APooooAKKKKACiiigAooooAKKKKACiiigAooooAKKKKACiiigAooooAKKKKAGN3r4P/wCCsnjddL+Duj6DFcKs2pXjM0H8TKq//ZV94Sbv4a/Jn/grB4sj8RfGTwr4XttzTafa7m+b5d0zfL8tAH07/wAEt/AH/CK/s7R6pNC0V1rV5JdN/tKu1V/9Br7Jrzb9nXwrJ4L+B/gvR5VVZrfTYWk/h+Zl3N/6FXpNABRRRQAUUUUAFFFFABRRRQAUUUUAFFFFABRRRQAUUUUAFFFFABRRRQAUUUUAFFFFABRRRQAUUUUAFFFFABRRRQAUUUUAFFFFABRRRQAUUUUAFFFFABRRRQAUUUUAFFFFABRRRQAUUUUAFFFFABXFfF7wnH44+GfibQ3j8/7dYzQqv+0y/LXa1HIvmRsv+yy0AfkL/wAEv/FDeFP2gtW8OyqytfQyR/8AAlZv/ia/XyH/AFK/7tfjD4JuP+FI/wDBRJtL06RZbP8A4SaSx+b5VWOSbb/47X7PQ7dvytQBLRRRQAUUUUAFFFFABRRRQAUUUUAFFFFABRRRQAUUUUAFFFFABRRRQAUUUUARSL/6DX4l/tMf2h8S/wBvDUtL8v8AfNrVvYxru/hVV+7/AMBVmr9rL66Wxtbic9I42f8A75WvxT+FdxcfFL/goJHePIzNceJriZZFX5fLjkZV+X/dVaAP2m0nT10vT7WzT5lt4Vh3f3lVdq1oVHH97d/s/LUlABRRRQAUUUUAFFFFABRRRQAUUUUAFFFFABRRRQAUUUUAFFFFABRRRQAUUUUAFFFFABRRRQAUUUUAFFFFABRRRQAUUUUAFFFFABRRRQAUUUUAFFFFABRRRQAUUUUAFFFFABRRRQAUUUUAFFFFABTdtOooA/Ef9tW0k+H/AO2zrd7a+YsjalDqC+au1WaT94yq3935q/avR5Ptel2cx2/vIVk+X/aWvx8/4KlQXGnftRR3jx+Ws1jbyRt/C21drf8AoNfq98H9e/4Sb4W+E9T85Z2utLt5GkX+JvLXdQB2tFFFABRRRQAUUUUAFFFFABRRRQAUUUUAFFFFABRRRQAUUUUAFFFFABRRRQBg+L76PTfDupXEu7bHayM3y7vl2tX4+f8ABP8Auo9T/bYW8hXdHM15JHuX5lVpP/sq/WP44X8ml/CjxTeRSeVJDp8zbvvbflr8pP8Agl/pcerftPSXksjPJa2c0it/vN83/stAH7KLTqF/8eooAKKKKACiiigAooooAKKKKACiiigAooooAKKKKACiiigAooooAKKKKACiiigAooooAKKKKACiiigAooooAKKKKACiiigAooooAKKKKACiiigAooooAKKKKACiiigAooooAKKKKACiiigAooooAKKKKAPyf/4K9aD5PxU8K6w0i+XJp/2fb/d2szV+gv7Jv/Ju/gH/ALBNv/6DXwl/wWC/5GjwXhfu28n/AAKvsP8AYP1mXVv2XfA7STNcTR2bRszNu+6zKq/+O0AfRFFItLQAUUUUAFFFFABRRRQAUUUUAFFFFABRRRQAUUUUAFFFFABRRRQAUUUUAea/tEf8kR8bN/1DJf8A0GvzC/4JR2c0v7QmqXCRs0cOnssjf3dzfL/6DX6f/tFf8kP8b/8AYLmr83v+CRNwsfxg8YRmRVaTT12r/E22Rt1AH6zL/FRTV/vf3qdQAUUUUAFFFFABRRRQAUUUUAFFFFABRRRQAUUUUAFFFFABRRRQAUUUUAFFFFABRRRQAUUUUAFFFFABRRRQAUUUUAFFFFABRRRQAUUUUAFFFFABRRRQAUUUUAFFFFABRRRQAUUUUAFFFFABRRRQAUUUUAflx/wWE/5GbwS3/TJq+nf+CbP2pv2XfDv2rdtVpvL3f3fMavn3/gsFpNutv4J1La32jdJHX0D/AME3o1j/AGY/DbLeNd7vM3bv+Wf7z7q/7NAH1XHT6Yv8VPoAKKKKACiiigAooooAKKKKACiiigAooooAKKKKACiiigAooooAKKKKAPPfjrp7at8I/F1jG22S402SNf8Avmvys/4JczyWf7TVxbrC0iyWM0cjfwrtZf8A0Kv1x8e2EmpeEdYtYmVWks5FXd937tfkB/wTvjuNG/bIj01ptqqt5HJt+6zLJtoA/Z5f8/7VOpF+7/wGloAKKKKACiiigAooooAKKKKACiiigAooooAKKKKACiiigAooooAKKKKACiiigAooooAKKKKACiiigAooooAKKKKACiiigAooooAKKKKACiiigAooooAKKKKACiiigAooooAKKKKACiiigAooooAKKKKAPzh/4LDf8gHwT/12kr6C/wCCd+ltp/7L/hORljXzlkk+X/eavmX/AILCazJ9o8F6SFXy9sk27+L+KvrP9hGzuNP/AGXPAsNwhik+x7tr/e+Zm20AfQq0tFFABRRRQAUUUUAFFFFABRRRQAUUUUAFFFFABRRRQAUUUUAFFFFABRRRQBm6pB9rsbiFfvSRsm7/AHlr8SvgDqVx8O/27LeFmZpIfElxYybfl3K00m7/AID8tfuFIu5q/EX4/NffDT9vLUtUlhW28vXobqP5flaOTb83/AtzNQB+3Ef3mVqkqnYXcd/aQXEJ3RzRrIrfwsrLuq5QAUUUUAFFFFABRRRQAUUUUAFFFFABRRRQAUUUUAFFFFABRRRQAUUUUAFFFFABRRRQAUUUUAFFFFABRRRQAUUUUAFFFFABRRRQAUUUUAFFFFABRRRQAUUUUAFFFFABRRRQAUUUUAFFFFABRRRQAUUUN3oA/Kv/AIK9atayfETwbpu5muo7VpG2/wAKszV98/srWs1r+z/4DjnjaKRdJh+Vl+b7tfmh/wAFQr+TUv2qLOznZWht7G3jjVfvKrfe/wDQmr9bvBek2+i+EtFsLX/j3tLOGGP5t3yrGFWgDfooooAKKKKACiiigAooooAKKKKACiiigAooooAKKKKACiiigAooooAKKiaTbuqNryPb/tUASt9dvy1+SH/BUrwu3hj9oHw74nb54b61jk2/d/1cjK3/AAKv1oa4jZd33q+Df+CsXw8/tn4W6D4ogs2nm0u6aOSZf+WccnzLu/2dytQB9jfCHxFB4s+GPhTVrXP2e6023ZP++fm/9BrtK+dv2CfGy+Ov2Y/B9wFMTWcLWJX18tq+iaACiiigAooooAKKKKACiiigAooooAKKKKACiiigAooooAKKKKACiiigAooooAKKKKACiiigAooooAKKKKACiiigAooooAKKKKACiiigAooooAKKKKACiiigAooooAKKKKACiiigAooooAKKKKACo93y/NUlV7h/Jhkb+JV3f7tAH41/tMRN8Uv+Chk2jp5m1tatdNVZPmX5W8tm/wB3ctfsraRrb28ca/dVdq/8Br8WPhl8WvDd9+23qvxD8XXSaVpsOoXWobm+X5lZmVV/2m/urX1B4k/4K36Db6hJH4e8I32q2qyMvnt8qsv8O2gD9Dt3rShs1+c2j/8ABXTSftG3W/BN5p8LMq+Ysm7/AHq+y/g58f8AwX8bvD8eqeFdYtr4Mu6S28xfPhb/AGo/vUAeoUU1W3U6gAooooAKKKKACiiigAooooAKKKKACiiigAooooAKZu96fVG+uo7O1muJNqxxqzN/u0AfNn7Zn7X1j+zX4djtbOH+0PFGpKy2dt/DH/tNXxPa/Cn9rn9pCwi8VpqN5Y2l1tkiin1L7Gu1v4lX+7XXfBfQ7P8AbP8A2zPFHiTxXHJeaDocm6ztP+WO2Ntsasv/AAFa/UGK1jhjWOONUjVdqr/CtAH45a5r37VX7KeqQ3Gt3Wrz2duyrukk+1WjL/vfdr2rWP2wvDv7XH7Ovi7wTq6t4e8aQ2PnRxt8sd00fzblb/vr5a/RvUtKtdXsZLO+t47u3kXa0Uy7lZf9pa+Cv2tP+CcljrC3PjP4Wq2i65GrSXGmxMwjn/2o1/hb/ZoAt/8ABI/xldat8JPEWg3VwrLpeoboYf4lWSNf4f8AeVq++V7V+Sv/AASv8RXXgP4+eJPCOuw3NjeapattglVl/fQt825f73zfer9aI2+X5aAHUUUUAFFFFABRRRQAUUUUAFFFFABRRRQAUUUUAFFFFABRRRQAUUUUAFFFFABRRRQAUUUUAFFFFABRRRQAUUUUAFFFFABRRRQAUUUUAFFFFABRRRQAUUUUAFFFFABRRRQAUUUUAFFFFABRRRQAVynxI8Sr4N8B+INdkj83+z7Oa4+7/dX/AOxrq6wvFfhbTvGnh+80bV7f7Vp95H5M0e7buVv9qgD8eP2Rf2K9U/aa8TXXirWGbTvB63TNMzKytdfNuZV/+Kr9afhn8FfBvwl0hdP8L6DaaVDt2s0cfzSf7zV0HhPwjpHgfQ7XR9FsYdO0+1j8uGCBdqqq1s7tu77zbaAPPvif8DPBPxc0iSx8U6Da6irLtWVo/wB5H/ut96vym+NXwh8SfsB/HbSfEnh28mbw7dTNJayRsy7o/l3Qt/DuX5a/Zr5Wb71fHX/BUTwrpuufs13GqXUPm3el30bW77mXazK27/0FaAPpj4V+ObX4keBdF8S2bbrfUrWO4C/3Wb71dlXyZ/wTN8QNrn7MOkxtv/0O4kt/mbd/tf8As1fWdABRRRQAUUUUAFFFFABRRRQAUUUUAFFFFABRRRQAVxPxgvJNN+GHi28gbZNb6XcSK2N33Y2b7tdtXC/Gz5/hH4yCrub+ybof+Q2oA+IP+CRu2603x9eSqrXEl4rNJ/F81foou5V+992vzk/4JDXkP9l+OrXdtuFuFZl/i21+is0fnKyhtvysv/fVAE+7/apknzL8teFyfFC5+DnjSz8K+NL5rnRdWbdpeuz/ACssjN/x7yf7S/Ltb/dr3GF9y7tysu3du/hoA851P9n/AMF6l8StL8eDSVs/E2n7lW8s28lpFZW+WRV+996vS1/2qdRQAUUUUAFFFFABRRRQAUUUUAFFFFABRRRQAUUUUAFFFFABRRRQAUUUUAFFFFABRRRQAUUUUAFFFFABRRRQAUUUUAFFFFABRRRQAUUUUAFFFFABRRRQAUUUUAFFFFABRRRQAUUUUAFFFFABRRRQAUUUUAFRS/Luz8y/eqTj+9Xg/wC0t8ZLrwlb6b4K8ML9r8aeIm+z28S/M1vG3ytM3+7QB6DovxM0zxJ4y1Lw9pvm3c2mqq3l2i/uI2ZVbarf3vmrwv8A4KXf8mq6593b9st1/wDQq9s+D3wws/hL4KstDgla7uB893ey/NJdTN/rJGb/AGm/9lr56/4Ki+I7fS/2a5NPdd8+pahHHGv3fu7t3/oS0AXv+CYujSaX+zFpsjybluruaZf/AEH/ANlr66rwf9inw7/wjP7N/gq1aERNJYrM3zf3mr3igAooooAKKKKACiiigAooooAKKKKACiiigAooooAKydas4dQ025tJ03QTRssi/wATKyturWqtNEsy7WoA/K//AIJx6pb+Ev2qvG3htppIFmaaOG2k/i2t/F/tfLX6rV+Rfx7juP2X/wBv6z8Xblg0fUNQjvpGijb/AFMjfvPl+7u+Zq/WrT7y31Kzgu7eRZYJo1kjkX7rK3zKaAPJf2pvg/b/ABm+EOs6OQU1CGP7VYzp95Jo/mXb81eZ/sB/tAXnxW+G8nh7xHcbvF3hiRtPvFk+WWSONmVWZf73y7f++q+rZE3dfm3Ltr81PjJFN+xj+2lp/jiy+Xwn4wZWvLaP5VWRm2t/48zN/wACagD9KlVW+bbt/hqSqOl6hbapY295aSrLa3EayxP/AAlW+7ir1ABRRRQAUUUUAFFFFABRRRQAUUUUAFFFFABRRRQAUUUUAFFFFABRRRQAUUUUAFFFFABRRRQAUUUUAFFFFABRRRQAUUUUAFFFFABRRRQAUUUUAFFFFABRRRQAUUUUAFFFFABRRRQAUUUUAFFFFABRRQ3egDnPHXi7T/AfhPVtf1OQQWOn28lxJu+XdtXd8v8A3zXyN+xGutfHP4jeKvjh4kt/KhvN1jocDf8ALG3Vtu5W/wBrbXJ/8FIfiVqHjLxN4X+CvhWaR9W1aaNryONtq7Wb5VZq+3Phj4EsPhl4F0XwzpsKRWum2sduuxdu5lX5m/4E26gDqP8A0H+Gvzl/4KteIG17xF8NfA9qytcTXDXDKv3v3jKq/wDoLV+i8zBdzMyqv/sv8VflRJrM37S3/BSK38jy20vw/dbV3NuVo7f5W2/7zMzUAfph8LfDsfhH4f8Ah3R4kKLZ2MMP/fK/NXY1BD7fw/LU9ABRRRQAUUUUAFFFFABRRRQAUUUUAFFFFABRRRQAU3avSnUUAfBH/BVb4MzeK/h3Z+OLDc11oLbZlX+KFvvN/wABr1f/AIJ7/Fdvid+zjobXEm6+0lfsE25tzfu/lXd/wFa91+I3hO18ceCdc0G9jWW31C1kt9rLu+8tfnx/wS+1uf4dfFD4ifC3VTIl9DM0kayfLuaPcrbV/wCA7qAP0tj+ZdzV8W/8FUvCcerfs/w61FarLdabfL+//ijVvvf+g19pL91q8U/bL8J3XjX9m/xxpdlGkt01i0iq3+z83y/7VAHnX/BOX40N8VfgPZWN1cLJqugt9hmXdubau1lb/vlq+sl7V+Fv7D/7Slx+zr8VFmvZGXw3qm231CNtzbf7sm3/AGa/bnwv4m03xfodjrGkXUV5pt1GskM8bbt26gDZooooAKKKKACiiigAooooAKKKKACiiigAooooAKKKKACiiigAooooAKKKKACiiigAooooAKKKKACiiigAooooAKKKKACiiigAooooAKKKKACiiigAooooAKKKKACiiigAooooAKKKKACiiigArzr45fGDSfgf8O9V8VaxMiR2sLeTAzbWmk/hVf8Aar0Nm+Xsu2vxf/4KH/tP3Pxi+I8/hbTJmh8NaFM0aiKTctxJ826RqAPWP2CtL1b9o79pzxJ8XPEdvHJHayNJGrbmVZG/1e3/AHflr9SI/u7v73zV8df8EuPAMfhT9mu01dgyXWuXUl025dvyr8q7f9llVWr7FX7v93+GgDz34+eOo/hv8IfFXiB9ita2MhVW+XcxWvgv/gk74B/tnxF40+IV5GvmSTfZ4/l3bWZmkk+b/gS16z/wVW8dS+H/AIFWOjwyKjaxeeW3zbWZV/2f+BV6p+wX8Nofh5+zT4Vj8uP7ZqkP9oXDL/F5jbl3f8B20AfRMa7dtS01V206gAooooAKKKKACiiigAooooAKKKKACiiigAooooAKKKKAK1xHuVvvbm+WvzD8ZSr8B/8AgpVpuqXUzPZ65JG0m35dvnbV+b/dr9QmX71fm9/wVl8Grp194H8dQR7JLeb7LNJH8rfK25fmoA/R+P5l3f3qp6hZQ6lp9xazxrJFNG0bL/C25fmrlPgl4wh8efCXwjr0G7y77TYZBu+991a7WTdtbDbd1AH89P7Rng+HwR8cPGmixQtBb2+pSNCv3WVW+ZVX/Z+av0t/4JJ69qurfBHxFb388s9jZ6tttfMbcqq0a7lX/wAdr8+P2zre+s/2mPHkd/IrTNfblb/Z+XatfqN/wTT0FdE/ZZ0OQ26wSX11NcSHb/rPm2q3/fKqtAH1dRRRQAUUUUAFFFFABRRRQAUUUUAFFFFABRRRQAUUUUAFFFFABRRRQAUUUUAFFFFABRRRQAUUUUAFFFFABRRRQAUUUUAFFFFABRRRQAUUUUAFFFFABRRRQAUUUUAFFFFABRRRQAUUUUAFFFDf3aAOb8fRahN4J16HSNv9qNYzLa/w/vPLbbX86fiC1vLXXtShv1ZLxZmWbd8zbtzbvmr+k1l3blO3b92vwG/bA0a30H9o7x5Z2saxQx6lIyr/AMCagD9c/wBgTxBZeIv2VPA72TK32OzWzk/2ZI/lb/x5Wr6F3fK38Nfnf/wSB8VXV14N8WaDPceZa2t0s1vH/Cu5fm21+h3yqu5v4VoA/NL/AIKOXEPxQ/aV+Gfw+srrzbhFj+0WzfKkbSSM3zf7W3bX6OeFdCt/DPh/T9Jto1jt7O3jt41Xsqqq1+Znw9v/APhcn/BTDXr7Uo1vo9JupIbfy13LGsK+Wrbv+A1+pEK7d1AEtFFFABRRRQAUUUUAFFFFABRRRQAUUUUAFFFFABRRRQAUUUUAFfJf/BSrwVD4t/Zn1q4MZkudLkjuodi7mVt3zV9aVynxE8I23jjwjrOhXaq1vfWrQt/wLdQB4F/wTg8azeL/ANlnwwtxKsk2meZp+1W3MsccjLHu/wCA7a+oWb0+9/49X5m/8E0vGVx8Lfi944+EeqM1sv2ySS3jn3K3mR/L8q/7Sqtfpku7+Jvl20AflX/wVW/Z/utH8Xaf8SNNtd2m6gv2e+aNflhkX7rM3+1u/wDHa+uP+CcniBte/ZT8Lo0kbmxkmtfl/h2ybvm/76r2P4xfCzS/jP8ADnV/COrx/wCi30e3eh2tHIvzIy/7rV8f/sG22ofs8/Fvxx8EvEMjK0ki6pps0vy/aF+6zR/98rQB9+0ULtooAKKKKACiiigAooooAKKKKACiiigAooooAKKKKACiiigAooooAKKKKACiiigAooooAKKKKACiiigAooooAKKKKACiiigAooooAKKKKACiiigAooooAKKKKACiiigAooooAKKKKACiiigBrMtfgf8AtWXH/CeftReMI9EWS7a81SSGNVVmZmZm+Xb/AL1fsr+058YrT4H/AAb8QeJ5pFW4jh8m1X+JppPlXb/31ur4+/4Jt/syx6st98WvGFjHeX19N5mmrcx7trbv9dt/vUAfQf7CP7Nrfs+/CG2j1CHb4k1ZVur7d/yz3f8ALP8A4DX0B4r1SPRvDOqX0r+UlvaySf3tu1WraX/e+7Xzj+3l8WIfhb+z3r0yyRpfakv2G1Vm2szMv8NAHyt/wS/0abxb8ZviV44mj89ftUkcc7fK26RmZv8Ax1lr9OI938VfKH/BN/4TN8Nf2c9Jurq3WDVNemk1S4bO5pPM/wBXu/7ZqtfV8e7+KgB9FFFABRRRQAUUUUAFFFFABRRRQAUUUUAFFFFABRRRQAUUUUAFQTfxf7tT0UAfmL+3Z8P9Q+Av7QHhv41eH/8ARrG6uI/7QWL5f3i/K27/AGW2rX6LeBfFVj448I6P4gsJFls9StY7qNl/2l3f+zV5X+2d8PIviX+z/wCKNLI/fR27XFvtj3NuX+7Xkf8AwS7+Js3jD4Dy6DdzTT3nh27a1/eHd+7b7qr/ALvzUAfZ7bf4q+UP2vfBFxpHxB+G/wAUdGhlfUtJ1JdPuvLbarW8zbfm/wB1ttfWP3lrl/HPhOPxno8enTNiFbiO4b38ttyr/wCO0AdJC26NWP3mVWqSoVVVVV/2VWpqACiiigAooooAKKKKACiiigAooooAKKKKACiiigAooooAKKKKACiiigAooooAKKKKACiiigAooooAKKKKACiiigAooooAKKKKACiiigAooooAKKKKACiiigAooooAKKKKACiiigAooooA+AP28vDesfHb49fDD4SWc0semXUn2y82N8qqu5mkZf7yqrV9xeEvDNh4J8O6foumwrBaWcKwxoq7V+Vf/sa56f4T6Ld/FW18fSo761a2bWMLfwxq3ytt/wBr71d9QBH/APY1+d37Y0N1+0J+1l4H+E9ncMum6aq3WoR/eX725mb/AGtrLX6HTSLFHIzNtVV3N81fn7+xj9m+IH7ZXxq8XJA17aQzta2t3J8zRssjblVv7rbVoA+9fDuk2ug6HZ6fYwxwWtrGsMMSLtVVX5a16ihVVX5aloAKKKKACiiigAooooAKKKKACiiigAooooAKKKKACiiigAooooAKKKKAMvW7NdR066tcK3nQtHt2/wB5Wr8zv+CfXiC6+GH7V3xI+HV9tjW6upmji3bVVo5G2sq/7rLX6gSL/F/dr8ofjxu+AH/BRLR/ElrcSQWOrXENxcSMvyssnysq/wCz8q0Afq5H/wCPVJtWq1tKlxHHJG6tHIu5WH8St91qs0AFFFFABRRRQAUUUUAFFFFABRRRQAUUUUAFFFFABRRRQAUUUUAFFFFABRRRQAUUUUAFFFFABRRRQAUUUUAFFFFABRRRQAUUUUAFFFFABRRRQAUUUUAFFFFABRRRQAUUUUAFFFFABRRRQAUUUUAFFFFAHKfEzxJH4O8BeIdclXzV06xmuCv95VXd/wCy18d/8EqNHvJPh74s8TXMKxLrGqSTR/3vvfN8393dur0j/go18RpfAP7NutRWlx9mvdWZbGPH3irfKy/+PVof8E+/B914L/Zo8L290Vaa6ja8X5v4ZGZl/wDQloA+l17U+kWloAKKKKACiiigAooooAKKKKACiiigAooooAKKKKACiiigAooooAKKKKAGN3r88/8Agq58N5m0Pwr8QLON5ZtLuPs821fl8vduXc3/AH1X6Gsu6vNf2gPhvb/Fj4S+JPDNxGkn2y1ZYdzbcSLu20AVf2afiHb/ABR+CPhHxBBIjNNYxxzbf4ZI/lZf/Ha9Tr83v+CX/wAW7jwzrvij4NeIpPKvtPuJJrFWbb8y/LIqr/wFWX/gVfo6su7b8tAElFFM3fxfMqr/AOPUAPooooAKKKKACiiigAooooAKKKKACiiigAooooAKKKKACiiigAooooAKKKKACiiigAooooAKKKKACiiigAooooAKKKKACiiigAooooAKKKKACiiigAooooAKKKKACiiigAooooAKKP4ab5jfxLtoAdTWb5d392nVgeL/ABXYeCfDOpa5qU62tjp9vJNJIzfKqqv/ANjQB+d3/BSfxRefEr40+BPhJpG+W4mmjaaPb8vmSN8u5v8AdZa/RTwf4bsvB3hvTNHsY1gs7G3W3jjX7qqq4/pX5z/sYaHeftLftQeKvjJrFrKlhZ3TNp6v8yq38Kq3+yu3+Gv0yhVljVWoAlooooAKKKKACiiigAooooAKKKKACiiigAooooAKKKKACiiigAooooAKKKKACoLiJZV5qekagD8yP26/gH4h+D/xSsfjd8O7Kd0W483Ultlb9zIv8TL/AHW/iavq/wDZc/a48I/tC+C7WddTtdO8TQ5jvNLuJVSZWX+JVb+GvedR06DVLOa1uoY57eRdrJIu5WWvjn4t/wDBM3wf408QXGueF9XuvB2oTfNItn/qmZvvfLQB9Y69448P+GtHutS1TWLKzsLdd008twqoq/d+Zq8d/Z//AGxPCX7Q/jjxP4c8ORzKNHXzFuZdqrcLu2ttX/gS14v4D/4JhaVpupJP4v8AHGr+JbONt32BpNsUm3+GT/0KvEfgza2v7OP/AAUUuPD+1rbS9SZrG3jg+Vdsi7o93+zuWgD9WqKatOoAKKKKACiiigAooooAKKKKACiiigAooooAKKKKACiiigAooooAKKKKACiiigAooooAKKKKACiiigAooooAKKKKACiiigAooooAKKKKACiiigAooooAKKKKACiiigAobvRTWoAwfG/iIeEfB2t60y7hY2c1wP4fur8q1+eP7G//AAUJs4vFmueG/iTqy2dneX0lxY6ldyKscO5m/ds3937u2von/gov8RP+EB/Zp15Y5JIrrWJI9PhaP+8zbm+b/djavEf2bv2EPAvxZ/Zb8Ot4jtJLbV9QZr5dSttqz7W+6rN/dXb92gD7pm+J3hSDw42vyeI9MTRVj8z7ebxfJ2/3t1fnx+1R+0hfftZeI7P4Q/B1Z9Vs7iZV1DUIlZY5FX/a/wCef+9XZR/8Eo9M+1NbyfETWZdD24+x/d+b/wBBr6g+A/7Lvgf9nrS5Lfwvp+y4mX99dz/NJJ/vNQBf/Z/+Dum/A34Y6P4UsFj32sKrcTr96ab+Jm/3m3V6iq7RSLHtp9ABRRRQAUUUUAFFFFABRRRQAUUUUAFFFFABRRRQAUUUUAFFFFABRRRQAUUUUAFFFFABTf4qdRQAzZX5f/t9aS3w3/a6+GPjrT7dla6uIVaVl+XzI5FX7397azV+oRG6vhb/AIKu+D59U+COja/bf8wbVI5JP4V2ssi/N/wJqAPtjS7z7dptrcbg3mRq3/fS1fX2rzL9nPxXD40+Cvg/V4rhbr7Rp8LeYv8Au/8A2Nem0AFFFFABRRRQAUUUUAFFFFABRRRQAUUUUAFFFFABRRRQAUUUUAFFFFABRRRQAUUUUAFFFFABRRRQAUUUUAFFFFABRRRQAUUUUAFFFFABRRRQAUUUUAFFFFABRRRQAU2T7pp1NagD82f+CtviybVNQ+G/gG1mZlurqS6uIU+Zt25Vj+X/AIE1fd/wX8Ow+Evhb4Z0mGFo47exjXbt2/w/3a/N743XEnxu/wCCjWg6TZrGsekzRx7m+ZWWNWZv/Qa/VGzi+z20MY2rtVV2r92gC3tpaKKACiiigAooooAKKKKACiiigAooooAKKKKACiiigAooooAKKKKACiiigAooooAKKKKACiiigAooooARq8E/bY8Ex+PP2a/GljIrtJb2v2yNU+9ujbcv/oNe9tWN4m0xNb0G/wBNZVaO8t5IW+Xd95dv3f8AgVAHy3/wTJ8X2uvfs2WemxZ+0aPdNbzf+y/+gtX12v3flr86v+Caep3Pg74q/Fb4e3jLA1vcfaI4N33mWT5tq/d+61foqv3VxQAUUUUAFFFFABRRRQAUUUUAFFFFABRRRQAUUUUAFFFFABRRRQAUUUUAFFFFABRRRQAUUUUAFFFFABRRRQAUUUUAFFFFABRRRQAUUUUAFFFFABRRRQAUUUUAFFFFABXN+P8AxAPC/gnXtYMYk/s+xmutu7bu2xs33q6RttfOH7f3jxPAf7L/AIwkF2trfahDHY2v96RpHXcq/wDAVagD4o/4Jr6TJ8UP2pvGXjK8t3/0O1muFb7yrJJJtVWb/dZq/WKNdse3+7Xw1/wSf+HK+Gfg1qniSWNlutcul+Zl2/u41+X/AMeZq+6V7UAPooooAKKKKACiiigAooooAKKKKACiiigAooooAKKKKACiiigAooooAKKKKACiiigAooooAKKKKACiiigApNo9KWigD8zteuJPgb/wU2s7qOFYNN8Ufu23MqqzSLtb/wAe21+lkbb1Vl+7X5y/8FUfBt5pOp+BPiRYrK0+k3nlt/Cq7W3KzN/wFa+6fhN4w/4Tv4b+HfEO2Nf7Qs45vkbcqs33vmoA7OihfeigAooooAKKKKACiiigAooooAKKKKACiiigAooooAKKKKACiiigAooooAKKKKACiiigAooooAKKKKACiiigAooooAKKKKACiiigAooooAKKKKACiiigAooooAa1fl7/AMFVviW3ijxx4V+GuneY0kMi3Eyr826STasaqv8Ae+Zq/TPV9Wt9D0q81G6bZbWcLXEjf3VVdzf+g1+QnwZWT9qr9vZvEk9m0mk2uoSX0m2Taqxw/LG3/Am2/LQB+nv7Onw/h+GPwh8M6DFu3W9nGzbvlbcy7m+WvUqgh27VVVVanoAKKKKACiiigAooooAKKKKACiiigAooooAKKKKACiiigAooooAKKKKACiiigAooooAKKKKACiiigAooooAKKKKAPBf2y/hf/wALU/Z78W6XBbzT38Nu15axwbdzSR/Nt/8AHa8a/wCCXPxV/wCEq+Dtx4Rvbhm1Lw/M0axyfeWPd8tfaN9brcQyROqtGysrL9Vr8svB91cfsX/t3XWn3kiweE/Ek3l+YzMsaxzN8rf8BZloA/Vhe1FQW88ctuskbK0bLuVv4anoAKKKKACiiigAooooAKKKKACiiigAooooAKKKKACiiigAooooAKKKKACiiigAooooAKKKKACiiigAooooAKKKKACiiigAooooAKKKKACiiigAooooAKazfw7adUcjKv3mVV2/NQB8r/8ABRD4zf8ACqfgHf2ttMsWp68fsMPz7W8v/lptX/d2/wDfVeV/8Eo/gtN4d+H+reOdStlin1uRY7Vm+8Y42+Y/8CZq8N/bw8eX37R37U2h/Dfw/It1pukstqvl/MrTSN++k/3VVVX/AIC1fqB8KfBFn8OvAOh+HbJFittPtY4VX/a/ib/gW6gDslj20+iigAooooAKKKKACiiigAooooAKKKKACiiigAooooAKKKKACiiigAooooAKKKKACiiigAooooAKKKKACiiigAooooAayhutfBf/AAVG+BTeLvh7D8QNKtnGreHdrXHlL8zQt95v+A/3q+9qxtf0Wz8SaRe6ZqEMdzZ3kbW80TLuVlZdrK3/AH1QB85fsEftERfHb4O28N5MreINFVbe9jdvm+78sm3+61fUMf8AdFfkPa3Wrf8ABPv9rBvPVl8H6tJ8u7d5cluzfe/3l3V+s2g63Z+ItGs9SsJ0urG7hWaGeJtyyK38StQBqUUJt7UUAFFFFABRRRQAUUUUAFFFFABRRRQAUUUUAFFFFABRRRQAUUUUAFFFFABRRRQAUUUUAFFFFABRRRQAUUUUAFFFFABRRRQAUUUUAFFFFABRRRQAV5V+0n8WLL4L/B7xF4mupxBLDbtHa/7UzLtXb/tV6k21Vb5h8vzfSvyo/wCChnxhuvj18ZNB+EvhO4a5s7O4WG48ptyyXDN83/fK/wDs1AFz/gmP8I7r4kfETxN8WvEELSrDcMtq0i/LJcSfNJt/3V2/99V+pka+leafs8fCax+C/wAJ9D8K2car9lj3TNt27pm+Zmr09aAFooooAKKKKACiiigAooooAKKKKACiiigAooooAKKKKACiiigAooooAKKKKACiiigAooooAKKKKACiiigAooooAKKKKACmNtbOafRQB8y/tx/s0x/tBfCuaGyVF1zS1a4s22/MzKv+rX/erwP/AIJq/tIXUC3Hwd8Xs1tqeks0dj9pba3yt80Lf7Stur9EZF3feX5a/NH/AIKFfs36t4G8VR/Gj4fwz2l9HN52pNafejkX/lp/wL+JqAP0sj+638VSV89fsZ/tMWf7RfwvtL+WWOLxBZqtvqFtu+bzP+em3/ar6Bj27uGoAkooooAKKKKACiiigAooooAKKKKACiiigAooooAKKKKACiiigAooooAKKKKACiiigAooooAKKKKACiiigAooooAKKKKACiiigAooooAKKK5jx9420n4e+FdS8Qazcx21hYwtJI8jbfu7vu/7VAHiH7cX7Str+z/8KbpLWSNvE2qRtb2MLfw7lbdJt/2a+Uv+CYv7PNx4i1+9+LXiaGS48uRo9Pa4Xc0kjf6yb+9/F/6FXjUK+Mv+Cg37Skkj+e3h+G427tv7uztVb5VX/ab73/fVfr/8P/A2lfDvwnpnh3RLWOz03T4lhjjRdv8AvN/wJt3/AH1QB08K7V2hdtS0i0tABRRRQAUUUUAFFFFABRRRQAUUUUAFFFFABRRRQAUUUUAFFFFABRRRQAUUUUAFFFFABRRRQAUUUUAFFFFABRRRQAUUUUAFFFFACbayNe0ez8QaTdabfQxz2d1G0c0bLuWRWX5q2Kay7qAPyW8YeF/EX/BOL9oCPxJpCy6h4D1ZvmX5tvls33WX+8v96v00+FnxM0P4ueC9N8UeH7pbrTryPcu1vmjb+JW/2l+7Vf4xfCHw98afBF94b8QWKXVtMu6NtvzQyf3lb+9X5x/Dnxf4y/4J0fGK48K+J1udR+G+qTbreXbuVVb+Jf8AaXb92gD9WN3vRWD4R8XaX468O2Ot6LeR32l3sazQzRHcrK3rW9QAUUUUAFFFFABRRRQAUUUUAFFFFABRRRQAUUUUAFFFFABRRRQAUUUUAFFFFABRRRQAUUUUAFFFFABRRRQAUUUUAFFFFABRRVW4uY7WF5J5ViiVdzM7bdq/7TUAR3d7Dp9nNdXEywwwrukZm2qu373zV+Tv7af7SuvftOfEy3+GPw8aS50O3m8vdbfN9sm3feZv7q11/wC3L+2tdfEjUJPhT8L5JbxbiZbe81Cx3brhvutGv+zXvf7Bv7HNn8C/CMfiDxBarL401JfMkaRdzWq/881oA7/9jn9mfT/2cPh3Bp7Ks/iC8VbjUrnb/wAtG/hX/ZX7tfQ8f3aZGq7fur/vUkkqwKzN8q0AT0VFDMsn3WqWgAooooAKKKKACiiigAooooAKKKKACiiigAooooAKKKKACiiigAooooAKKKKACiiigCKadYV3Gmwy+bHuX+L7tOaFZPv/ADUkcflLtX5VWgCVaWkWloAKKKKACiiigAooooAKKKKACiiigBjKrV518a/gj4Z+Ongm88P+IrGOeORf3M+395C38LK1ekU1l3UAflJ4L+JXxE/4J3/FBfCPi/z9a+G91MzWsn3lWNvutG38P+196v0q+HHxN8P/ABU8M2uveG9Rh1CxmC/NG3zK38Ssv96vCf8Agoh8L7b4hfs46/cFN1/oy/b7dljVmba3zLu/4E1fmP8As1/G74kfs3WsfjbR7We+8FzXX2O6tGkbyZGVVZt391trLtbbQB+7y9qK8l/Z8/aI8MftCeB7fXtCulS52/6Vp8ki+bbt/db/AOKr1hZP4RQA6iiigAooooAKKKKACiiigAooooAKKKKACiiigAooooAKKKKACiiigAooooAKKKKACiiigAooooAKKKKAChvu7qazf7O6srxB4i07wvo91qerXUNjp9qvmSTzybVVV/ioAt3d/DY28lxcypBDGrO0jNtCqv8Aer8sf2+v29JvFV1eeAfh9eNBo8O6PUNUhZla4/vRq393/arL/aq/bU8WftGeMJvh38LobhdDmk+y7oF/fXjbvvbv4Vrxv9pb9lCT9nPwH4JvNWvJLnxFrUjSX0e3bHD/ABKq/wAXy/xNQB9df8Euf2cdJTwf/wALM1jS1udYuJmXT559rLHGv8Sr/e/2q/RdVVfm7147+yb4Nt/BH7PfgfS7Zmlj/s2Gbc3y7vMVWb5f+BV7IudvNAAqhVwKjkt45lZXVWVqmooAjjjWNdqrtWpKKKACiiigAooooAKKKKACiiigAooooAKKKKACiiigAooooAKKKKACiiigAooooAKKKKACiiigAooooAKKKKACiiigAooooAKKKKACiiigAooooA5H4n6EPEfgHxBpxjWX7RYzR7W/ibbX5yf8EyfC9v40/wCFwfD/AMUWseoaHayQstjPHuWORmmjZl/2v3a1+nupL/oNz/1zavzU/wCCd9xNF+1l8YrFJGW3kVpJF/vMtw23/wBCagDL+Mn7MXxE/Y48VXHxC+DN9c3nh9W3XWm+WzNGv3mVl/u/L96vpT9lf9vTwn8dLePSNcuIfDXiyJVVrW8mVUuG/i8tt3/jrV9V3FpHdW7wvGksci7WR13K3+9XxD+1V/wTr03x1HN4p+HMieHvFlu32hYFbbHcbf7v91qAPuKORWRWVl+bn/ZqVfmX/Zr8uf2cf2+vE3wT8UN8P/jXb3S29v8A6OupSKzSW+35V3f3l/2l3V+lPhPxlo3jXQ4NW0PUbfUtPuF3Rz2zbhtoA3aKFb+781FABRRRQAUUUUAFFFFABRRRQAUUUUAFFFFABRRRQAUUUUAFFFFABRRRQAUUUUAFFFFABQzbfvfKtN3rXhf7TP7WHhL9m3w1JdanOt9rcvFtpULDzZP9pl/u/wC1QB6B8Ufix4a+EPhW817xLqUdlZW67trN+8kb+FVX71flT8Wv2hPiV+3X8QP+EJ8F2c9t4f8AO/dwR/KrL/z0kasnRdB+Kn/BRD4tSXlxNPp/h2Ft00kjMttbw7l+Vf70nzfw1+of7P8A+zX4P/Z90BbDw9p6rdsm24vpBulm/wB5v/ZaAPPv2R/2LfDf7O+hx3VxHFqviyZd02pNH/q/70cf+zXyT/wV0v2m+IngvT/tDbY7dm8vb8u5m21+qm3/AGfu1+Tf/BUzUmsf2jPCUt3H5+n29rHIsG3722Rd3zUAfp38MNDXw78O/DelrI0v2PTYbfzP722NV/8AZa6xfuisvw9dLeaHYzqu1GhVlX/gNa1ABRRRQAUUUUAFFFFABRRRQAUUUUAFFFFABRRRQAUUUUAFFFFABRRRQAUUUUAFFFFABRRRQAUUUUAFFFFABRRRQAUUUUAFFFFABRRRQAUUUUAFFFFABSNS0jfdNAGbr15Dp+i39zMwWKG3kZv93bX5l/8ABNbVI9e/as+KWqWys1vNDIyyfeX5rhtvzf7W1q+3/wBrL4jQ/C/4BeMtafa0n2NreGNvl8yST5dv/j1fHf8AwR+8J3X2P4heLJV2299Jb2sbbfl3R+Y0iq3/AG0WgD9KV7U1k3LtpyrT6APAf2j/ANkXwX+0Vos0eqWMdjrXl7YdXgXbJGy/3v7y1+ezRfGz/gnf4uuLiKGTXPCLNt8xmZrSRd3y7v7rV+wjLurA8WeDdF8a6LdaTrmnwanp9xHtkguY9ystAHiv7OP7aPgX9oDSbOODUINK8RSLtk0m5k2tu/2f7y19Cx/7tfmj8fP+CaeseENSm8XfBq+uILq3kaaHS0k2yK27/lm3/stSfAX/AIKJeJfhvrUfgn45WFxZXFv+5k1K5jZZo/m2/vFoA/S6isHwj4t0XxxolrrHh/UrXVdMuI90d1aTeYrL/stW9QAUUUUAFFFFABRRRQAUUUUAFFFFABRRRQAUUUUAFFFFABRRRQAUUUUAG5ahklWNWYsqqv3tzbayfE3ijSfBui3msa3fQ6bp1rH5k1zcyKqrt/2q/L39qD9urxJ8f9Y/4V78I7e+/s+6k8mS5tlZZrz7y/Lt+by6APcf2vv+CjWlfC2a58K+B1j1rxGytHNfLIvlWrfw/N93dXzR+z1+yP8AED9r7xR/wnfxG1C7g0FpN32m7Vmkuvm+6q/3a92/ZR/4Jq2Oh/ZfE3xTh/tPWFbzF0lm3Rxt/wBNP7zV9/aZpdrpNnHa2dvHbW8a7ViiXaq7f7q0AYXw5+HWh/DPwxa6FoOmxafY2y7VWJVVm/2m/wBqutj2qvy0qrtp1ACN901+U/8AwV4ijX4jeDZFXbM1nIu7/gVfqw1fmx/wV+8OyTaR4N1pYV8uG4aOSfb8y7l+VaAPun4F3kuofB3wVcTs0k0mj2rSM397y1rvl+6K+cP2BPGn/Ca/sy+EZpbxby6s7f7LJ/eXy/lX/wAd219Hr90UALRRRQAUUUUAFFFFABRRRQAUUUUAFFFFABRRRQAUUUUAFFFFABRRRQAUUUUAFFRTPtVm/u021uFuIfMFAE9FFFABRRRQAUUUUAFFFFABRRRQAUUUUAFFFFABRRRQAUUUUAFMk/1dPrH8Ra5Z+HtFvdSvZ0gtbWFpJJHO1floA/PD/grV8Xli0vw/8O7O6WSS6b7deRL95du5Y/8Avr5q+k/2Bfhyfhz+zf4et5rdYLq+LX02fvNu+6zf98rX5iapqmoftc/tjKyRyS2+oassNuu1mVbWNtqt/usq7v8AgVftt4d0eDQtJs9Pto1jhtYY4VVPlVVVfl+WgDZooooAKTbS0UAQyJu+X+Fl215H8cv2aPA/x502SDxJpcUt0sbLHfRqqzR/8C+9XsDLuo2j0oA/KDXvhX8bP2Bdek1rwpeT+I/AvnbpI4/mXy/vfvF/vfLX13+zH+3h4J+P1nHZ3Eg8O+Jv+Wmm3Lqqt/tK392vpnULG31GzmtbqOO4t5l8to5F3K3+9Xwb+1B/wTg03WppPFXwsb/hHvEUbeY1jbN5ccjL826P+61AH3ssvmqrL/F92pq/Lz4A/t2eN/gXrieBfjXZ3Mun27fZ4dSuY2WePb/eb/lov+9X6PeDfHeh/EHRYdW8PapBqtjJtZZLeRW/76oA6Wij+GigAooooAKKKKACiiigAooooAKKKKACiiigAoobvXFfEb4s+F/hPocuqeJ9XtdMt413L5rbWk2/3VoA7Nm+9Xzx+0h+2h4D/Z5sZob28XVvEW39zpdrIrSbv9pv4a+QPjh/wUm8afE3Vv8AhFfgzpc9t5zNH9sjh8y5m/utGv8ADVr9m3/gnBrHjTWI/F3xkuJ52mb7Q2lySM0kzM25vMb73/AaAPK5Lj45f8FDPFzRo0mn+F/Mbb/DaW6/7X+1tr9DP2X/ANkfwn+zv4dh+x28V54ikj23mpMvzSN/Ft/2a9k8GeCdF8A6JDpGgabbaVpsP+rt7aPai/8AAf71dGq7elADYV2R4FSU1V2inUAFFFFACNXxp/wVA8L3niD9na6uLaJXj0+6juJv91fvNX2W33TXn3xq8AWvxQ+FviTwzdL5kd9ZyRqN21lbb8p/4DQB8T/8EjfiBHceDvEnhNlXzLW4+1Rt/Eyt/s/7Nfouu7b81fhf+xj8S7j9n39pqxh1GRra1muG0vUl3fL/ABLub/dav3JtLqO8hWSJg8bL8rbvvUAWqKRfuiloAKKKKACiiigAooooAKKKKACiiigAooooAKKKKACiiigAooooAKKKKAGMqt1pFjWNflXbUlFABRRRQAUUUUAFFFFABRRRQAUUUUAFFFFABRRRQAUUUUAFFFMkbbQA2SXatfnD/wAFOP2sYdN02T4W+Gb5Wv5trapKvzLGrfdj3f3vut/3zXvP7ZX7Yvh/4CeD9Q021vIbnxhcQ7bW0X5vJ3fxNX5rfsv/AAD8SftafFyTUtVkludLW6+1apqE/wA3mbm/1e7+81AH1j/wSw/ZtuNF0+6+KWs27RzXitb6ajblZY/4m/4E1fo7GtZHhXw9Y+E/D9jo+m26WljYwrbwwR/KqqtblABRRRQAUUUUAFFFFACNUTqrryqt/wCPVNSEbqAPJvjp+zx4N+PvhttL8T6bFLMv/Hvequ2aFv8AZb+7X5+6/wDAv41/sJ6xceJPAmqT694LWTzLi2+8q/70f3f7vzLX6s7f9pqqXOn299DJDcQpPDIu2RGXcrUAfIf7Pf8AwUg8D/FBYdJ8Vyf8Ir4k3Ku26+WCZm/ut/7LX11Z31vqVus9tMk8LLuVkZWVlr5Y/aE/4J2/Dv4yLNqGlWv/AAiviD7y3Onrtjb/AHo/u/8AfO2vmFfC/wC1N+xvfNcaddSeMfDMP/LJv9Ih8tf70e7cv/AWoA/VJfeivhj4X/8ABUzwXri29j450W88Iaw0ixyf8tIt397+8q/99V9QeDf2gvh746s1uNF8Vabdxs23/j4VW/75oA9HoqtDfQ3Cq0c0cityuxt26p1agB1FFN3fL822gB1FFQNdRoWBkQbeW3NtoAnormtU+IfhvRv+PzXtOtvl3fvLhd1eM+OP29vg74ItbqSXxNHqdxbtta2sl3Mzf7NAH0Szf98rXOeLvH2geA9Nm1LxBrFppVjCvmNJcybdu371fm78VP8Agql4s8XXLaV8L/C32SGT93HfXUbTXLN/DtX7q/8AAt1cH4e/ZH/aD/akvI9W8bapc6dp80iyM2pTN8qt8rMsf3f4moA96+P3/BUnS9P/AOJL8LLNtc1KRmVr2SPcv/bNf4q8I8D/ALJPxu/a+8SW/ij4g6heaZo8zbvN1Bm3Kv8Adhj+6v8AwFVr7l/Z8/YL+G/wRt7W6OmJ4h8QQ/M2pagu5t395V+7X0vHaxp92gDw79n79knwH+z3p6x6HpiXOqN/rNSu18yZm/2W/hr3Xy1X7qijZT6AGqu2nUUUAFFFFABRRRQAjVDNErRttVal/ho/hoA/GL/gpN8E5Phb8bpvFGnW6waXrn+lR+X8qrIv3v8AgX3q+/8A9gr472/xk+B+m+feLPrWjxrY3ibdrL5a7VZv95dtaH7bn7Po+P8A8GtQ0+2XZrdiv2qzmCru3L8zK3+y22vzK/Yd+PV1+zj8amsdb8yz0XUJPseoLIu3y2/hZl/vLQB+4UfzLT6z9P1C31KxhurWZZ4Jo1kjkX5tyt91qvrQAtFFFABRRRQAUUUUAFFFFABRRRQAUUUUAFFFFABRRRQAUUUUAFFFFABRRRQAUUUUAFFFFABRRRQAUUUUAFFFFABRRRQAUUUzd81AD6Z5q7ttRTXCxLub/gX+zXgfx0/bR+G3wKtZ/wC1tY+26sq/JpunqskjN/tfw/8Aj1AHvVxdR28LSPIqRqu5mZtq/wDfVfDv7Xn/AAUW8PfDPT9Q8N+BZYdX8UfND9s3bobdvus3+01fGH7RH/BQTx98bpLjT9Lkk8NeHZNyrbWkn7yRf9qT/wBlWo/2Yf2D/Gnx9vo9W1JZNB8LsyySX12rbrhfvN5a/e+b+822gDz/AOEPwj8dftY/FBrfzrnULq6k8y+1S5+ZY1b725vu/wB7aq1+1/wI+CPh/wCA/gDT/DOgwskduu64uW2+ZcSfxMzVa+DfwS8K/BHwzDovhnTobWFV/eT7f3k3+0zV6HGu2gAVdv3afRRQAUUUUAFFFFABRRRQAUUUUAFFFFADNvy/eqC4tY7qNo3VXXbt2su5atUUAeNfET9lH4WfFCOT+3vB9jPMwbbPCnkyqzf7S/8As1fMHj7/AIJReGdyzeA/FWr+HpF3N5dy3nLu/h2su1v/AEKv0C/ipNv+yKAPzBuv2B/2iNBuIV0j4rXMtvDt8vdfTLt2/dXbu21VuvAf7cXgNWt9O8VXGp27NtVoGt5m/wB7dJHu/wDHq/Ujb81CrQB+Vu/9vDb/AMhTUv8AwHs//jdV76z/AG6tUtWs59W1PyZNqtthtVb/AL6WPd/3zX6u0zZQB+Xug/s4/tjao3+mfECXTI9qtua83bv+A7adqX7Dv7Tms3TXF58UJ5Jm+Vtt9Mq/98r8tfp9t91p2ygD8vfD/wDwSp8ba9Isniv4jSxbl3MsfmTMvzf3mavcvAv/AASr+Efh/wCy3Gtyav4jvI/mkWe4WOGRv9pVXd/49X2gq0KtAHnng/4C+AvAFrFb6B4T0vT1h/1bLbqzL/us3zf+PV38Nv5S7Vb5anooAYq7afRRQAUUUUAFFFFABRRRQAUUUUAFFFFAFaSLdGy7Vbd/er8p/wDgpp+yrN4d8SN8SvDVmyaTebV1KCGPasMy/wDLRf8AZb/4qv1gaue8ZeE9P8b+H77RdVt47nT7yNo5o2+b5aAPgP8A4Js/tfyeJNOh+Gniy8hW8sY1XSbmdtrTR7v9Wzf3l3fLX6Lwybl+bbuavwx/as/Zr8Rfsp/FKO602aX+xZpvtWk6lHuVo13bvLZv7y19+/sL/tvad8atJt/CviS4+zeMrOHbuddq3ir8qsrf3v71AH2qrK3T+Gn1FDL5i7qloAKKKKACiiigAooooAKKKKACiiigAooooAKKKKACiiigAooooAKKKKACiiigAooooAKKKKACiiigAopN1G6gBaZuX/vmoppo4oyzyKqr97c22vnf43ftwfC/4LQyR3WvW+r6ovy/2fpcnnSbl/vMvyr/AMCoA+iZJVRdzNXgfx0/bQ+GnwTtZo9S1yO+1aP/AJhmnlZpW/2W/h/8er83fj5/wUn+InxSa4sfDsjeEtFkZlVbZt00i/d+Zq8Z+Fv7PHxM/aC1z/iR6LqGp+Y3mXGpXPywL83zM0jfL/3zQB7x8fP+Cm3jr4lW9xpPhi3XwnpbNtaVZN1zMv8AD833V/4Durw/4V/s8fEz9ozWmbSNNvNQWZv3mpXzbY13fxMzf+y1+hP7PP8AwS38L+D44dS+IUq+JNS+99hX5bZf9lv4q+3PDfhPR/B+m2+n6Np8GmWUK7Y4baNVVVWgD47/AGb/APgmf4T+GP2fWfGDp4r1plWT7My7ba3k/iVV/wCWn+822vtCx0q00u1jtbO1S2t412xxxKqqq/7NX4/lWn0AMRNv8Ip9FFABRRRQAUUUUAFFFFABRRRQAUUUUAFFFFABRRRQAUUUUAFFFFABRRRQAUUUUAFFFFABRRRQAUUUUAFFFFABRRRQAUUUUAFFFFABRRRQAUn3qWigDzX42fBHw38dvBN54b8RW3mwzL+5uVX95C237ytX4sfGv4KeOP2QvipHtknhSGbzNN1mDcqzLu/9C+X5lav3sb/d3V518avgl4b+Ofgu68P+IbOOeORd0Nzt3SQyfwsrUAeA/sR/tuab8dvDkeg+Ibi303xfY7Y5Inbat0v/AD0j/wBr/Zr7DjkVv+A1+Fv7Rn7Mnjj9kbx5b6layXLaO0m7Tdbtt235W+7I38LfMvytX2v+xx/wUW0j4gR6b4P8fXEeleIGXyYdSmZVhuGX7u5vuq3+9QB9/rS1Tt7qG6jVopFkVl3Kyt8tW91AC0UUUAFFFFABRRRQAUUUUAFFFFABRRRQAUUUUAFFFFABRRRQAUUUUAFFFFABRRRQAUm6oZpdqt81fMvx2/b3+GXwYFzaf2kNe1qFtrWOmOsjK3+033f++qAPpqZliVmZlVf9r7tfP3x4/bW+HHwMsZlvdYh1XVlX93pensskzN/db+Ff+BMtfm18ev8Agon8Rvi/cTaX4fmbw1ocjeX9mtP9fJ/vSf7S7flrm/gv+w/8VPjtdf2hPp9zpWnzNubUNUVl3fN/D/3zQBtftBf8FDviB8ZpprPSppPCuhyMyraWkjeYy7vl3N/ergfhD+yT8VPjteLdaRoN19jmbbJqmoL5ca7vvMzN/wCy1+lfwH/4Jr/Df4Xiz1PWoW8Ta9Gu5pbn/UK3+zH935a+utN0210u1jtbS3jtreP5VjjXatAHxJ+z/wD8EvfB/wAPfs+peNbhfE2sKu7yNu22jb/Z/vf98rX2f4d8L6T4S02Ox0mxg0+zj+VYraNVVa29tG2gBaKKKACiiigAooooAKKKKACiiigAooooAKKKKACiiigAooooAKKKKACiiigAooooAKKKKACiiigAooooAKKKKACiiigAooooAKKKKACiiigAooooAKKKKACiiigApN3zYpaTbQByvj74d6H8SPDt1oviDT4tQ0+4j2tHIu7b/u1+Sf7Xn7AfiT4L6pceJvBdvPqvhP8A1n7hWaez/wB5fvba/ZeqF/Yw6lZzWtzGk8EqtG0TfMrK396gD8gf2S/+CjGtfB1rfw741judc8O/dW53bprf/wCxr9VPhn8UvDfxc8N2+u+F9Th1XTphu3Rt80f+8v3t1fGP7VH/AATM0PxVb3niL4d/8SrWm/eTaf8A8sbhv9n+61fCfhXx18WP2NfiB5aR3Wh3kLbpNPu42aG4X7rfL93a395aAP3y3ULXxP8Asy/8FJPCPxYkt9F8VtF4X15vlVpG2wTN/st92vsuyvIb6HzoHWWJvmV1+63+61AF6ikX7opaACiiigAoopkn3aAH0Vj3Wt2Vn9o+0XkMH2ePzpvMkVfLX5vmb/Z+WsFfi94J/wChs0f/AMDI6AO2orjf+FveB/8AobNF/wDA+H/4qm/8Lf8ABP8A0Nej/wDgdH/8VQB2lFcXH8WfB1xMscPijSJ5W+VY4r6Nmb/gNFAH/9lQSwcI5Z/ABLNoAAAAAAAAs2gAAAAAAABQSwMELQAIAAAANW+1TgAAAAAAAAAAAAAAABkAAABmb3JtYXRzL2xpdmluZy9saXZpbmcubXA0AAAAGGZ0eXBtcDQyAAAAAG1wNDFpc29tAAAAKHV1aWRcpwj7Mo5CBahhZQ7KCpWWAAAADDEwLjAuMTcxMzQuMAAA1ABtZGF0AAAAAAAAABAAAAACCRAAAGKSZbgEBH///wRRQABHI8cGODffffffffffffffffffffffffffffffffffffffff/h/4I4oAAoI+IqIquuuuuuuuuuuuuuuuuuuuuuuuuuuuuuuuuuuuuuuuuuuuuuuuuuuuuuuuuv/8A7wrKQSkEGX7Ph8BevA6KP3+KRiLjGT4fAqA+wOxtAbruYJwWkKLiPH2rmECTUgNFRh8ZQGARpbNK6g2AETu+kNEP9fGDMAYv+2wCwXGUFC7xAAEAsAAQAA+8kTA4lKDejGFQG77leLQM+RyRwMz4nqBzZB5F5UQ5+2jxwTMssFgUwLb9pxAfbqheABABAUf/2CEOQJvLrMLfUGBlKHk+BRe4HmAXjDYEOA+MqIAhAZDM0BAaC98wqv3URAWq6E0P3+4J79+4ZeA3rm/C/m0FZcDDnMGg9WFzhivCGBshyVOgHdiCVIPIhxsZn64YIscgmUCR9vwAQzYi2g4WrIKksD+BDgemWB0kD47Azi7KAOwR4FSnr8eYv+wOcZ1VCBB5L2+wZADAbFWlzAAlMGqwSBi2u1ZhbzK/ff/cD6s76hgzpmAb/gBHzeBzZQGFRwz8JL2iIY+pDLMOkMJMBsTMBuASB83p0QHuxY9ao7ALRVrKPt0QABAGQABpTYAC2xMMO9NgAOsifC/+SjCFiaWzKgABWSRaVypCAYB/3aQSkFVKlspBKQcHrKWx9ulsTIzkeIX79/cAbD/GZ6CF7rfWB2h367/2tMEGucUL2j5DO/8n/qbvUmKAOwVICrmCyRhCPkToDVHOyjULAg9WNc2Qm6xSTR1cmOOU+xsoetV8Xr/W6Bi0TFoAAIAfQFKuJ8Gv9I1emBFBF/wATAHkx4UwImFEsWV/8HSjARWIGBZA3vyYw9wGgfcABQYNwSQF0bY939xAKogAAgLvuCHoB1A7tC6EA13sH2dLFzHXgAJt7kgUWmLbQ13C2zFvLxQ9cFavAsEYJWEC28gaqQQHrUHuD7csD/dMD6PoGJJJcJ8vxjvg/vePQL/8AVwCCJKrcBkHlpZIAxcGBVeBtXw2QeotFThNddPWQGoAGv90Ae4EQkQCmWILIjqoCFw1IYAJezJb/7pVMXNbj/OCwhWtFG/B61suW52kCBtu6MoDVTxfQBEVE6rFv7ZJMbVBVCp2t7YP4BRhOVr4MGxYXjyfG2A6lvv7lywamFLQp4SLMGQj2w8gABAOlQYC1wiVEP+q4hCuyOkZW8IZwggPIhMiCWRa+ZDFi0jiitOhtHRRPlHbR2AEBvLIzF/l1IetUr9ddddddddddddddddddddddddddf/8Y8K8Q5Lk1/8bgAuTxnEOQj9Mv8DpWOmG9AoWntoCHGSVU2/+gCAcegcEIQlkMko0QH3yAlOEbQ20dlzIc4g/Lu93F73D6tGYHpwAVW98w//9BUzNnoa/9ujDcgRkLLJUYS14snyKABwkCzITrjmFADK3KGvjnStgMCQ6U80AWFw6VHkZVCJMQMo2d/6kBQAuxjEE+b+1e4gOg9KCNjj7KD5sWFgmsv/UIBgVdeAISAGS8fG9rIwFTIiEhBEJYHF/Vu93Ihd3cluCw03TTa8f8B4aoZscDrGKExrATuIKXjc+bAelv/5pg1BSDMTngghP3f2M6gNzJLEhjZ7e1YGIybQsNGQkoI96xByj95/+nx+wJCAOLRjpTTLfxrKUq9UICD+wOyATjBd84EFwV/SJ/Y8E4WI0geV8mv65agXE5iM/axQh5dEOEOAVQ+/14ICoyBIbsLzScrdRP9y225y7uL93yL35z0B0e0+4AhEOf93EgTWSDOjFlghCb8CjgCbEYD7mRhRNeXlAadGsRPU+AMuIYFbFdigEBSTZYBCDZkoOI1GAC4xBUtAC8h//tCpHAdZkuSHl5lVMVRhZhdjfIasLTVp02J1Xu7AMP+7xj8fCWkdvxBgu5QrXAuPC4gSPEQ9sX/+5nCsTvO/5xdJX2rkDAl/fhrB0CDMOnIeBQk8uCgj1ER6LeumOLNzrvd5f+EtwAQdWUwWK1L29gsRQ78qxpGJO/VLw6s/18dXDu/4aCiJyBZkSf7qcAGGH8PSj7bB/ZePwdbZ/tmk1OP///H/wlD0/eykKCnULilgx3LHvkt1f/hKlGKoPlYUb2PCsG7aTe4CMNMaQLZWXcdVyhoPvVw5q7hH/wlhAM7KH75zSIkGARKaQBJYRGzix9EblvgAB4WpKDhVcau0WAAR04AEHAuZeQeZ3UIq9XWo/pCK8+Qa3RgIYAe2IKBjHqmpMJkgfrU3ybZmT3CChQZoM3Ot7AkjPllgiqS4n7X1TmJrjoVXrUqMCFwsERInCq//ADAGFypCgwRpB6WzJeuioy/FVVbrBBW998AizfTFhqjt/rAOMVXEEmhbcmDjfgF6sUAhwAt0YYQYuvIdi+RrL/3WfHliu6aDFH2S0gIU7XgAiQFT+hAAl9i1/rqRYl9jSq9lFsFw1yxKwr53DEgjoofXd9impq6+usILuEgjQJvhmY2JqDySrwHogl9MLTPJ+u6DVmUQB56p1iq4r99JiMQ4LmMaMq6rMgCvnurKP/aA3DAT4buqjtwa1FbYIMwJY2KJM5ooLr4UyW9ONgrEW+lT1vRXhkTivC2lG39hkSNhtH6ENkGjimSbBgFnL/7OBDZ3rlJm/tugBAY8Z/ZR8uUf77xhJmAOtkL4oCYJgxhwZ1QjsoK599hjKlO6j64IK7/vW9gEi8SBmAv+qtGei8kYphdDeQgu5LRSqt9cOQTXORI8P0JWlPJM3TEwfAZMoH6cgHTYdkFVTlRpexBx1Q+/iO9/mgVmALaaxHglIi/0gVW3KJMA4bieVFnLGPKJVDkuzQvWREgD8BD2+Uvf8RAcQhWJF73gfnVBTKPBfN4PsPg7AQ+9+f+mn66666666666666666666666/+HcXJ4zEP3Bt0DAKh9gDXHbJJlPf9QIQZ3MNLbcpu2A3jACBFCOj7E6fCcaG7wNIlT1LiRIITJBQnd3pR3uBCa4wMLGv9Rt42Ig5BKCpYU8DAo8aat5HP3/QEwY9CMb33Xk996GrgGCPTjaoMnoEigYdMPwB7q0cQOj+/sMGEEOYrQHS8FSkVT+oOoojZWrpSsbB42cckE7+LTFQhYTNFQYWF7F0rEOGHhCdPbG84O1RCXt1wDggEa23OMgIK33ENswMAfbj5yUSAfBU9ch2jn+g7o5O7uTF768FhK4xoDagHCYLTBjQinGS9AAxRE1rTbQyEFWef6gQejxLAsSApQXY+TQBGlcF+hfS08AfpAGEF3YD7QBswODUFJaOHgH5XL/eIJKynuuYChcn+qAlcwRL1WA8iCXbLElQuIwZAddVrnJYW7xqciS/7AMA8yuy/cSfx8TskA1Dw0AoLA17uD7UZSCKTlDjOf6n78cjI3/91M976pSMkJ+rVyo+Ky1GC6P+U0pR//jx//D0D/v9ddddddd9/+NYfDhKewGbFi4yuk2n8t2EQqsDzoSeMiTb9P170hN92jfhQkXzf/7rFf9d4r0FK578MJ/UwsckBumECYsP6gSNyVD2qYLdDmcTc9kOBPsK7cjWDRgJVdDseC3+sxIIFwrFhPaR7+e9bIwAEJCq89gXBEpCut+pZu0umn9+JO77yYRT6fe1VzVeSoq70Zhk+bpzr98BtwDMKvCPtNn9MAP68E97VM4AeeUvC02+pl1mvuj04OAdLbevncFeAUrWfEfAy83MpBdaT9+I/V7/9xLTtGwLqiqHg/RScNIUt1CThK8qY/dayomYEqG/++snhEr+KwT89lY0UR0o8or/62CwPpPRyE3j/75ZDNUyQAchCAN2BPVEWqpF8eT3Ex6ErVb/GGmVjrZ3uswEUwe8c0dERvtKckF1EuI39aPANuCbPP4oscwKFdbdI8vhFKmP/5s2ACvFkHEUTYNetDAMr9edN7DsBC18e/+/f11111111111111111111x2ABEH6Sb0n//NVzzTfG+RPd9z0A3Pj0DRJagwHy2fsAfl45PrB4da5fZQ9DhiEI4WDaMbOj2AVfjs0f2gCaYBqYBHcSe8wxYMgJAjMHEuMF35758whnhesLTCwoCbYAkyAACAWNmxUBhYCW/ayGOlzCnQ0G0RO+Aw6jsv+LWJaAQg1dtK2/AoyB+5jIsnuVzdzcSO4G0GIxlNCWSTj5AoAjIABRcfSAEkwEY/7GZJjHYDKoUAnfrbAEnB9vuNF7/eCSFQhzMWBtzt/v2BQZ57VYOSJupSQAYBVSHBIEaSbqm54kXgLkIW9kACO0hiteS/xQa+NS8ybSUBbjFWuQGhULn/YRM0AMHeugqoFPdBD/JmxU8QizAmBMV0QhdZA4XyQU95Jfnuyd8TiOMN9J4ygDFX6VAACB2OgMDckZAdt34dIhf+pu6EI7InoyNl7nMsFAtc8bw096IBS9pbBnwz/8AEQh/h6WrPbSuuuuuuuuuuuuu/vN9/Hwlx3SvWxk70Lb39dLIl+y8+B2y6darQ1ajFTfuVktaGIVg98wB/B3T4XwV/6szDAa4VeDpEVI7gCm41IjCWWhpJKfndAALdLAu/BE7aNgBiUCnZShdQuDjdsAE1CjEPCPUKY7WiM9GuemxJf2RPHwqMaeByoFJbbj7OyBATuv2AYyLrTz4PNvd/7TotD7FvZWpwMa813phZT6MAdAMP2Cw/fpEv+9h4XI/YHWDHyVYQrQQ+CleDGRmPZFyffpMfG6qik/moWY0jg7Amz3XApkdnGbhn9pBLHGukEE+LFFigGqw5QUgHoHLcbSAAOA3YcB6hqgH/0IBvZp3DO1rmhFAiZTKt0sAHaN8EBpAkaBsIAHxMz+Lg6fPm2NwDtWvalk+w7sp6RwBrkKm+9L9hXai/h8H91FdddddddddddddddddcdgARHaVY+zP/+LjuoxwcRJ2IZFIiz7nhhQVAKb3/pArMgAQRIe20s2bcCsJNaAVIEEgme3bgAj5ImXNHjQAz9wAwBj5Jtt/y3Yj44LrISb6YQrkNSnol5MhwkmMhEAU/uKEikMNdlI+wv9zRAAGXgexIkWJg7eyxaxA7dUEZ+gkP2tFzeQJfGgdY/4097uewRfexxgxBCBp6JMGdu0lgEHJH9SNcIs+89KACUlc4rgMUCK9Ro4NicMSkfa4IgqfYjBpFUoiNoy+EPj1PBLyjEHKMW0OlQTE+IH6pv/VvGBX5IkrY0DHhoeEjv8YWTlz+BbQqYNGnPum65CT4REPw9AAz/ZJv1111111111111111x+AEH3fYvZ2jCeid9pP/1t1jxOcVZEVneusscgS32UPSfoVILWyBne7dV35evwtwAoRFkhsMxHmo5rXEqm5c//fBzEpB66czd+3YAB5beKBi//gS7xDqXemTPcW3Aq1m14pvjyz5muv78oABD3u1zglCE37bWiAaLBb47f1gA1zeUNKNLHqeaG0D3YtfbQUTdTHh1KT+bsZgG2YrFd/1fDcuy/rMwELOyGGW1wkatKEASgJCWPQL/rSBRdLG9O7YQOjL+Tk4LHFwDQw7VLHVg+lzD7SCOtXKQdBbFTTyAqTlYC6S7TUBrwIq9RnVWf+eHqNhuMJ24WGNdT919gY97Ni82YRkeWex5cS66666666666666647ASPW/P/8Wxb8WIpETW74WHJIPACZza67f/6sHgAJAlyJfzIlY9wjgN1DKklEA3JpiNER6b45CMwCqKMi1z1OAmgMezjivZQFlQggIxHg1S4AE4Ftvf+9OC5CAfdwFSBZUBnyGoHbUSQoVHnobRDAB3rBgkhmMNgKxRDAuokCGaePe5IIYH//WxpWhTuK/D/VvwY9pQ32Ag3uzY/pLJOcFQ8rWpIQg3RnWmyy9iK6/9aNJ7LmIIPXPBlcO/pou+glzbVbUysVTTCWo4oxWH99KJwA+yII4g36DNt/+oF9hbT+vhTVm39sKe+AWPxCABw/h6GTAaiGlJqrrrrrrrrrrrrrrrrrrrv4qJwMeLyipD/gGe2Vb1DhRW4SW5X/yQB9IRDjEqIOBlDbJN5tuyfIbDujCuOY2E4ZJ7Jbf4TbI9N/olBaTJjVAmCU38R/l7JBZyi20AcRC4gKiDX/2EwFVplVuCjG/ccztVcG3+zyucBhIJO38ZTZBXJ//YGXpB3iq1j5fYMNoE8m7x/vPAhsHyImmne/sGGJFMIfNYUs9zoSuNOIaswE29cIDdHuHc7+9iMIuHXSElite/W8UCC54VqOtvOjA/UPEIu7Q/4ueWFSkp6a/+xr3r//7TwyInV0zIF6Emi/+v6YUgrrrrrrrrrrrrrrr/Nm9GNjjIAqrfBgXcAyhwvUWV3sEmvTtYAARTAOF8bCsYeCwE8ACcT0wYa/sJvTR+R2VzVAxkCEQJX600I0BeqmkAAIBpQADAKD7uRmP35iBBEmmOWmAZVykzAARRx4AWucwABAPYqDgkGCLASl0iVjtyYzlffhwAxFoBLdFDEAhcIXUBbqDjctW2YQDf7gQlGIjF+4ogGj6drAJASPi5AX8K6hsWba8Bv+q+c/ARTYCOvG200fljCV3fbOjOkf+gTtLLQQc9+j33lM5NqWFFN/Umfscvq//nDL+ELyEIhgAfh6Nfb9ddddddddddddddddddddd+Ox/wNAirLnKNp+CuOS83XsBno7pyrCCv7qGBsmsMQq77VkRvQP7bP93NCD3RoIq4ZQwCQpB9Edt7dyyTKBsfMpgWB1rXctvK+FDkvVvfZT0JENIUv0gmGY1BNiK9EWn/rCZ33VEJBW/dQXnMc3ysKn/90ATgR0CICLqxTSffsF5IFRPig4OyCwIQ+vBF08iaYwe+wBBiZ7ypNY4DBk/2iuBvWBb5gxU0xO6gkuXSF392CMFoLRpXmNLP05THdFvcwyMJgtBgnMmkPT0sKVPYLbfbL1111111111111/2BvsgwpLgaeKwpUAnAB0scKvhI8uXwIN8jOArv9qOKyAIOGyO1ELE1RZs/bMyuHjTk3V1YwSZQFbl+YBT7aBxPkAdBjA9Pc8GBk0kdKTVkvp/sISucoUgVh8ZsO1sBW7sU6AoJM7+7wC3YJCViEU2tDfhVDnV7EAGo0mhSds6cm2Uwyw/BEafTfPYHdGYIjfkS+f3AgOOT1VAlynMCY7UFTlCYzBhGfmGpibv8NgaR7+2kjsUMkOIhw/D0rACy/QjXXXXXXXXXXXXXXXXXXXXXXXH4AQfa2mL/9s3/9FTTW2iXDUcf/SX3043gV5QCOPFbE4S43h0rufDjCL62Js9gAX64WaqJVp/YgAgFpVXmSYSf31tgBVSlQSynH/8uIwAjABe0EdKHZNJBX+LfcmRdnFgJeUDqJEXZEm76wHPq/Vhx0xg3Bh5ES2XJ4AJSpgUYvCRSP7dD+dMNwdjwRL0KqwoONbb70iL2CKFK1C2EDoio+1237fpKScD1SEK//3F5E4FH1nHQBYzoQfX+1S9Cw6Jwmm28bUV111111111111+GzVhZGa5+Dz+KyTYeb7vhgPLaMKxD6C5+Aeg1Q8pgRAkie/9sgUTgS9ETwn+wBo0zJ6G4QMmQN16XAU+ATAFEzUIM5uhguHnqE/x9hr/uDQwADiquCtppH4xG93YbQDCo4pBrxTD//W1ozAA4DIAg9ZkBHb55kIA0y+J9sxGBvfKCL+tktoqcmWYbfup4KMJS/+RONEgFNZBQ7xYFjmxBf56zqqDrStKfqi9cgp8iveq9KiTEP0o04Pq4n6euuuuuuuuuuuuuuuuuuuuuuuuvjign+GFJQDLLB/eYDCmTBbVDdSvg//Cow7G5+uMIk4DJotmbv7dSUKD9KZJT99M/4DNpFnP+AAfCZMNCCZKVRNBYcOhY6C1e/+6wQxrms5iE7j3/vMjVSYZxnvDs+tG37FZfa/0ml/8xGvncHagwOfvUahiLyDDxZvAfrJhJOiwcGsXo52AEtJ3h72hfIvDHidVVeAk1bfv454ZiUwOzu+wNPZ2wrKqC9pb4f4T6sd87/9ddddddddddf//hghgy0wUIaY+LW5tYrNuBrr8dvfSZnsAlj+xI/DQHhLeqJkC3t2hp4XCxjUwACvv9pbEZIIQeCzBgX7/ZQgvxWjVGCLLv9wcGu+PPNA60iGguxVBeK5EqfuAkuAetopFZDQWedqPk6BAwpaSCEn/ALLAQGTqlAPVuTWA5/tmFEFSDGJdbK+aWA0RQhA5DhAdL04/2xxYoCl3AdnKA8VesqrtP5kV/iH4ei8C9AUYa66666666666666666666666647//kYOwRh7GlKdJabgqa2vfVs3/PoEw9zMj1CsRQgJwa/iRamj+3GgxmUslrBqtPc//+yI8ZSgaF6NhdhLmAMBPxCwFHr/t6CmCOoRJglO7+AAJiFAroANWuZoA9Bt9v1sRKSTY3432bLS9y6wG9LmAOUyAYMn+/3fEF0PSAnlgWCzEIK+HcSMdKDBrf9soBwonqbCjyr3/Tb4T+VQGbzF3c4C/wzWJLOWBsDgUe35F3Hi6666666666/zRA/tCkGroAzhKch/8wGqJQ0utnZIEQBwvrwSIXNbK1m944wtMACmyYACAbBiDHo6vWBiMfW8BYvEzGHK6zNlaxsxIV+NoB0Rtj2m7jIq/fYG9wMEyWiiSYG72HGAOGBHEl2Mm2tFgACACa0CUAcFI4hiitmkzNhxc5yrkjU/EfEEk6nXTRJjc9/mhygABABC9kgt0mIKRAiReKSDL2tsABD5QWZHtpEZvNur4BcCzHgs63I8IShdFlEzSW+WvXXXXXXXXXXXXXXXXXXXXXXXXXXx0p9IhCkBdEADLB3PNeMsBoX/XrA11RwDrZcFhWiG4YcI/ftGwBphgtL2dPDpu8DUFt0Weue39xY2HTwhWoY70YB3//gigA6VNPT/75RAagRwB+OCcQsywkMOgff2gTCddAIdBejBzGcRCYOvOfXXGHwXmXGHDTgm9EX/6z2sma2nH39/+cXloPRStSACwatCyxwtXhL9JQhnANmyBp7zFUGE0JIVaNk4fl/111111111118Qwtzs25eX4qp8XHUpgYEMHRFCUIwDoExweziBsaRAMowyHYhAmw3FKhtGChorADBv4eKE5nwwqMQnysP/eirUX2AqQTtkZyCaUAUHLGYVPsCZ7bLxb8J+4AAR3rBsB0hkpE3rHfQO7LR/7JOLgDCgzE9/GnvkGlJuyAB6wEeA/tVzAGPKZFyr10Ba9mA4Pxag6zn0GOjnsuuuuuuuuuuuuuuuuuuuuuuuuuuv8UT9EwpbgMlkfZDwwygerbgIHPQs+mSfbljLgud44iwq6YiAfFPQLG/8Hjesh/+NbwA2MGesCu1eUORsYaRx0Nl1A7VA1H48BGitb5IAwgcpgoFRaiBM6FHTA33fDBu7gLIBwvMtLDA+02CpDAcSQhkajN25RkzB+gWdkA4HHNQOoyAFAM3VAoC43xJtmCGxmL11111111118MO3+4HGOhDVGMO+2WrFAKFgWgVXCv79qNGhSphoWJ5esMj7gYdW04jrt9oAAQBdqpwYQauKmJ4APf5hwqJPRe4TmtLkMIha4UIbhlgACAHBzQKNGqizsreLXkygABAVAdDSH/a5ApQYLJSUMm/+t0E0AUAC9gkLly2JvkwfCfaDlrA5jtLFWf/IAdrTSgGTyfhfDBVq6/Zxeb7EhzjlNi666666666666666666666666664/ARHab8+uttv/0jy+NL6oAQPHjkyu+NoFN7UEF2OEzIJdqOuj8AE+cPQPLwWVoPWHHblAN14G3HVGJ3Z0DrwlOykVYAnAtXTf+CwmJBmEMEwnUpv6ZLYAxeyvfAqB98AN4qhl00xwGNDBa+3+sRSQDCVS0SQmnpNuT4s6Y9gGWFGzYolXdJb69dddddddddft//uKbrTBq4yCq50IKaN37+m0EHLYcEE90hejM4Cf7a2rNgACBSU6mAAEBR22FIEMaCWrLBlK+tX4j2es76UerevnDAeQhwqQRi49XOzmAyCQF6EAbEYJeg1ewCoH4LSULQHMDxNUj5w4IUXHj07UW/ih/CcD/Py9B0Ok2C666666666666666666666666666/4f07giswbA+VvkCpO5gOd4vvoEViO4GclYBI4LGdt4EMfshjR4wLnCpjwAFgZ+NAGXuTRugAPgff+twqEXdmkZim2AwD8YgKYHMKFBErG49duMeiYwbk6UoFnOYP+r+ux2Aha+Pf/fv66666666668P4w/csUxmSR+jGQ8WasqJgbocWbBHD+Z1eBF/MAQD4Fmig/D5SHE9M8JESXwdMiUwxcUdbwFnU5hquWoMkEPGFM84luR/xNPhPpzv1UeRPey+63rrrrrrrrrrrrrrrrrrrrrrrrrrrr/tb/usMmD0FXTwcbktJmAASgGvB1Xwqn8e4FQBFrhs3AMaHtcAGMcCBKPNcAR7kAHgVRwhxYKwXh+RoLBN00AAddxegYhoZE4C/LOd96lAPFifHQc9lBMXpGXR2PWZpnvv+jE6MT66666666669If6fcC4wf8AWskWmOSUwJYfBhVehNgFFENAFLnEWvftK1YGKitwaNlvRvAgCJliP763IC5HOMSNKuAd99ujn3ogEPA7VaANdZEIC3/HGig5egadiZO+vUgCCFIHFw2Pus7acKINfumNNkKw7UXR0WI/h/CdsH1vWQ3I97irxuQm4dipv9dddddddddddddddddddddddddddf8pf2uQ9QhnR6jHTIGKoMHFSuGtYNTAA4UCpA4pEbP4ADPCYjj6pRICAADmomunxBtgH7AMeA0kAPAKS7pAl4DkWx+C1da4HFeEIsW3oqw9TH2TkLo///Cfb+36f9dddddddddeIMnmQB0uQTNP8hJy2aj4EGrNTQ5qeUoBvnVCF/9tOB9IAFQAFZsSkDKxmPu6twFMqgsVX/WMDqcQMrRA8CY+H2eTjygaIAiJSoAeR7244JDtMXsZz0A6QQSEzUMRO2Azh/MgjQInqFgQUJLUncZZJR08iD8JxQcDKtUyktOqLvOkDk/xfFApighYW0s6ZL+evfSeXXXXXXXXXXXXXXXXXXXXXXXXXXXHYcSf//qqr7Wl7BS4pQTSF9nSlhsue7AhIuBwmJAcYhT8ggNWIxKhwgAYszFihQx73YH84goHcPs4GP5pYb4DgCuw5ODaligmqpAFHWsUFY73QeItXnsiAGlSSa23sTUAnAcD5JTCLk5kS5YepxkCGhNFUJk1tJcX666666666//qAHvCsKNHVOHs0sA8PhUKxJ19r6RBXRO52Q7VQfedfYYKK5gABAEG+kuXBoYQKzcIXsSTY2sAxLYChW2LJsz+rDEurUwLRiEuR/7Dgxe5iXvJjCMBLYHOSxJAlt+4ZgM9YgW0RYQFxKliyEvqW9v8M8AZSAQ9wBB1RqAAVbW+NvhPWBBQWe2y/GCP/cYjiZBFgVY8B0V3zAtFUl3x2UsAPBGJGbfNAM2UXPy2UABoAAIDEEAhkAXs++it9Lrrrrrrrrrrrrrrrrrrrrrrrrrr/gAeQFhSFVX5iHCvBuw23+gHXX7BduA/V9gYtkMX3AqAkzABgAM9ghoE3svRhCpBizIq+v+5+AAIAIfJLAIAhVdp6I/tkEHz1DRZFD+KWTfVUoDuzv/Q+ycGZJL1cTDJmruQeTmDqHoEumHxH3CTGL7RRwLwSM/Rc0ngSYgIOgO6F2L/7mB3gAER0goBVmpLFjD+6vYuXaB2FELbWC+gHAiLu7UuAAEAFDDjDDKXzUkWiQADAAEA2A9fmcMTBdSVbtw+b4eZZchek/u6wDawVFvPapDxQ6zaMfKX/WHIkUQJuBrloKFPFN5/9QNfQpf5G/+3AGQBGyKI4ImL7XkwIu7lgPiHw7AAg+u+7//+Hv1111111/xAP6QpLkuQFr77AcY7P+By84hmACgOXJQQRLZFcUtZrqlwA+9Tke/gMZGAgIzBofSmxcagImxjc3mD9nNWSNigdhQxIScA9Oo/CAvNQAAIADQEV3APnhbIYgAAgBqAG3tkMF1YZvIwmAamsVL9to8EjOYAAQAT6Ad39rAA4vBQ9VDVdHFZzoOohChgilMiP+7wAXNKBJD7kAFHrMgAEMQUP9pwfVv8vwFEURECMYIyOA5uQEY/45H4XVahN5Lid8+Alrq4HAYRCV/3KBlCX1QwLKEuA/emNgTGDZV2WHSfUMpYAobGKYpO7+DgnIqA/IC5vfrGDvUAQ8BeFn7ik0BnHZMs9xagr+lywAGETFFFAbdosALAQpDyZojR91FeBE9xhv31hlSV2L/1HdVl/tY2EAcdLcFEzQnLTBbIB2OHkE/Kw9EtzaLf/+7pgAVdCrQMJi2FLT99NRvgAFXThwPKHYhwiPRhKxaPNYQv4AAZiwIUMIv1SCyvOkBz5CkWnt+bh8CoCJexYpXcW5bcFME5TGGg1zCgZJ2weUYuEU6RN3uAU/GekjQD3NFVQMBvBHRb34uuuuuuuuuuuuuuuuuuuuuuuuuuv9v9OFIDvD11ubgcd7Dc8X3XF7ir4SQfe7pc4YhgLI+cAwJw0N86q1nrAZaACKAaKFr0OCtvN3rdKphS9LrIrvHaIgN9FhESkE93ok97hZCz8CnmABBID4lclMBuh6BgqS7xv1pj4vTZYnIAh+tnQG4mooBqoLb6zMSPShEMUwZyu/L+T3+V91YZjwralK/7tR9zqqeV1IqxnRzYB6COQcXVJedWWq1emkWI0QL84hhFlPporq7i7hCJll61B7kOQD/t7G86A22a/52Gwcwv5yx6mBhg4RAv09w0+In9xUYAIh69FVjq//bGSAZZgrraM/f7H7fS/g/1rA1J//Lg+LyTiDVAhenEwJhwGHqJ5/yahTYFN+gfgX8J4OCTxMKUwjfs1zQs+ZdsAVhqSn/k4cnZjKNhRQLR2cej2yxpym3QBrCjz1aesDf0ub4cuuuuuuv/X5wwpAFbvsplm2DuYwMPKzcHG74MTJzQb6+bBxY2BBdZSrIVP91AAESbyAxsT6HUih/g7dxH9zvaoJgCjCE6AVwypFOhQdHHvXvnijAH/b/iEjy2p4jpfamabJzvWHlkFuUg+hpiWx/H0UFCgdwhse0oQXBXW4leEhvNLsdRB4iBIXGPXkAbdvSMAHFT0hvpTx9h86hIvjigSIHTawCjehTGwRZyu+oQDcaLuJ5v/c4QBwaZwXoR4kgTTsANGag6XW0HKjpVqKWj910MAMZUTWFA/2cW/NntNf+J7IXcBg3U1isjoUdqMB5cyAEA0veFeYlpyoLvZd/maOwkqI19EqrrfBT2Yf/9ddddddddddddddddddddddddddd/Hsi/ZjjJM50F+7mEByfoWkTuAMYYXvr/0YNgAKtwIDwvmJCIV94DQOaMIg0Ly48RGqAAEANnOEJACAKUE4xfK5sX5atcGqseWbX93gTlYtizq+/7ZAQTAeTLrGcAKDIQ9shAFQCYSLi0Mkv35rfgQfIgAEZ9+jXnYfE52kH2EMNmmAKqSeSBkYt3SAn957Ftf9tMN/Fns3/tpABSyXTS++qbit80ynYMllq+GaSU2+5wZgYDE+PAofb7y//hPUHaw39rP9aZNTMLLOcYQbxddUPNopoL3AgcPrEuoErNsFtz/VZAKgFLsElB6x6H/Gml111111/sgfE2WFIBfSJe/f6/nBuNvOF/70NTPet/j0C1LNb/fwQP13pP/iOicUa+Aw0z2mUBOvg9kKZQZLzuOABIOnVgxpdwjq+KqWHYMKZBymB0RpuXgD/8mAFAOyiygBSdxr4U2rAIEEQbkkx1UJiDdwUXQ6DL0nTgUTUQG7hHqaIOsD/CBFNaofhxUf63++cib1RoMBBk693SqiChmiT0pva8Vs9y9fWPAjgbfVhYAwqIoH2bI9To1CVYLGKSUwNg5XrwDQQp9Yn3tVhNJ5vn907QYj8uhjXIzWdKv6QJDdCSy3u9oGlK5+x2kA9Co+hWVE/NaAQAxezRG2GFTf11kCbSEMaFCf97DSZoEB79EmP7csTUh2Bb6eIBf0HH+jfCclbTkhbfIR7fnZxzbbxrvrYPz1ndaKymQug3PX05np1a0uuuuuuuuuuuuuuuuuuuuuuuuuuuOw4k///VVXZGttYpkVwAhgk1b9QHHZ86tb3MFH3kEi1/N1AxPRpgEB0nrOA2JuxakGHbSwFGAVP+winAZxwWnFNg/+0O/iKHKXzJMdXv2OQ7rbqj3/gMenQrqvpywdC84RTlNMTDrApn5MBxcoaStYAVQBoJABwDVBOFOsdiABG8E8Fp3jdJbVfv7+RmQAF/b+td///o/AS7WbJSiAdEazXJijY8FITNGJHKAt+EQxRfUQ0pi0FywpQEyld26hz6AQ4B5+pwHjHUJZhhXA5MCPBfymj0ptC4HbbZ4ECWIwaoK9xItsuYQAzkzjngGk4m3AIMjHvDAN4WA2MH7rg/Si/3kDne/CF3+4LCwqvpfA7bgKkbZvkDD8J7W0wA4APQNOHAZXzQ9/ucPowAaMA4X/eX2MezTG6tmirkjKj8P8XXXXXXXH4CL9vzwa/FG5Zynv/pTSaadL2eg8Yfe4cq5ofxFwZ6OUOETN/6KGbJN8V5gwZdwG126QDFRzhB+RfGh+JE4jn8y8uSzhtBNDBRGELuh1kgXDt19kUZ2dtTjbQAAgD9gMs3xwadFuRRtSC37bCACP+gA5AKrwE4j3E3ClIKE8ngTzcYZTi0oWohbji4V9oRAtI0ljAuR9gHH/14UuAwnFL2WpkPq7UMm5zdZW+z+0OkUkALIi6JxMF3DIA6S/+/Y3+ACIHLgCSASOGGHMhw0mX0V69iYBVSA4A+XeyBixiL9Qd5o0jAVpROPbNAHB9bJ9IHnviGYi0gCqh6xx6TeHakv1uTACuyCiTE+1NpaRMIq6/DZvzf+LbApbW1p/9qAGGQhkw05Y6MFKRkpdDpP3kABwsMe0wFhA8HKI/c/RK9hpmla/IAwG+5d31bBZPoiLrrrrrrrrrrrrrrrrrrrrrrrrrr/taVGtjIAhJqodqgoSxyp38HNVO36sAAEAA4wsikZPogEAIh3AJ2xldDOaSrX4G6AJMQzgHSMaM2kCYRE8zAsnmnGYlIgCDIxwCqoY0QksqsZttAAbAEG+sP8ZLs4gk44WbQAZCQNFCspHRXWKstg3B/wB5/9eAAPPTXUHP9/1IqODxYWWHPx5QecBB30skzxBawidmlthrVWe+b7agwCGpoEKFZ6LmQCzzpM52tPI3/Kwrq0rjmgA1mowNzuA0lDtO2+hiIwYFk9kgQYhCahncYQEfQQoAHidMARSxeQAChhJHuSAyan+erIJBnGQBoufd5A4GZymg1FJ3Zw4BW7zIsTCVY/DIJZcY5z28AKyE4D6PDRk+B3GZMXoCLO9b5AGFDGU2QoSZ7TADcjOUEBxi5J0OyLJ0NWm7iJgAKaYBgkxc0Dp//y92zUlD8v4Ti3R37oqopTtLz+uuuuuuuvMqBRAAKU3BfIfczHWFQmOVKccaRmN0CAs7KjbwFHtNxEEKPFLpkyMbvaIsTtBx5mp4FCd9qN9NAHKCo7C7DAe+PuXj72nLgBAHXwEF93tvZANzkAEmgadYClTYX8hH33B+w5jAdgVqYsrCN2QEEwFAsO+DMtacB0soWL+gWZT0jQW7urwNwastn9yiLdlSVKoQBQGrJAiSl/Ij71nBaQhaAELAEoeGYxIYe76CrMwCksb+19RQdGAr9o3wZwB3AVQZVbI3+6g6LGIybqRugEerBgl1HhE8FEHQZbbbvsxbFRZFghr9Kbn/58AANs6NyoUgGpVBsE7L/4RQ7EhbWp6ABggQlIoqImOJgejNbOuJsBAAr0h5QFNdJKB/+LPe5sAAQE0ngGBwj1etJwwnJPc0s3TBE3gAIDj62K6EjoBFIl1Q55frrrrrrrrrrrrrrrrrrrrrrrrrjsOJP//3Fxd9qVsaq8g3CcWeHP5ASQr4+hyVVLCJCbIT5KVhTUYGBBbCp42q+tSBIYo9fVpTvA/vRKXecsboSgvT8uA0G/Un8SRAUXQ3aXZbG1HaP9qrvUcGpc5ggakLVyvKwjKUFdvpl8xDWwtmkmyREUgQ8BFb3QKVwA93ZAGf0zP9JX8ZgACAaMrfWQAkanRmYWZvdyPT6Z3T23fIx6yqH8gibA85SCxlHZPC0V5R4HsPM8EZMyaZYBhLcLXPFjsgjtyQ2wLBuapdmYJA39wOAydwQCgj7BwYEN1iBYyhdAjXQCdo74MBCErGNeBdbDv2FmGYWMHeAAgLWxi20OchepQKP3CZcqa/vvqOgP9SWZEDOv498AaM3AA6wCJZBSER4bKA8ICi1XiYDo54PtgsAw57bg6RsIf7DWnSj2BgK3LiKaEfYX66666666/w/0pCkP6Vvt//SQagYW2XCLw2z8MADdeeG/WsZxKB/uPzBzCAT1P8dF+G6C+igpkI3pWnuE/QQ77aV6onm1+bAAEAckIYAAQAwQc1EexMc/sqt9e2AFGE0kFNovWBl6knOcnr+6LOYg7/Uh546kLanjseAD5CAClKtAB67zdQWmZ2XcUcQ//aG7OLIpNA0gSLgRf+woIxwXgnGW8hreMcmtCWrQK9HK/JB79dEROVEREpfchxhM0fTg8ZvWZt4knhUHZw4eWU5BT9zeAuoIha3oP2f22TRAdkysOz146JOYxpRAAwoHX65AzZWq9e8dlDtXfP6V7kwBpYBSHqHKMoSSR291299/Wy0cWR7xtWZsAJAKBEJNtkiQBR6IuCRnPbaBgVNGRwP8aCxzveiSInHZJrlvcAUO0KT//z1tgWn66666666666666666666666667/HOYNZjtd2PwD5rUDwA+kzaln+2A6iZ2fdJQCz3IVKAGAYJn5v2MBECiXYmDTAuTlVALIrbpV4+AGpjVwiOVokfIPQbgHybziP1bliYZdFjU1zYkFy7/+2gFKFStwySN2lp8AIoAgBi94qgTGJ+ew8lAgJ34JVOX/TQKsqRQBlfVmPDkw2BryAAE9CnAIFcwGz7rbsg7bYrv1AUDToXtZsfJRUvIe1uReBkeGuqF/9LwQI98qGL5RkO9hjaUhEBxsCho6wXEp4MSdT1VnRxHTv7xtwAhaKKABI7XEIpz8Er4uRNf3LDw30sbr6oIVb9trIR25AW9aAiL0OKAq76+uQLEQB2coAFgqbWwAAIAG5BwDfD01YtqWvdCKPlhIi38Js8q/GgABAPpBJ+wAUUqtUCdcp5SiYP/dcQTga+zgzi0cBcz/9APmSjBXWEHa9pHrrrrrrrrr/EQ+AcPyFdCBLp9KUDNBScL6SGdeAwun4yOG32tgHIweVdmDaIDOHnMppfDhq0GBC96+yPbojhGgAOKcJM3CcFbPnIsSoqgxo/W/CH/43ZqG7lvvxTPG3YKDhIhv+A1qj3NuQjD9YnPCgsteti7h8SGINnQxHzXK69YcUQYK9QKlgCO//btDYfVR1/n9DVKJNJJe4NML9h8a2NkGKz86opzmNwroZ7DRXHQVSfrWsZLpI7niHQM1aDDTQAKakuE6cSxA2o4/h6Lx9+0WAOzFADgAdjHhG0TLU2puwzhSFBY9+hp/L4TokyX/g6pMkgecXKVfZfauH8GHUsOpX/F11111111111111111111111117QbM0bIe4JwJToRRmElijsMgALbYTCPFF78C8CVJQHWwAYFT3v4AAICIciUDmA8sldgtKGrB3qUtOVwQQ8uh8fIS1uil70XYFpZb7AyJpwFbp6jkgFBk4kYISegI4r5V838CobR3SyQz36Wi5ZbQZs8AB/+A7WqDQbuyDEyNNJm/9QyZ4BDC0ICzossk6Jie6xghe/88ARAANCLsgqwJKxP4AhogbiWgQi8IS2hGoIYeZp0gxbHVgfgZ6g0g4EFzFLBQJR6dagpKyQDoLgtnmxffz+54QdmeLsFjKRICNVYbeQBiMF2be4bPKHn8J9JFmZsGO31+QapVz5HxBJIR8vtwGcV9Ve7RnUyO8mteuuuuuuuuuvNAQESY0BKXEFtqMGRL4AQF1TPvsReyyD1bECiSpApgAGUCwETP4AGL259ogtG/AJOrAsNCp/96Ywi3ocHuBquNduO9KgFw4RUVypf0i52Wq2KxjCgxhQMDpSHIiOTmw+99o8cZeBywIzsER4/2EHFF7gNIYJugKTJF2HsRrcgZInpLSOQU+JgMewHCLbA2ZB6lpXv34cmujytivAJpLPKJJcZ92R0gnrrrrrrrrrrrrrrrrrrrrrrrrrrv/BNm2sDNuQ6t/wHNtAkCvSjnn8CHr66Q8qHBAQOoaEA4Z1gAEOjGC8rXoBPQdRB86DvVgtE773oAAzjKWLoLUQqoQxqztk/QLv//AFnQ7Utv1+QiC2UQKCpHLX8Kgo0TfNu3caIS9QUTZ3bYODxLYgB4hQUFUzjRLHJdeRYBKm4DUsFVcCIjhAGRFvoa4jD4gH4TjXd/7fuorrrrrrrrrr8KAqJgtdy9v9sE3VwYPhbB51rMw+MkwPxkGIx/AuSx5pcp/NbzAaAI+gjz2QI+/RvLhbmIvjLHrRqjJhUQAgTubQAyQu+ogVAbjLF3RP9IYv0bSDMHNBHSwIu0yu+726wGQyucGAlq7pMFp0/eEc/pzSAAfkgO7CyAEklIwmKn0LiF/HvDgL/c9nK/MDbQRnCI3E1fH/61tQNqp4HlsdgBD9PSZ+/P/4QvCgkpG0E1LbfXJdl111111111111111111111111//AMKwrOpIpw1lsbN/f9gDyYIUjlSMVhK0ph/QCMWH7T7+YPGSgMWrrfgqzhaxRL7Yg1YwMIETW84HD3VgYWsrM0AILgLYAasKgh2CIGwmVMYvIgCNAIoWAZLT3kmAAW50BrAt/heoFNQCXKBmhIEjq4hBzOLF/BgUXBUT9CDyeOw+/yPG3cf7+IUnt+d4AAuUepLUG3uFE3/a0M4SF4K5TDY3v36ACQoxpJKVoeeBOxoLktG5Stv4wdGm8Oy1KYojD//D0//XXXXXXXXXX+Jx+MIU1TJRGztzcPuTyqKTnrNFXG/BEgbcNdtOQLws0QIp0SGZgBeA4Zf/aFGevg6EVFa/7mkEAB75fEAe5uoF/skDh0RdgOQFHgVsg3S+bnryyBqASaUlo5XC1wdMKidbSn/RC84WNrIZAsuTwgRVPdzNXyRlooUwCnQwSUy8HXvTxHBhPl9LknB+quVHXs0aGUgG0uCC10MiJDUHS90BEuKTYnvR/xAb20y0mmepag618K3/zsWGIGITRBFGWHRiWTkOJOHdnvZcaaOLsv+9ugCBKSArCUogG16QqEjmLLEr6TVRwQJEgq4UIhlI7FgACACcKYkgAMAoYsSrfWYibYj+F7ttDuN66ZMPb24IPFDZ18VJ6CGmvAAzsw4MaaQKARGO2IDLmGeGF6izwUzg+hWsBzoB2CIRLg7aWvj3w/+4b+uuuuuuuuuuuuuuuuuuuuuuuOwB99Yd6qq+tcOCTsDKoPcAQ7D0/urAHhv9gjDzbcYfoOmsZ90EyyAAEA0B6OAAoCr+wOgBZEMoANU6BZvBDOA87bNE0KrbaQaONbqAC68YKABl7l4C4gVzH13xZNPwbS54vz9jBEFSQCRlDQzSGx8CvQdayH+3eMNAFxc4CbNF7MgYJtIdKALKUgcNVAnFVY/nvDoXW7UuMMisxYApACSACazEbBsdoc73aJmZAj/7BbM6Yu5yuI1r/c0K3/1XCG1QHcJDvamwxAQhJEPszYqLznIwMhjQK1aiF/sD4WnSogMg42M77UH6/PMCLMAoEfnsKGAAEAfTwOYyGEZQCkQZfXGgAD8wHBRgE7EyiAQKjFgEbArP0XpQAQ6tISL9+eVRnX3hyT1e9yobnGVZRgKAmvcK8Qr20l9+MjJZeMzOqdmZoQldwf4nYQEYUVoJRiuiMOWSDl+2zHdbIP2RcKmbW/5qB9tHv/Jsv9MDY483w5rrrrrrrrrrrvj9E9/89q//EcKeKe+2BvwxBBBmZzYBwqAXYioewAIzyCFwD+nHAqAPYJKHKLWU4GD5+xgGJ7GmUP1kFvV0LCpc+LxJaohM3k/+t4+GACJM8yACHD1INzJor75+AADF9MBgJEUMr02Gnt8MQ7hiCNyUR6zQ8NrpxMEML1sLfpQNicJ3mZZedkQQMChRQGScbwe+Z/y1ak0IcO6En5uDMMk9Vj/+uuuuuuuuuuuuuuuuuuuuuuuOw0kx52Bc7Bf737bE3ZmwuCU/iMcWkFL7amB8yjDEnURwOrbwKMgQ3Ak/c4CxbKATcL4S5roP1F9mhYC4cZLgET/tC66ZC/sSNgIjgUopwJFaYta90wG8hQcnCUjgsJ7atxkYCIZQoAWCwCeYNIAobUVLjh/jRYAMokSOCT6nIaz30GMIs467blPLLQwO9s68lMt2Rhj/8JRZzbPn/66666666666666/hp8UBIrEPwtuquP7CA+rgBlgvnhv99YLJAlWSKDbaYYCBrVCpkCDsHW7+F2CRGwQEG/mkcfA267Nc6kjGXuiBbLsUbNLQbG9OkAMAAQKqvlgG1zOypa8weaUA8wBJAAsS/fR71HDOqT2XPvRngDJbQMGdNAI/thEAIaocPfYWLlXn9oesMME5EIJ1C0erqBt8PWA8500CJPA2IcPCg/V6666666666666666666666/yeGYmz4yAet2qgAkAerYY41swOXAZQZ/Gf5iaDYY4Bf48ASEt42A74TS2LRyRv7i2AAQZvwQSAA8N4iDd/+AnOOp7eezYKdtvAlt8qv8BILPghAzZAG/UO8xMAkgSnUMc7yEUCExCg73zniAFRjqAhOq5Fl/WmBUjm0aqGF5wV4ZDB45E7ktWCzQO1TEYIzCwT/MRA4Hr166SF+mhy+ONAG5s4pIGMcGsx7KSvalA13f6666666666666664/ARft+ees9f/0QE50ShBviQM6MKAo3ASbBfd74BicvZMAPKZFWI8BA5rhgsxIfcjAXpsAUYTCYUBiZkBEuGoIXjChl6/4FRkbvwNhoAkFH1zMFpPDL/QekkAi9wGcWX0J2opPu4Po4qBlUiWoMfAq0pinIMg2xJ4Yayn/m/x+sgiP3BxmWgHxmD2GWX1fg7QpP//w9Xn6P1111111111111111111111/gzSSrW3L8vgUgFHYjh4cHE1pbRGEBmBKbALRvAaXKsDElyoJocroCDIk8GlyzWGRdFAC5zvVwcfD//OtRVxrfmdAAJ3AGDhlikMnr/XuYbEWhVFpPLBIUKu88gADAdSGpWAAgIXdi2xr8wiABDiidUgNzihgJWIUFY0lYHRr//ZyEAnL8T2Se4aoOKGBsavW634c/oYlGwCHH6x66Z+o6MqdkdH/8rWZvAVaGqE2wVbl1111111111111114IaJpQD03DUGPr6662kGF+4QeEFWnhwZoPYS6UW615rB6oD2UG6e2HCPn2CZXYCiJKnRr+aQ+c5X16ctATsBEyoBOPsckxOWw4Qc2jT+nfHq+ELUwWf/ANV9Y5UIranrhj9cThPlKyIEwfYABhM64QC0oo1CA3Bw3VilZQE//vEYAj6iMNGJq0Txv/FF+E+/dw4986gE27bc07mCqXH52Y3TlS66666666666666666666/7R+4BCkP/K9pget+Bj99MpHaZ+JEOpJP7A3NreVwPs3B3/St/1qAhNlG6FtxbmGCBCrsTA3n+o03tCB6VZfAIh9vJ4AhpRM0Sb44IGNCXgw+/syvnubRsSdAxk+eH/1ruG71K5uuAUuAHEzqoMYV514kJw0ESdCGIHf4xx84mACdxbqhsO5ae/aAQ4nF5aZDRVMShq/GylIAIwfUQEi76kK2xP5Vv7DwL2wnW5f9+XrDsuvc2cf/4e7Y3n+uuuuuuuuuuuuuuuvVfT9OFIGpgL+IK6Wiu6xMQ2oE6t2yI/9+BaFXdXVIF/n2JMABnKBPpfAZd7fg+tzF5bagTxSCqzk28IQM4lUP5+///8SrLHNpb750HTSSpvilwexLBBX3YUOSTL61P9o2QA8EIW4PggoKvWZDitC/or3L25mjGHKW0wKsKZLyw4l+7aqAFGE2FWkwt//bkC5ThpNDiaIpv+pcwAJwWDA4bXzQqFfLa5hznOd9cWNQADMhQI1nvFPbli384dhlJ//nrH+PtT366666666666666666666/7G2QNZIyAdVcNJb+/6QicMj5JCxZc8LnQ3dnLBAMuvE4PjMrwKk/AXtuWAPp/MIhpKzyltrt4EEcuuEVs1T/5jEIqL+FZJqfloTO4FpRmiBM3P7h4AnAKjVJEg149BXG/+8ze+xffSYN8oBlFJSYZK3IAFqMY2aSBL/3cngBEQFBqOlOVQO/Ug9VUsp3XvlzhH4JaUZi7MKB6+GG2ZJ3/1CCslb4omx80QgRx6cH0vrWsNXt69dddddddddddddddcfgIlNMD/F/JYrjGCux/80E9IqS0RL4U4GvFirQusoT0UqESsoR70dXrz9f0wAAQCvYPk4ZbeqAElCHowfVARN/oHRDJF53V0ADBrzhdIJ8KiFbSIAYSoIDYWq0+Mv/Xvouw3+Yds3hqiIAAQAI5BQFQM/B77sBNl3D24vSif9/CRPBkypaL5hAIAulnQG34FbiK6H9NK8Xw1G6R3KvrL91hKBKmkJGVLFz/0YpeYd+KO8ADsERYgTi48EKgoWdIUiilHgzdk3iUquuuuuuuuuuuuuuuuuuv//wwQwA8K1iyIXfgKIAaqNL6mfBX5SkfvazBPZLHAeCv42LxxmzbTa2x7gMScrb9fXGCSjQ4kaq4SNwER5BY5YYENZocq3FBDFBhKoJv/sAIbFOdYneqmRE9yIxi9GEeLmn1a0GMtdIZ7DuCyKzcoC8NYLfolMfvoAIxZQKD5uJSDEwr5EO6JW/WHYaWhpkACSf0hBEha9uEAijcsVpXn7ANiMYGsQEqUpzwNVdYGrrUCtqyW39vYYy+ZJYmxztFonx/r55J4B/E3l7HUFsfPEn9jvF/jX91FdddddddddddddddddfHEwHwHiolzxoBSf20/ROAGQKqKcPHDcHzItux2oooKdX2vek7YnE59+BdkWK1F8gCySjgo4aGBRWCTNxDUhaImmPMB67gpF+yA0dVMLZWg/bSMOSJU1uj//pESZalqr2wCCnZ++8FQRdMH9R1imsuW9BCNIq2JP1kAocbWTBowuME8m91b6/dgvLdqmeYYB7jasUvMkbpMD4l4yzTptJ1tfAzQUpNqJHN/dg8YTIepCOxX/thAOb/wn0zrlgxSf3fjCgvL63fzwk442AQ7vp//+l9ZrLQjSXXXXXXXXXXXXXXXXX//8YIYAwEL+o4v/cFRnouz4FMlm6F96sxkBmQk8lxhYZMZFMpFk9wA/lm0gMXwyjNRNv3w3cweWccP+eo46AhmCXVyBwmpATgMIxewyxOvfYLD/VRsaHFmP9W4FgKbFpEixF6/edIAAQFUKhw4IMGAGQjUPamAakMMmCva8jnoNNwXMbEgwkwwalKPUCorc2OgWIUrjgoGFBCQodh4DxQfTHQyAP2o6jMABqAcLA5av4AalOI8Hk3KEvjRE4fWM5eIOcFvgZwLNnZQjgv+wPoRUZwNTzzKCLlF0Sriab/v0hHF138/vBfnge6njI7OAjNx2Y1pX9UtYnTM0Y+MGiwRDgw/1X8EFdqukp5dddddddddddf3GZz2FHvPALNQYiYdkHQdYHaxIjeNj5A+nywG6dNmC7fpFOyw3k1bHYOttMu/739ddddeY55/Hiu8XnlztfJ5/+3dVUBk9CeWogOKZWO++HF80k377Q9/oNDQUzO/MJJRNJTz3BC//++VpIAyowGeIZJ4yRDHA05pLNf5veggHV1G9/4izbcTi90N7wKKSTZHe/5jWwQPTsSCqiKTUdJ1lrnrLC5nZLLDb2mAEVzqDJKRogSgAmHplsi///x7SHC6oHGq+Fj451DOYfqVaUtEE3/3BLg3MGJz1vT0y7iBhkm1gJZa4/T9LlHhCOpHioGz2v3CHM+5FF9+b/0KeavNdd34PP3eXPfSIBsQS6oC8a+N2j6bxV5i3/PsTzeBxsV11111111111111/4eJ4RkYw+GRSolsKOG0AKOcfdwD20TKb/7oLYUaWfntTzCBhmHQTUnhoI1dQAiKREZG4XAFyOOe9hXqpf7FZEW1m51NsQYjhJVMoodnAkpVMDdmvbEQtMbHA8cc5QJ8/2FgB0rjz/KIRv9otg1X4+qCAt+6nsQMUw0FpkjDbFsZzC+DqPfC+W5cJmIaBf9u04IAOvySQYWFB615tuBb4MaG18kCSwrdyuZIKmmxpCvup9wQ2cJmTV0CalA4sDJZAuA6NkRGpRj/z2TX4NEAYL4YAXUKH3xLMKkS9VgAp5LACt1JGiMDIGJbAECEXGotVltCtWr2/dlwTApaivgb5IrsgivAbQJX0I8HDoCoT2da/mxIaxAKJlDIICA152Qe9569+HJmDecXrMB/4SkLa8RfTAI0oAoqq9Mvrl//w9sZa17Gy3guuuuuuuuuuuu++uuuuuvpRIYB+4k+u/eQ5gBIAKbBgBAR8Gq3IbbVnAgBasEOv/utMiMAgOi7AOBtn9cCOCMpJoABIoB4W/Yw0VRwQgRo2LLjrCIvwXoiknDGPOGAAiNYmOYJaCCg/9wAQKhiXQAhw0xQkETO8ZidArZRQDevglnuc1VDvWJ30kljN3cQCeGnaKB/4VdgmQ9wXvqEDOAx+5Y5USr2JgM4XCGnYD7By2zhEu3ESIz9sA/PEvutn/16ADnFwdjN4SVElLTCYCFIctSAeHJOb9ES88f39psgly8IsxpdCpt0NLSmuzSxcwB+myQR14ETArELMRUAcKZ9UosSZNOp2kJPQRe2MK8MghmpvkSpk57ixqPdkC3z7t6N+yBt+6R3MfRsvfNYcQAwajksqgXBj9ZCYLmX3xSpTAFCgI9HhqFH97NYHAHCK2kiPqPEQh3PA27Dvz3t1YtHBsMw8DvmVzsVZTD4OwEDf1/9/qV3jUKP/rrrrrrrrrrrr/58YE8ZHtFGRajMPjj4fAeeYB5+5Y//sBCegATFAqzGE3wCSigf0CkKVdTMPGeIxgqBCPdKEMCQuCagTuRXLfvcBxLq0N2Ap45rpp92BqA4Nnp2u1fdOARBBLOEQT/BAWhP2IAsjrCAU0Byw7OKhVUEmmI8sNQQi4QolYEiYhArRS3cBzQG5lC0d68W5gFF00Y4aYA/pIAE6lA74UYEi+a4L4RjyUl4w4NI8e2QIDIagKLkS6YTHoTNHGKAEjGh+wvsbPWPA5rHZoTz9Y0ASNiTIQmyRWfeLL/+XkH72jfFAACADypUDUHuvL7HAPAOPjyc0aHrtkB3g70U6TDhyl/hyK320iMxgpsHADBPKBUjAW2Y4GlSTbiHggVfnUiuUHQhCWLfmWSYl42CPqbtLNCQgBQAZQC2KUXHUR4MA4CnO1OnDmt6NsEIymglxWHH4hbvUUaAAIFI7ZgD4RDv1B78xYYVj+ogA3V01fESgpRAWTZ/L40n878qjzeTCc7UwreHjf4MqWM2QAcLCnpHs/+uuuuuuuuuuuuuuuuuuuuv/h/wpiH8zPD+1Gs26d2yqR70tAf9fQR4LAUTFoQRtrIWTTNEPH91Ivfy/i+v/dg5iQcdxtooHTc/9z9NgEBSnGqe5QR0X6N01i6sNZAt3ZIcbgMDG6Umdo4AgzYst4BJetwCj//oE7c4A/KguT7tpJ7DFP5wt+/96A0BnI4NCttkcS4mHuuyxdRYjKu9HgLGIk/3Gvvw+ZJOSXbv/ZJF/mqKuvFUE74hyARaf41gkQm2gHFEmAJWQGC99UnFWSdN/Wz4C1CT/Nv2/e0ccLMdM4Awlh/7XGGpgBq0P6NbEO/sSACKAchWeYaDgXux0yAAEAIfD2lHAJv2vLqlhqrOpd2OOACKXAQfdkJaA1WqnzuKTyoO1aLhVFVV70nHMMh4NeBMcRNPH3//mBUD5ZXSAtRogBE9pTRgN7AGX5Zg7VTxg6v2B49IhiABSAjAVth41CurzRXVhXLdaQIiC59/saENvD7qeIkCv9Ag9cGvQZuToYH7DFdP3qB+UfuTYR8AayqCYJY7uN4ZBRlU5rqiSd4/6un4ILcHMHjfpBlId8srXv+U/iABlQwEBYxy9a1xieS666666666+IwB4VUnnc2Qf5FGB6TeAf37sB2KsMXFLAAGIj1+1Sn4GMWjVOqDPFVu531+7qOFAgR7RMH24yanm7gAIehCllSbZQkT+5nwujk23uMUBgIAjsgAGXDIsGGkDYFT20BAAcY2RmORlQUqvffVIn777dwB/B2SVpFH/gF4wBCIFzhFdUFmAhtMIIxQv9LdqDCoIzbLC8Kja2Qjm/v+xKoAAQACHBjnA0Ln9kgHlSKDMAsuSZ+ygytsgAxAASdBrWKYYClteJ4FIxJnZACg4lfdHEh1/p2HAqAAjKLA9EC9QJLsaguL8wBsT4Dj1/Y1SqEyEkumgDIiAzBXHfmq8Kr3Ff6JE2P+nAAxf6ovn+7lmpQj4nrwLqU7UBxMNAlLsUXNUaV/dSJES6yFr8iNN4KnFupAvE5/Dx+f8A/6U3Lx95+ogqOFnAY+AAYCPsYlHwv0NMSgdhbtpvOoBZ2xgvyoHHzaz2DUGDEb7FvhgVi4yAD2Bj3fYKbwMpAALAaECIY/oX8TzFAQA4BJDDQMltMXfwaIB3mxdl0O91Fr//GIB+UtJxIAaYoZyAQphSt/791gFbmAqwGI9CEhSl8addde/rrrrrrrrrrr/+IRqEKy8LOQhYIcLhyvD4I0Bqa2ZXXXXXXXXX//6YUn4UaH+APY0w92AM+I5B//wAtvaEl39a+YhHMCxvUgLDGUZvBrYnvQnwEgUkogSufdQs9gWmBCdQwRf/AJF+WlDBzTat7mQSwYtIoqsjf0/7uAAGSiIXoAQKSsLQn/pYAy7y2t7tosjKBAZxlKALBl/0hdQrbf/+ntgEhOnOAqzbeHFsMVEkm4E3MBAvtzAwEPq5DHkJyjS91BgVT6skAOHrPQv9a2h868D7Zpq/qOSXdgEX/VGSHJsVc6TSjza0O7FM6Xpf6XpfH4CL9vz+vr//OiyXx9yxTCMGb+Q7cx0wXAUqOE805P1zUFDnPXONqB//OgdJJP+L2BJIeyc73tEPd80/1VDNVFRTdL80ZACgqKayg0o7/2PAeoEeWOvF849e9LgACC8LUhLkTpAvx7JQDBDF44APaFgJGQH8yD9JLUOidon/uY8AAQAQildfGmATO/6xAcpq4BpC8iylKPgmWe70HknKNKzFkiNTypRV23rpIAAQEwmNFpOuAu9tGJkz7JSCuzfXNWymhn8+sglgR9YCiIuWX/bmgdUxFTi6fXRyhx67qSPf+7K6v7aBXgbQObrvTJI2EloHDkCbUQpKt9sbgGULk8MCcDp+e0sbuFcxYn1jwJuB9hT+zcv8EvmsST+/rUigsyGJkahgeqy12jtKh3/92CMbsMY9dddddf/4RFHhWTl+ADOx40WVWeGUsuVzwHGvEVibSx2nsAxoI+0PALCILmI5jgMSeTk9zuRkFuoIHt4CvJeRr/sBQGTEjg60OfAPMlBHcsASfA0VDE/ajWhLfVBEiwsPXARgfKEYxDwsicYKsIOJwAH0wKyACE4Fd+2vQEaEG4ngetgLGHD58BJ4M0vNv3NgsBlqEIKQ2HfULrEB3vMwTAEEwF5HE7cNKAYsV+2wHnwaYPGiPyMGcUFf7Se/F7xcAviZEAAIDYDwEGqAFuALa6QITDersY0CZiLWBDRa2pcBCALlLA0mbDAAjt9CgAEgyCoziMBAQvXYKqR0v2rwAZHHqWQIePdVAGd2IgmM8+cWdyrfVIkBkAfhaCbi/2oKbWSGQgzoDVqpDfPiQy2yB95okANZkG11/uQkOEPxNW1y5Blv5/+tX6/xon0FLyeVQHOFC8bQytTiBjz4KCXvB0fFujozrKAyswYFHyR4ArvtMol4JW3A75f239iYewKEWbWqDx/750SNy0H8tY7I7QWtsoldEy+hd9NmHhEoAhHqwockyQFicmK7WqjgRyiCI3X9XqIas4Ur/LoHixUobUOeDT16MpSAGBL0ld3sMAZiVAIPasmiED9zHQKxEC4V9cgNnv2poHIIhRFyNY3/hPneTDuNk7Yia8SXjQ57fTjsBC18e/y3Pf11111111116DEhh8OEssUXMiFrW9oFHZ6666666647AAiD9JN6T//pquJMzZMUzY7lwZWkB4FtxSy5L/+zkABgPVzfoIFImtBNogBgYyhZGsHZhZsdvrWghiZiNPg3oAYHo6/vQI4UahQNVODxDtAarNkYxbZi/VweBRN0Kh4qNfOwkTSIACDQQKefNQnwrw3okSWE4vVDpEyQcm3DqOkXHWZAk+CFE56Cp+cf/eZSnYShvQgAEJvSknMBq/9sTDNweXvdq1nc3D+cR1XASRHv/1sp1nWlpdQHt/E/3sk2AAIAIeiQJF8dKP1sKFZPHHalK+0v/r114jBVAYfGK+nlUUGuZNgPfUVHqSfVyyYVLnXVV/WI33QAqkWLQlqf+toFYA+gUuEfRI/TIAYvmN8IgBqFqOS93YYPA9ssw2gKVbusEHpniMrI2bHt81gUEipXpEvQb/WsBF5G0gACyCHhMYzX3kEmBkVtOMf73eJZZVBHnsSLH/3Qv/UV1iqda9wmOKyMLZDf0B4jumltX/mgdUSFo+XsGX2tGRgkzqIU9XDHwtejtQBOBWdL/7p0diBeYpnOU7ZtRoBoQAFcb86YLXokvIJYVykmwKRvDXN+4bWNYnvJYXd7+cgNexB/lZWBWJ+0Ex3AUHVjC7ZakH2CJIgCJmFSWCP5gx5BIZSeG5S79Cx/XOqxey87Nf1GBZaixN7wbTmRe6/M6gDDYKlbNCL//nIdOBTKiBHzxYkB/+Eia2OZKCL9W8gAjwEe8AGIAXtWFlELBItc7H7/vriMKwTXXfGPToPqZoP/2Di8sFbsrVmfHYCQdJvz/8DtqUbw74sX/4YtghgkzjqNPu0CywJlcBtRsG+wO/4OEzd4Vhzc4Il++eDUCMkOKNELkrHMYDKAGYEhCQVJgO1Whfs1jbMb8QBIfCSPNNTGNEj5zqfbBwTP/7lx3cXd9wa1xCKx0Q6vACT40QpTwftisk+wDjsM6VTsxTaw4pgjlGgDzIA4ZBXAAkmc/DCMSRbfLLF2oGFECX19EDkSlTMt7+tosjwAQMIohnsRcOsTHBrgI+3VrLmQrAsk0AqFf84sAAmDf9mMc4TnW0TADwrEJgBQwF+tWKZdwQ8qRY7b9fpE7ud+2G4SvSVo996AjzEYI/oASEwRIxd/ulwoL8aW0DJ4a0CMUAtUg5ACy91wA7SgAKdpMSooEHgPvIAKQIo0P/eHkgRMa8EQAxTdvQFDwerpQP9KII4c1OLp6z6hFDmkK/AAweBCylz5UQSQJOFrDV0pEKaYkmNpwN+wE+91wTCVTmQjr4CYksL933DhhxPDjbAAEBQG8P4AN5gQd7shDQB7u0+GVFEubpAkidCEzlE19caZcXe8ld/vh8cQYu8P/w9uvj/66/wMU8PeNILVA9HONacoFDX3kZ+5Ru7f0SiaJNPvyYs8p+YpyAxtQCSQ32vGO/udA29idLcn1sbImLHygUtc4QOqk6SCbZhFT+ctLk7O4NRoqyk4IVmQX8pgr2G+M62/qtywZm7st/2tsAA+e8CuPVggywdEgU1jmv9c1wHjKmJTgFAz65RtGEQ9bfdZAYbsyPQ60bfYgInpqL+KS6/+wwabGIYAB8OFDNTh+6fi+LDe893CuJy/+hlArUi3SppYAh3aVpLrWc7MmkruffDrrrrrrrrrrrrrrrrrjsBIOk35/+rq/+vcAJ4zgeg1rCS8Z5sKintQ2wOYu2AKyNcau6AKLcAmznzNdTIABBEXngLEwwTCzPoyoF4N7CPbAUTEPBXI5O9zN7hAnBwA6mS56gNhpVGgApkAWhwpKDiUCQW1ukO9vATECRGrcAc0IcMmkY9AAo3BQ1QHJA9WEJNqV5coAAgCliBrQG5VgLEQsTC+87kauXl6FBOIFBdjIJacjJSa3ZjDbJ9LjQFd/sKAjUdVE78H+9oKEriglN55oXUvnuIPAA4NnRL9xpIEKGStxAClYc1cNF10+B7/ZXLLkQkV/Q6MSbIchWSXMlRnUMaqXL4KY1+X+6BuAkrXt3MMz3GGvGaDiysJUAFQcgyffhH+BjqwQxETa1Iav8RCR1+9ZIFF0qbcMysUTyRP9dA2uG3rD2TKgNUtlgKsgJUpWBSYxCc+W6ieNgs8WH6f3D//D0p+0wYYdi6677/6u//CWyAjFPX8c924/fJX77tnqQ5VzCmIPxWo5d+ERhfQJGqCmahYtQuFn+xmMiBFeqFRdqfPdSNGl/N//2lrDWPPvu/+/LgBAUl1PHCAS30j2dcnwCmMsM4DPx7pRZPkQo1f96NpwnamZBqwwvINeNfIX+DHbC5H+MeO/Wag4y7N0X2gKVsNg2AQ/I857QUi8MJBAZV1Zwsb6UjCQY1piZouBoAG7QAAgHAAcjpob0c9bWIANrqWhyIBgXYY/VhmAJKATVlmKOVhBAIQ3Fu/tONdndz2f4v//+4sAAyVaNQTKoAAE39LQ6eAWDDd/KX2gQoAAQBQQu5CiBU4VzwPC3//SRV6QECbFq27QrYv98c8+GIMA/xjALh0ArqqKcf0DpHTpMkIPZ8AA0RFLgABAP5YAYMpB2q4K0BS4FBdABgGLiwzxskMldIAVNVjnhQc4Ad91dHzzsdbb+Yhn4MtPtnieb7uOIjER32mQAIVfeSBhL5ZZCAAY+JkdoOz7VjoViOAfgcVLCzgGyFsBQmKI3SLkAAKDYQiGBw308TTRgACAKAAQAik7eC60jEVUUns8N0FFKfV/9nn8X/4vdxfIY/xPyGmHHYtKFkMh+4752IOelE8sHnZCegbdOv8cSH5J3+qiBbYyqDD4oOhSB0dA//ww8P4e9ei7bdF9ddd/GiUiMEgd7A140zYJ6ErlItyfrAsdwHBGxXav1AcPUAWtdEyiHrq1SAH+LmuRbte5lorAQmhBWRqINtnlUHFysNegPuRqAYJ9iCD4ftCaBwPehwBEzTvqG8gAYFpJC+L6AUtxAyaymWE+3Y+hIXT1VPakMCUKf+xZEUvd7MNTvTryqL+ivojCMCKCNxQXZlol5ZmFcfFaKO/7YFwSFpcXKKCGT+pwNtAiXEp/s0JQTNbWkiIowWKicHprH7+51iacCoZhZREv7mKIelZ3Hzt7/+4/X/Cc3dIzWkwTqPRsJPi7nT3NvXXXXXXXXXXXXXX//H4IOIc/+KUV3jITuknHhmGpkrDIOQEpbpwG/JN2gZZVgzsI0AbqdhQtuK/9rR7IFU+ysnd6B8oTgRyuoBsZmD8R8ATngVtzVg6xP/rEZGT3cnMnuSDkW3kI0LH4ARTr524JA6412xBu/9AXMEDCEpVCpKGyMXX9zgymD8E1ijMMbIf+sDNAGKiQBYRCJSJI+0NY0co0vkAMWCZb5CQRGSN3n/0Xs6VgM2wZEAaBEVfi83uxFqLOpyMvXn/4CoCGh6cqHhArUkmeZoQOXgU1u5gQCXayRd73cXe999ODHHKStsyuDjAtd8MBiOUE9lqXwFHQX6Cm4DTyMuk97/SwHMQp7mHFxY1ByIn1AAu71pUDFil0mD3/W4KkghpNroDjgbVkjmaCG8GYzYkwAKtx19rWAQ4390BpA5arj6gIOesVOcRhAFvFisCP81lodIgKSQC/ImRme1dob8qoSH5Eg/ISEQ2WNqb8q1EckYbToO9xAStCGJ8AVErhrufoCCwztLGtALqAZCb3gADxsH13JmBhaJCYt30h9DUYqej3EQ1+/+KdM2wRIDD6Qo+NtkX+mSOWaz7feD0829Qj8/8vld//4eth9jqrtgejx7XXXXXXXfffffXXXXXXXH4CJuwP8X/P/z1/IVidw0gq9+LddbZWAXspLDRh/cDms4ckqvukZiqJtT93UJCGnbpSHn/tDlKYlUqjwhr//9nuCPlqmSRVsXYkzM/BdV/f/CZfxYDe5alqAr8uOr2tSAw25yU4wdJaNP9/128fD9+RRDXx+ad6Do/Uly6a7gHiK2TfVfSx9jMoZcSb6/adACWm5sCsYx4tfD48dFaTM6rsWCc8tEckfaDqpjkTFMCjHXcgasACNu5gA5kimCX/tIIRuiJdylim6LayMPXKNrp3/2GaATmt1yKe1B0I4nESzizAX1rBHAegFN20rcIZnef9H8Qi57/IbiBA0xk3G7LejCKJO/lMdnur7MKQV11111111111/8bsdyeM4hyB8as0kqFyWkARcZX6evAM+AtklFlCH89HVNgCLJ6gAkMgWLQt4CdYD0vvYd1/yguAkTi7u5O9wO5xgIHyXAdjIkDVKa7cA375l+4EQbuNE/aOffALAOcwBjE8sCwyHSIWfuACcpgAPA/8I0kKIiFwcB+4OQYsqDJCES0S2Gwe4V9reKpjftQdA0RlU6MpXv2DcBLTkGQ/b/WLM2cFa/AHP7HKAfDwzGpsYUBg9wjgBANAnSyIdgUqi5szw+BI/9d+QuLvcn36wYCYFaypMPvx4qOrRhmxj20gwBjgfPRxEfsQTp6Ursgq9dZXej/YG0FlVQlu6fexIoMWU03dh7/MCwgvOe4Dz4IU1+r2NmB5UHcmgwQAnPVpwDBTS9vAAYWAFzUbGrKIAEEiWChHWH1hGkwdPEEvD2bUZfYJD//URdmJQA1+kWxYy3quoX6t2Sd76RDwvrxBzW36gKPA63LNckEXimGakU4AdchEs8wAwLNkw1rNpl3mhw3YEHMOnVqAzIGyRHkx9ep8g811GGDWbkH+makHkIf/4egAB/99ddddddddddddddddddddcfgOpOl//V/bb6Y5/E0S8IGlez+27/BAezOVlFSSYOvn731EI/7J/trQMTJRry8E4KNvggP656qD/v2QDcAy5spqDwZXbAQniUopySCcZZx/+MBtLf//7c6C55DHbPDmUH6a+UDrqrrvV3SqOtV3xoAa0JjAa8ssBndLIfoj2fBdxJpxEwwT9xP/aNgAyKMuNeoc68wgAJJdV+7ChOyS8q1ZAPgycEV2HrS11tAu0h8WnW1ayMQAOKRNHXgP/8sJq8S0Y8oRfoEnMmhpPYJACH4fSPPFRAh36xCAvLR/oJMJH/aCwteFF6UkfQESBcBegORpCGaGoRaOtdo4zGUSTk/3+GHquJmV/vORL/bQH7Yh49vgoGeWpeK712GDX+JxCe3lkPOY6gECaEQw9m2uf3QxA1s//dvgcBrmiG4P5DtbUIM7oOwELXx7/Pc9/XHYAhSbSce//rIx/xEAjwrABXzRXKMfwOjukl0U38A6x0wZDNH9cSJtWADuDBCCpHBFwWR4IMlDAAJQZ8sX/8RxHhWBr8tg4ABbzS2DlkExBAcFP5b+HFf4IIAt9y31gcbdPHvB6NpBY1/taQGB9nBhhdFAiAAAAAIJMAAAKUlh4CAX8DLxca8q9+PNBxgmuLjeEY80Lmj1xYtBtbFusrQ+4JwhBHpf/ct8DS8b2f9U+Mqjd4wbtOo+b4d6cQyyGwLQj78CyNXf+iSF6QNwF7bxkbxmzPaBJrWNgfqxh8zc/fTVar6Pw+i8BgKa4N9zC/fX/8H8U4+477Jr4Y7hAq8ZCV7/nUHDpWo9CZfvGkEItBnOaHvxKbN/rq8ElSvG/VJ2Bv4pfz8/y3skI3f+IqvKvfqvKvf4zkmgbwPDiKsBHw/UXIfxCHgnfkOCs2M2szsm4QGc2BfrTGx/ZeMo82IM2fQGsFsmlWmTD9HO8ftQGUQwKLL624PrTwMjbWuA//9k/w/0CLqNNoc/1gff7HhCQm5ckEvBOaJeZtd39bclUyH3n6owOIaWfH//vAl/+HfneURp693DnqKPBWPCHZBiSkSej/9KnwT/VuDTSNrA7thBvwPXxUYRS/bP2xsomD4uD73KcSoca1nPgbnoZaRJFXqS8taRcZ8+llh3i4SsK4Gb9xjwIQz2rQehAfz32EM0Az1oCB8ZBO/glaEZsDltF4N4Er/Yff3hP/wPHKrgH+T8afryuzXx13NOUO3TDrC/jgNxSowAV4zL2ftCgQ8mNfrD1uG1wPG6l8kSAAyWgJsze9yfbuLraGH5dRwaexGsD/TGj6rl6axD2PjsNq62tQTzEWMlo74a3DzEt8D+f8ApvwP9wtnhPiP8ZvL0HZ8RuQbE1w7w0GL/w7/wP/gj3pqbCHo4S5iNy27xGceN+Vv/wHxW0Uxk6AmP5Q4aBZgZ1cr3urw48X7DnwuSg62mxUO1DLxGg8PjEVRx62FdRvq+vvvMfzH2PpK+CbLxHGDkrsHD1/dRXxXnGT5+h0i3aHN6ePyNgXq0+C/vclUd/f0GBC3W409CnjRn8Df03XwTREvM/GUG8f8FsapYesYBs94Csq9AfzaXuPzdOfAz303BzVdwGIwt3hw98TXztcnpL8FfNmPyo43VR3oB9pHbzX78ZkLwP+Blvgf+KxKbgPYE8GQNjTRc14/TrCACWUF4NBxe+qww0jR/8tXDvBXYQduCALaN2B93x4zGPCrlEag1eIReNadJTadJO8X2N5AXyngPvVuA6I4PQp/wPtHmD+3boD/+98XNngcmDtZXcEpNPHrr/LmgM8XDCIVvDBgR6h/2BRGBvbay8FrA+/h8ZAneh/ndRwJxaQysx5dIr9hNqj1fRYG/AvOugPR5xW4D+B0jYE29O8O38rZ64pcq6c1zw9nbN+JvQvKygiHjM7R4WQHBnvm7PkAuNHti51B4e1V5P9xIlR5Up4C/5y/N63BDb9+N48REb8Xe6Dj+HsbosM/1Zw/jh6zR2Zjx7xuEIziOm8O480793fXFaGF4Q+PxDcB/otDF5NmGxwt53SitQG+/EuDbpOG9aYwP9CPsDecswtJA+B6vtw63xmXWB7/om4D3DrSExgPQF6zcxIPh1S5DK//bv/uMuKbPYFBgW19DNc7WvvF1zVc3xh58IVYcCveUn26rjFbyDMqth+GS8dugW1wLHGDP4xGeHek1t2A7/Ri3fj59wLc3GUCTWvGWRg8NRqx/DYUJXh4FKl/rEX5MHr9adWf75xfwHhdftgf9chs70kw67C/n1OGsa3qtX+MmGb2miODJ6o1//K01jZv153PqHEUGH3S7hVut4F9dk/A7EFx4CZzjDs06o4cZs3Z872s4zMnPFLeOwW4DbpWUPhvIbnQ4Pv7EBbma7QVeytGOVnBcFD5gQ4i0YkVo/8EN9L5vxyAXffXf//zNuE/vzVAeKvGQQGJ2oDbOx94E9/dk+TffinxK8Qxv9X//6V786+cQ5KbOpKsUHrtcPrrwBvL5+FA9H6peMpEs5aBJtQS7wJ+gT+gKu4mitypn6PbpS40e/Ft5umPRU4q82cd7LSHg7sAP+EKpyUYXOSzF+HLkbHZRv/y/XnPjOIO7QfwnzQl56VhFpbPks+M8oAARKqwP/0ID8fuahg7cdQgLRBEHv7hIgvlB490eLJ0nGoq9ytZgxx4yMCruEdc5aCKr57OZd1h3+Lh/x+Gydvfw/+STmB5+mMT8z3zqFbWoCHnfx3OA/sl3mbjPKf7hrzNcOzCXJHQAW2ISWRnwL+Lx8P31V/uLsG2qOCSsoFhDYaBoYFbwf/dO4QYSVE2BNyzmR4BPnxm1Fp30J8R+zu/Ij2BMRIIv6YsHfFr9wG2pfg0eMTVqGsUsDqYQfa7AlFK0aizDWcrn4Q9YADc9s2dGrFkrKDp3oJypM/cyMmYS4zH/ULS2CLBVSBwtEQJNY7PHQHnAnSwySKDh3F5+wD66u8dMmFv63AMqTBuByIcvx31eMGyc0e+YH8CHOMDdW/1/iPf4HhvvRTvgH76sMINpFlPoFeP6igKaW+e2PyGprwP98wI3vPn2x438H9xq3ILciEhK048ZuoPQV/fYN2oD/4zbx/ozdw7TJK/A+zyb8VfEEHh+wPcPhtwH/59wpE/jhWC90HefAV1hQCPX4f7/vwh9gJ9CRGEoakH5vomfN8LMHvqWhV4IcIxgZFILECB74P7ir54IbzehQbCQ9AWl0mf5tXvA83kTXp6xBgs9s7y/GSL4/+nIOxjhlNHB8tv/wH9/URqPjajwePnvgXNWkG9ojA2fMbA6apuF+PXmaeWj8McfGBi6G0UWG0UNuXQU3cBAvDejvjNuX6ruG+wn1Z88LQQhM9x+wT4zZkZzFANW6kbnlPD8y2qDnrA9W7MWkIMxJMHefvMT2gL+aO8egbNQG3Zh/gNnDY/4F8/j+KhpgpEnxTevp+6oHDfTzDbF6irwT2eMyWgPdWRoO+AFVBK+XkE6vQ3Kj3f4jWOF6bt5zZXYHKx9wH1GrHdmu48dmtk9Wt6gLikcbof4wM6JaGD47j8ZnvgcvTYGuaWLyyfASnntAe9bZrgNsXzNs39biiwfUQ5CCuwP/A216D0z3gN9vuEAfGW/don2MI1dgLRKbT+FqY8qY2zVAb4IntnW2QEJekdypjwUx3CNLBuaLjcoi3DG1JhviDKLQJ4JowSIjYr01+s3d2094H/Um9rgPv6RfF/47M0d4DL79xuq+IA3XYfUF5oy+/jv5v+h/48q5he9B7K5Q1yQHN95+9/TcG+CZN/B+xbgax+wzxm8vIxoG5uwPfeXEXqBfWOJLC8o/s3W1WcZjBNsBAJ37g/+0tjTY/wGxtw9R/vydsvfahn3TdJE9XxbwXHhvGQStj/JjPY/vgQvQHvqKPeUb28fsQ3KNT9Af0W2Vkr95eYWEyxee0f8DW/m31gbYtpu5M9IHTA3r9L3EH9C14QgG2mbPcDfGc4Ny8tjNw/K0HLq6CoD6uAngCEzeBe6TcgOtr6GDeirNtBPU6HXQfQG1u0BnieNUrUwb4DHAZQGo/Y4twvIZxUBO987yXo/xOyKQ8zdARv0dm9tRf2hmnwA9eMmV/p/yZPOCmF28bXNfh9hvJYliAlzgUBi7gJ+uYEbpJluBLrP/uhLqAbqO+6u76J26itDnFaPHvGcHJOwTOrA7PoEEalNr2QxwrYHv9UvH48docbeGT3Yf//UtmuQlH+LR56eZMcZqNHYQ1h0euvjthzGzvmDOEYQfs1zrSXLZikFdwblDjxkObkT313C+27V2tlgJ4vs7458Tqdv2S2Bh+QAeyhvW4grSLiBGPQwEOcVSJIhk1VD4rmqAUr8HzDw3Tw25Cfexo/X3N4yWgQsT2Bt3o9/BoajBm7PRVTMmFqYruLGZfgP+JkFzjAaW9fnxRPE3AYzjOVi0RWj9dX4bXP2Be9KP3j6uOgChLqA1yi3NPoP5JrQG1fqPym1L6g4HI8TuwRRCfAv9tyIjAPzMtUEZsrviblh+BzN8ZIXj37ruN5kDwH587qgP4LVur+u6OC3rNSS8vbJjht+1FdjdwSk7Bui4I+p8pRkh67kpDOMjFZ3MJqA/hpQVTe3yP31hB89kdBi9C1BCRGj/+LV7v+/MHdeNXrN5VRnXmwgOECiBBu4P+cvE/+PJjSwj7w7xkTN5+sVxBCW00C3rB1MtPxJjNXCvryjgnup87YfTWj/3hCN+f/6i+guBxAIjOPrbl5Fdl9PD27rA2PynePyqHHeBv95PxAfPP8/f6aY8A/E8KY8VPx49DIUJtr3h3jPjtzEr+dazxHv85/t1KcVjhcClwbOg4/vQ/xYjQL85/zlUZxkaAAqOfHIXwP+8Bm3/j+Ptq8crbz0BvPewTBM2q7laA9+5pn6hoy5C/iTodadUddwPMo8vJ8T8HegSytB/H6eZMYd4ytTGopkNs3fK3d9o0KJsJzWhCELfQ4PVoe873dRn/noCDA3D75k79S991qY8qYxfGfCPiGoU8ON90HzucXcdnLA7t7XeGcXXB96YnTn8MRfwxf7D94dPSB7X77kdQ988TQmNGLFsH5s5U5EzcOHq3G6Q6anhq+b8C+4DvGUSEPmN6t390KXo5B9FkQu4kJmpYouxaxOh6zR+W9gjex+F1yAWNuvN+nUYVFV4Pm9gkLCeAl9ZtTf4MbvlqHxunyf4IwIOMgnfZ3uNI2YdN3ELRUcG2DqUitR/nmrwfqHaaDoUgY9axNoSuD3q/PtSxAaSgDnBSqT4IvaAUIJgMCw1Vq/ssjYOayBVAAED6mBrYYk/xcDl0MGwvWLTf50ACF+JjSbugAOIxAEPAAzwPAdiz/pYA1WEiI1s9w4wLE4AdwQ0mMdvUh1gPMgsR7wVIZAAOBIKsLGQnczehvsaeUX877DeXZBzioY19K1MJpnM2G00RvWwzYVRon4zYRfWfth+T2gPumZpiizvgy42Mm7v42OT/vGijx+kuIPRjPx9TTtrZO1edE1gfO+V9lzxnjRuoLGseAWRphy2sw69ZREQns+uInoD/ZEXeaH5LaA/mgk/n8R4jDhTACBOozjN2i1FXiHf/zf/qdYJ+Drweyf+Xh72GeKno80KhohDKWX/MuD3hvIVAGJ+qE31q7jL3jJA2B9+7iCewnsCH4a3+OwsleA+gV9D14AbpOh+wo70Bf8CXjz7KkB5jGqo9Yx90vjJr/AXbFfgLjRbhvbX6+0LesA2T3wPkLUX/mvjqaCzOl5NEiT6bDoHH1n+Uxmo/IkfA+3fiYTbUB/s3pPUIFGi1jVrwN8CvQ4We0ztrevgRxUAA3ejF4RyLAK8ANEccCETgbsLCkqZIdtvR/rfBa5+Ag1bneWpk/BcfsZ4AKCPoAA2wF6hbKXAAlRgAsPGHA2alwOQOBygmKiY8Icyn3HeRGk0eCVLC6miPx+v8wcJgbCAxmsDTVAha6fP9lwGuY/H0Au04PVipH7/5o3gWiET6ufF3SeNYF9TA0MMqcUsHWE0WQACEsyILwGrTYnFARBZiLC85ALLgAAQFIYAEAJVVzJsWI+Lhl3AMAiD02y1Y/r8Di90BFmo5BapP3jtd/RhKBUjw85RDcayF2fHhz/P5/C2AID6V7e7NSNd/+MXMNcVLUhPowR8fo5Wj10wkY9fB//zgBB+kHs/X7P/snjJhaqvE3wE9ymmA/VI7A2kPaGsfDEcZ0fvneYPquSuH6WFwg9x+8fOeA991zsCy/cEHxOc8BX/RYpRI8913DAZbyr01t0BFt9FgdoEG8ED/w/AM4BuI1OfH964g4mcCpEdgpkkJ3hzBAhH/4S9QDAG2XLBWAJ7fgQZGtgLQBpLCz3jwAIg7WKQAAgCAAUBUJBgxEvpRa+04EHPNYwix6dMuAA/P4ZZCy0yJQzFv+EoARofCXcRc96bAOcCCRavHihOHCSHEF4a535wwChkCjjf4GPNjYi/sAYwJLIs6A2CKn9Xz57Aa8AIJVSmYRuP1/eAgOihPglKeRD4SSUsjeKfECEYVHci9Q+V/6E8Ag1X/f/jnmH+vf//5/P4WwAiOpaNi5qMp8XJ/w1xkCF+A/7TWwPY4v/ncp57piA7I+EBZgKII9wMym/9ep0nHujTBRrEGNIeA2w2kH+b2q98uJe3xnVLe9/S4z+08RwIt0fn/y2gPlxA0BfcJoMImvs79Amv/Aec9lDco72fvX0mHD+JibUf+vrs/tZyqmfWEdDF4m+li3l/rFUIP5/P4T///AQPd9bhPACMlTMUfev/f6LcT3hbABlU+UZHf3HOg3GGVxjv+GuEYbXTIFyJm4b9Zjx3pjsAm2xfV9/IDZWw3ICX//KVo2U+MpfjUmp+s4Ru9Ac6TDg+opxx3v1SWZcfH1gceTfAY6lbPXM58C3xmBUTMEK7h9y/xmFrAyvV7rG1ugN8FJDw/mTHi7d2LcmDvs9/yJfqA8+W4bvQdc4CYUsw/gtJ+wNn/kLR/19xAfezEyfwgKYlAKHjOHHSANB2oUKfWArAG4MFCvpRcKRlzDcGoPe4wIAYFn3xIhehAXnAA/DCAAg3npX0br2BPwG+9gf/7X0Pnq4O/MnwLgBMAF74zB1ecHFmFeDnhYCwfABZviEinUicAcB4/7e30ZXpgKtSjE9Ln4Hurru6ygxD5zYE2B9uBsGDbXaStFAJEC9jIAhHYDgDAPCGvBytbKqgAhUwADt4BjLrgAPPh+OrMoBoACcsAAjUWglLYrGUqne4Szvf7vJEWAAIFQAAgaAAEYpoAcB4IRIIEJVjk4f/5lWV4CUrxvx9A7mfXUnc8CXTw+4E3w79mTIshKvQf5WHeU8v9kN80f0bEXdMheMgLv5/y6XHOA1t/QY9/Y4/SoYtgFHwytP4u85h+rwhqGFvDLBPgtvxSduAfstfz3t/En4EvHxnLfsoCVNB4Ndgfg1H5Qd6PyBDI8LwuQfq/wP8lL+bXlhDbfXAz4k9JbeMkBoCLKnF8oMO9FvGrA9fxnPREeH+4vwfB1DNVx6aYm7k9fWYE5IjUBvdbtoXuOUfSigriqdDZRjb/l/PGmKpzxqqr70Q7x/+YNAXNDmTApzxlK+DM1iW2bG4B+8vQBzV4W+4D8PopnD3ILmEnB731gffYEHcaHbgwwsYQYhPMenxnIB4Z8UpYk23r/Vm9jF3gb9+Sf8fLiuwbOIegJaHkEbcRleNddgX4OYrGlpR2f2zCK+Wtl+eXhvjPjoIVRqPwHHegPvMER8DQWMV/cP+HMg/O+rhaz7+gRugztqf4D1PML95r/TNu4//8t7ed9kotQPV+Mld1jerTcGGXxrwP9+3GAwV4LNlEUEWof7ZuxJ64zA+8lDDoa4tpIfLqbKL9JfA4oNnrwNglKNrb/xmC9AWvhq1R7+dDA3NhGLL2XVsvX4M3fejNYH/w42rr8swX+d8V1wCHsveneF8ZqYHMz2gPuYj+A3mJ2j+6uItHJaAsUaf+d91Rw/tMG7MQ8BE1Aa4jFXYHyic0B9x0uD5GF+A+oRN2BKbxnBqZa6Vx74beds/VYtUVGBowj4EDYghEzmYDzYghJL4H3PD9j/jiJvOtzNeA+bfE6HHWXX5sgkXnZfmHInQf4N8dIr4D3aGJ/ILkQtV9eH/B5iGZVoDJdrLcX5aNwtR79QT7OnmW+PG8Zz0/MmNp/YH0abfWamkfA++uPMgeGe4270NjFtm3D7avHfuE9rw/vxV1dw/9+JznwP5/N8BLLBax2Jb8V/a26PwhX+ZkGDiTAvjOEACTx4DvVaFZuas7Cye8BssmeA9+eEAugw9F4SGO0Soa8j+AqnHfwPlxIaH7A3kWy8T1jAW8XBkS92B7n2F+c1th+Y9h3jJtgVcJa7A/6kt8xbdgCoH8D+FK3DrmvgSNtorMCH/4ffumpqj/hkaNcvOo43HR4PpK3BfrC3n/dOoZ8tamNRTF8IzDU+ePAeWlIcDObAjlCJhyj12B4gcf+kOJHAJtP7P3bwhtziZQAwlr9f7BDwAGlvL+LMaA/W9TGRsD31uB416g+lL9FbzQW35t4dFD7msjYwNc2OtBwwfxVsZAYR49L041U8H1MDoBeC3RYuV4yPewTuC1Af7MwhoZbYHu+XOH2hE1Q0V1G4jRtYfD5QOcgmzI/e4b0ho/b67Vs4hiHgNsZxU0/2neAtGFbMvqcZTFVTxnEMOpwYkBI9UHfj3Ee/XJvlhnuqu26QIPw6GWhrln6hF+wNfofDXm6DBrsNuLSAGC6ByUb7GZ/jI+CgQdHPewSg3x9Ps1/duYGUX7gWvxQMD6rH/ImtAf191FGSmh93zHj+MuLNneG+CY/Xh/vufLx2nraBjmj9NfT8ZASvUf/bdAXM1FbKDqZMP94Dr6vX5xL2Bt4KLk2LAUCE8BsoAPe/6DhfBeE3HNRuL709lt3x/2+p8P9fjOoAIB90Hegwb/R/3XYNh1BAGe0p/J0WrrO+e4hGoO8DSqMOv4Rf9x/Tk1WBe3G/Aa4rAAfL+O6fjq82BP8tQAMXWB9K4u8f69NeOSf5upu7NizNHjuM+PNC3wD91R//gbA1gQyxBSq8Gn/ENYX+Ry21uBrat0vN8YX+g31fxPQSYxI0B/ocAuriDS1XHsEhsHLOBghjiuNUqqDyY1yY/Gb0CWGfwLndlelQ4Lt1/8dgihy342UvjfRSaFDRBi933/3Cdmys4JczfG4unyom2kblQ/cutGVo/H8V423/gb4NglfH9xUwPKTXi3lmDAgjb0XcB+A387xmd4zyHCLsW1Yc+3C6FDwODQQA+aPDKe0B5dmLLt8dQ168Djkzx9rJP0tZblV3SoOtDHCMU4LmIv5j+AZ6jkN/Xgb+9xiXQaRfCDcQ5h4gIEj/wcOufHZLR/8lpBGKTWUMjX8Ij9eQ4XCDwOcNfO+ff+/fUBq6k7h8jdQkBHjMF6OyuI9ATwrVvz8Tm03gZx6Reg4BPCAOcVDG9gd/SJBvC+H6LAv7toA9SYc034biGOMjSY9UmMPK41NWcfkUYOcR7N8orByI+gJLjPhV9HjdnLfH70T2jv1z9gbvdThtZ4m0+sD/7aqsLHNO6G3lO2B7taHFeKr5/hvsOzwjxkhPABsGr/3P//oSfwIb8ZLv16wN5/1nC+203a/w5pfo+Pt43f1cZtVwiP1uDBcg7j8lmDuuA8TxBnsor75adFnmThz2s4OIuwtgW4q0EjFWyX2CN8+ZFtBDpu84ADvGbyGo4AIgk/QGm8e9h+mgg0Rg/7ELY/YGC/o/5ouKLjEff4H1y3oXBRYA4ntPBSn8bIPd5B0DAfhHj+w2O+yM8q/8KZEY1D/dNiFwtLd+91HduhPRH1y6vjMB6P/vtnvA3t9QYL/Fe+4Ox88wlQWJ8kfRu4roF+kaP3nYi0MvQHsKwwZzgYRPvx3w8wZQsbwZG9orGQB3DbLhei9/97sFAhMApT9yITF2vw1Ai1PNXn49DgMA5mnxHA/Gct2CcWwBb4nr76Bk7E3f7/6jw/4h5wMebiuCjBkiY97AwEcHV2gzdSDi6uw/ADAAEBI0FgpvNQYLyZFXTlJ4yXAXrMvmmOCmZ7wHbme0Ax50AmgAKx9LxsD95pOON8QVXoylII+UkMX3wPojZD5UxhLk+EPvXBzDtBBPGdwAZ74Hv/Al9cH/+5H9Ez0eD/SjwfEZBJ2IMrnJic3rrRAcA8EMH7q/97HpCXxH8C3LK2eEKJeaw5kCGN89k5AgxgevfiwITkDt4T8LdVssyMKG+X+WFNRrGAflf4z6f/gWfwp39/ezM/fld3JjwxzRlpQxXZP/mf8J8VhP5/j7IHCZ//OLOvJWjzT18fxkCRuox+tQv6H7G/SZG7g/7A2DBEHsD/e8VuPf7EbhvvqmCM0D5CeA20Fdg+Gjv5+xRra4De8eExcS6Pl1mH/Yhtgf6qnx71YhZBLmggHju8kPR+zxB/Pfe2PvA//WTW/3/CcAEBFabi/yBb/4HOPsojf37gGsDtOBcr5perXErdQ45oJxeulcLlz8t/34AD8ABIAAICICxmOvIubMgWT44SZQcJ4ACDZjlKQhjHFSpTf/4PXNQIEDoMUlPLDcfXaYelhQQ3jNmMOS0Rx4NBEz07gywbbwAA5H+xFfiyAXbuf6OH2zINT0CRIo/H06D/fjTQRPP8sT2Bf9vCDxuIv5tB/4zH1ALnpszDB/+e/qz57uH8/6Zcf/SG8Bjh9gm9Bh3tr8b8168d/uJtQHvGRo3A8Qc6rBflqXeB8/ltb8D6vXi5E0B7NmHdXYlo5Pzu+x4OFhJtQhwjZR+mSAK+WmjY7cEITOP9s/6/qy2x4fGQncd5TXw1IzczraLM6kh/sPscKgA4h4AIqojYDIRigRIrOEcUsoAaboD2Im7P1AyANSXwN/f4wmAAEAVK0MAA4BkHz/NZBxELYcbD+B5jMzS+FPwn8KEAAEAVTX4ADQXHa3AQXtbDzGqVUPPSmYAwAAgBACAAjMX4AGHPu6IXjIF4O4KFJAgTSHzkvmWe94YD70HtLoCsYrIV4zWOO9d+C4U8O5nPAW562B6hIeP++rMOXNT9AH1BYshkaeQ8fukxNdB343iHUO3QEB+MwfwH3z2x/wP9bk0wzYGP3839yuX6TNwR1Wxf9Cj12H//E7iD92b04CUgATcGVWBK02cYbIWnjKoiAd68e6q7BNIXtBXzgAHQF8b0Bfngy6rxx/KpaKHyDAPgm8fvCCu8BorMNheXQDI7xgcEqLAjeEZnB9DoJBheNjzQuaPErUBPbaHvA//z53gPxi2QUbxkRajrqUmHXuRs/3xobr+5mT94d4rCmK9O8bobyWY3Bgfr7wLmYy09bqHD3EN6iNf9FlJS3e8Df+/4yywXhN6A+oudoXbrOX9dtDN5fgNMRnfrO/rPcAjxB7GU9fA2Fo8LWGEn6A//4wl3wDknHB6bx2rr77f+uwRViIJ1ogh7H5DhE13sFglQdSjx1MWYI3kB8sJcXEFEL8ZNnE3kP5v8TFgcUtIbBIaHSA///pFy+mDu3zIIau3A6lIQQxb+D//3on1QG0oru4/dRsPw+9UV5L/XwloFysePmeYdn4yEmrA+uyqz+HmBnygu2oOHmfA/lrEPSpOD7TWAA3bWqA7i+hG2z1GXGILfjNfOc3RD8FO0Auwn9eGvRuRhBMj1YfsbhPODf6J/A2/go8vzs55C337c7Q/0HYGeWiwJITzbAj6yno23ge70XwjATteA/1W0VtbH+P/8miwd4wnUNeVDcRdq9NM2WZxbTNKrzngPvjaiw/GXAcCVuAh/Yj8N92wlH0MO57jFEmg3Bz3gLEqeh+m+Ny5D700b2f9TGf/cP/vhM8bdxt6tH6zUf8dmtG+52C16DcQP6UWqAjarD8HaVRkO2BMG40sAQ3/xn19NcmJugNN1Zwwj06la1MVFDDirq7j9bZXc12Fm/E+EoDYJ3sDf8v21vTBwT52JCQd4HHgzi40mESKvSPT/nvtaS5qOEaA+7w4VxUeTGuTGRvgYI07/8Ie5dHQXjIdsD6pgbiuCOoKuoN1qJhFqwNPsj/hy7TU93R1SNcHxEZ6Anh6dmOVW4f5hBwxvwE34+Oz2+0ho7ZyZOvuX4NkoELf0/hswBrkEltB/4zVwP8dg9F1ATNOgkYGGFyFoDo1tDsGY0r1mVq8P/+cGOg36g09QfAbCDAIlezrfWcf+EI2+jNxB9Jmq++gmECT9aL/FtF8DJ8BLzaXFErWB7e6TDzGwAERzR8oWkgTdD/XB3gb9/4yOV51QMeAl9H+uINcftnoO9n1IJF+BvEXJdbU1YH3l1tC9aT591F/4no//03IrV4y27sD/e70GGK1jhWz9gexBTr8fhZma9T/36w94ESGLd0P66XGwJnmYFylw9YtcqyvZYkx/vLHgPMOnsxZkz1xmpTFVTKC3qGBI7QEfG2VtKpMXV3oiG47+Bo3y8fTd1n/V/jKOE5lmj/9UEH/osDmkjNianyOp55jvIfgf/7ZeRfiacZ85nwNqe9cuNrA6ZsDRnEXIaXnQ+bvwuVd3Ungg26fCebD0zj9MKY8ZQMI3BIhE4YMEaRm3k7AnJFuDE5nh+wBi4JNyvAbwG6zXAAF0WH76XsAfjcIA6ifieQL0lqevUcpDgelmKkqcfdiL83+ivweUk4/jKYqqaD4hbh/1dpBrsQ1hf7xm7Y1BwYXL8Ok7l484MChQbjuTN8DZn9R5S0BLyzzMDQ7ggCYuK68ZaMQmwIp3MTH/4P2Glwp4AZzZh4ENXyFcIYErQ1YHoRK2BP01sHmKfgw1/4349lDQrCdZ4QofRfG9Ds0tfrA+1UuOcztMTb8vWYOH6imw385yi8XwSfvxQLGIInQQi/F33+aHJpaoZFQQTzQiYcYkxcLfIULf4uCVsDtwYsCUs/5vfxdyNyWD6Ij2wY8uofP3A2n4yCf4F2QbOB1rwAHMACBA1nOkx48WtIs+Q2XSitYH25SngNqkzl1bh/Rc+A9GmaH+Isd9WYqBGVwH9p+MhC88//vuAbX6wM7TY1SF20yHAmjVH/9/GfwPvQlw+BvAaTBg+q49gwv5osYw4OAcFlq/8dTTg/sgvQHy+qMGE5rQH6fH/G6V26L3jdfO49c0LfavhOH98RqUxVUvQvKBvNFphAwrWL6eMz9H3zC9VfB35JD2Nu5TQG1yvfAAsgGAMr4G+7xHSOJilNgb8QzYfWa2C7CvyQwAv0MD6GU8Bz48TfAZPXm3AMJIT0v4zlzDbCXNxgEpcCV4R403IJKRoABFgOBNXLzcr57MZYG0lfF/Y2NdXfja3QH93HjIdRXTptPEQ9D/FEXeP87jagP/8b0Gk1A7aN+fsGvrzD9n9hOLA3Af/UtzXAL2iNx/85c/P/68Zm/H+aU+CaVsH/mrw3wiL+BXmxjWYRjFD6ggC3tWv8nhesd7ND/yphcmNAA/vU9R+PTNxF+bMj0KZfLGjBvzkfN2uoap4vo+PnXrAmw57xuPzWj3DODpahvUf+Bq7uY1bgjfjvlTR4/X5aHIbA/7NBx3yivQ7Cpn/0h8/UACuWzvpZRNa8zHzP8fKGA0aLjoJIiB4DZZFeh8+p7YG1Dgt6D/fx5oW+8RuIbq4kR4EBRrdifXH/xtjdnPmpcE+ViF5eM2IHDqKQmsDUGmeA27FyDVJkNVbhwLPd9eZj5n+vMx8z/EaLwZ0sPyS+HSX3//cJuA9c9Qh8J+W6ffIRfyhE3GTTzqnwijTX0VX896AHJ34n7ihXdx/33qUxVUEzcbmQvVhiljD0vbH94zJ8B/wbU9Z+P5YwDuEdmwHIeQp30Srwm4Df3tbA2gleAurKHGWJDQaZHxPxNSD1aRbLxPSwvX1AI6mCLoDTf4Q4R4clxTPFIwT6GhQzYNtjuGG7O1XcMwvqOXQI2sDX0+MjkTSr43NEK4SICA7V2+/cCI/wHuWjAmRGzfdwf4H+ucg/p+/4XwfqUn61UXHdnxlM8G6equnkqzh3rnPH4ypg682A9TC34DTr8D7+ivgM0R6A28xA1Af1Cq4Oxr4A/1WHvN5fj8diPYHu0tW7Nty6h+MJvP3rk24Pn3mma/cB4/8cVVaPTYKfP2xQsPXuPZ4HvoZz6YU5PhApH4ymXbnbNzg2Z06vgcFwDxbv+B/T83Ped+ULQJbh7CfA/7aXqYHdpvzZGezbh8XjItuw/Wo0T/GMGhgOx4g9DnZiN8b0vD+O9HeeL0KCU0CCTXwOw6M/j94c7x/bYv8Dn88XqccQj6A79VWH+y4v5dS0KvDeLjgAMuEQrBbBuvATtgJCRxtfMaFz30X28ZBG09hmwXoYEDT4aktB3M2D/6Y/XB+86tr9gfs7A3T/AbRMq4D7KuQQFetAe62waONWvLIz+B98jxmtwiriLXHPeO28mfsdiWU6A2+1lDfZrQF8hX42kT/s26HJ80cP+UF/A39bN8Ouis7/joCFB7B9wfGUz4J+aLA94N9DEWII++hQdfBbpt+O9fM0xvcrRg9/haMXvDHJ8PSLRJF+PmTBxLqHo5QaGK1mhVBex/7ioztiny3dFbjvrmDOWVBwS4VAb/4zcQLrMBj5EbMLV4Jgk/4H38uwhu1DhzbAAwn8DbzAAwfuhD9Jhge+iXrgP1mDrA77BK1x3iYg8A+Lx2oDV+x2s/b+c0viUV+Aj+zXz9RGnB+RNbP2gqYEwvmwPmgrUx4uZsO61wYfTIrEtaO0xVC0vNHmhb7/LIovN/Ix4H6XBms4d8oAAAACCTAAABE1YeBAGPAy81g4fZs/F5UI4elQD4/Jqwlmfec+MzSyRPEIWBPTtKCHZ9vrTdxTXzt+b0TB4L8IwSbfnC0AUmlh/RATN5/5nLG8VHAuaLxUZbNB1vwxfi1xmPgMEPS3fQdBgStZo1frRNewYfQCnR7n+M/YMfAwCGES14Bh4Ifrf/8jeANdWGoMbxkdjfzSJLGAHvwxn7BV41/iZ5FkNG7VgeOClKg/F448xgZPjEtSZeXQPHWId4uGkzsKtDXhG4EGqAgfhDH7o4/V9PUgVP1CD6A8fqsu/HYflu695dY0Bz6CHa/O+AvwrNHjvQg13X4ZSenmUsvhXCI3S8RM2FffAsYHuETbX/k0GH5Xnvk7ZELDnuCP6usgvLe34D8Rrj31ioICUjbXsn+PmDl/aQ3gGevXgLeQqSKgqkX4znRQicMNLQorxQ3ul/xs9LxQaJwAaH4yYYE2f6AmDDSTA0CDqsMjxqN1APV66SvCAv8IewfHWmNwHxoTWQfvK0iDAXlzLLQBWGeLmkaNCCBwpNcJr8ZjAMw8Bv6UPZhLBcPh9Fgew4Nig+M46Gr8QACEBtb/1RJtti8g2yDG5/iPjIHaad37AQDx2QZxF8sONzVAIfIMy9j4+PQXmOG3LN/DezJn/GSxoF4yjiwOhRWww5a6H5EF616TH6x6jFxYbr69pQDZlh/uvLH4W5pIySJLx8fjVgtPXiD4IhkIMOyv/jMMouLYAvjbmZM7uD6Ka64TTTiRufoIMFTs2eSOiaj4Q4iQfjk/5ZYcSPlH/xlCgm7iqJFfcIePvv868qIZCLahSO6/GY6HAQ3pflQnBfyBofAwCkGkGC+FObjwmvwjGpvwyz9A46WKsJlOn3I4IH/jOtHLjIedLftgPMWLgukQ7VaJSWKVIJfD/7p259FCXJTZ/RY7O+P9EZeD1BDYC2nQKheCENvtfwXxlgx4La0V2s/qAPFUKvN24OjY9DcctTwAHX0CxzA8EJ8I8OqHgdoEqohIj/gQei7n+RN1d47Yg+f5EPJKuAJ1J4QoJv7pHSvQBZm4b6L7SCvH/NFw/8MsCP+Mj4lbJDwXzpfAj/j/vN6Lh+tAFLZGjTo/ibBh6GKD7S6DxkExjjZBDhKHEA62BcqA4AAw1AOvwhwRJYZ7WhMlWH258Chjj9On7paaGKcCOHEADjxc7S/jLDmoAOgg4kwiQKhHK+2+k0f+A1gEA6IIcZxl6hlLf8Rs4Db9SABvARNeBk0cF/kPeGeSG9z9heEJ0YJmjk+pE0RDhiZ8PWo4GHUU08TnDCMkypCjRakKKwXg7i4dmdUFFQOCg1QDOuHSngYfEwi5bH/l2kRYHDfCF5Bx0ABFpbEJ4Cvr8JsLMjomvCAAmO4yyKs9VAGAdSa/EesB/QYV/wIXsd7xg+i9/hB9rw3xmiSYDKIZyAOXkshDBpm73AUf8RoLFWFbgMcCZihzPgRpGg5PA/LyhkPQEuM4rPEaC7pulrQMzDbX4zlJDBo6o+BJA6wQfAX9wFqZ0DBmgg5xVU4YKqAia8DZvxhgf/E644AWnT2NWKEMpXHxnFfIXMC2LGB3/iYT4X6WujVEYOV+06exIrYFfQc4rgn1Hhu5Y7o2IcFD2YX+EOG9zR37f2QnLwi4H7a+daVGcZhA/9VUu4hv3uh6HH5xaJpIg8/+Jjwh8cIoVCjH5sssO8dGRNerGZwAaJInsevfcdAIZ7oZxUMpQLaGg0z+mvo/icsfsh03Yd4QjwCfoUE306W7UvFZAmgBW+3RIcGcJxosYvjcgJu3vw9x9kexMS162ohkRHniM4yNAB/7TI8WJpw/aRsVCNPmA1wHdlAKdsfdBYGPDFDvCUfc/MhGZFgzINz8Zxmgw9gz1Y/3x0GaRZdCCNwIN/L4fT9w7xlUGfSNzE3pf8GAKlw0//wyhQQ1G/xfNQZ8/GeGV9GUEAePAp5gZN4/jwuIZQTfO18TDSeFsF0EM2YVvoOmjhjO5CqDP4vlkDG9lFMiqXoUwMdd/+FMsuiHSTLJMuFMAd2+Rpv8bllq4qh70l3AzxU4RGEL8MZ34zuXH4LjgGARlA4Ye4fHgKPUvn8ZZIkc4+SXjImkSBYrgAE/jr1U2fL8sRgjwngCcaxI7rrw9peXYUy/gu0n/xEUDFA+GgMtY94Z4qUqpBNgcMr2laAAfjKqd8cFD3SrBDLwOA7QzhNx88Dmx7BTwlenpj0E1TI747OfxOOlYphKWdc05hiDIYg/n8/JqGuKpEB5qE1Og1yJiuy38ZgGkiS+GCNEPoB1GJdx2xqCDcC5OBuAvMVBI+dSgk/n8/n4d4yMhbQXSfxtqVFRSROC1ICr0PjY8vCOY8HBo1L8MXrfhIxTP4YhE/E1z5SwVHV6Blet9tidEL5vDSDAQc4Rj4tkETcRdr448fouF3tAXjUpiVG7xnwyhv3VngYN35g2vAALMnLYT1X8Z2qIbg449BZwYfw3ABessEmyXBif7q8Jne54nim3R7BklxPNjxE0XhLTkMr7i8VCuCixD4nYOH4l1EwVw5x8fGmi/HggRaATtRfhGPgHPBmOChj60GDLY70Px8ELYB1/gJOCD63/ZSP6RABYJ2l/9/xXFRkRWgB2Djb1GgCWgB8I4wAsGNzwQSCKfmLk+noriB0dbAAJu5Qv8ZITR22V4/7K990UByhghxueZEgbg1uADGANvLnlkkG+Mpp4YSeo2SoY4Bl8sVRYkACggm/jI0AI0AWND86oFegi9DvLKAAO8AIYuL/HY8WP4+MmpTG2RzgvhKigf2Z8CM4Rdz16LDt+3x2G5nwPUvkyGsN7n1fdiGCgZUIb47NIJ2BrlrLS3LDaK/cUWH0Ny/CPGBlQroCAOGW3cEwquLH3kOUM15S0Xxmhtx1kAi8Ya157+aXicbKVPOXaFBksUEEIHeEepAw+v28I3D9ANnngXhNwINGcVYWG5/dCWW0WHJXrwhTQaf1oOxu5b6+0xD0O7Duf+kvmzaMAYBVD1DnGR0eXpp8cYFD/oYyPgsMS75uQp+/7QzksHnODx68ZqntNAobSG/Z4poObRa0sTIvw0lfUF+M4CZqz5+ewAXBrzovBPoAdjGdkWE+B7VVCeGuMwxueA14CtB4JHgDrlDUNIvQhpF6H+iHhNeMgh/NJC7jcALw6rCwrzc5DhxgpHL4fzNg260SL0NfiaaA8lPAHWxFvIpxHFW+O4Sjs64fxoHmOCG/joyNKXpL6eoOL4rDi2KSV6zXldqh6hnjIflt/TSw1ARNaPI141j0sz29z/CLgVpO6GEOKhnafQOGUPavl4/4ZXtVQB0dOOtLHhiKeYY4RlMjgHQaQTfyyoVHARJZ8XiAp0FCeO4yJQyWPzyKi/jIAoI8ZYNMaFZxjKoCeEAVIIGojdaT1RYqxKoS18fLWHFsVBxfEL8kIMVCfQp6kcHBvEyRWljWvAODKfHjooR4zahDKK2Imf1JZIlAof+GYpond00roqgXlwlwPnWDRwQMLcVHRDULGVoJPWl4yPmkhvAW7aAcaBeUDpdNDFYID+PjakRv7e69igvyZHCPH7/oV+10tijQOCwaZhz4QqDz/zgJb7GBbeErAHryzxD0MVrFChigpzeWPivGgOAjBVPGH+O5hgP+vRMLU4qi0X446glySR47CfGaEYNYdgpJo6oSJpfL/lEB49BXgB8IWgI35b61QHPhxF51oznlZGFu4YhkH8J8VbQStQ0BFqiZH/GfIHh+1+43PS4rwJGoCBb/4Q8P3/5eZCMhLCXNw+l8P4nQUCb8//gAY6Ux1MtgwBJgwCbzvdnw15JxS5DXLbPLG8Zh5LL6l47ZY8Oq2WWQfSRJZ9x+PzoiS/CF38FyR/hKxDJnxoTXsXi5DeOligmDQYqpgAQ4uH4Jx3ShO5b6rxn15uk/8EoeGRoDtoHM/pdXDSmAA6HgJ6vQH/WEp0/+3gl+A8/kVoBnoBSYAPAIXfLD1/GlcMTwD5QABCJAfdawSFAdApZD8BVARfQBBlkAb8uKtg1sbnorTfAsBAABAOSyngUOz1/WCcAVwm1KDwPvgEZR6Grl4qxEUb9XrjQyH5IetRkDWEy/L3QQdhitNLICvGQ7FjQH4xcAl3gTBvHADvLL4R4MurHf4QvK5IhlD+QjwsavQxVlP88EqA78MQFvjMfjfhI7bcgrQoOnnQtflhKwDmyWcQEbxUNyP7Dg+IcNIfz+NhFeEfHwTLCqGgH8wct3bkVFLG8CuDYZ680fiMDIGQkF5EBrGyYh+GPEMAV5ICzImU6tyND5iAQPtDyJQxd8SK2Su5gVBGeW//w3F/AZQUomwyjv//IkJYj6/8eMAtSf8L8XAg9gflv/yR8JThqCHnyZP/Qfbn0Xx/MAsbUowh9Lbvkj94TcBq80E/wOaNcB3+WMhg+MiaF8X5EJznJLxkE2lv+gFWGtbdDKJg6IcQmtS5olPlc1/h7xgAwXjvmOBvc9g0aAC/548K4Bger/PV7NlHVMtb/6Ba3/n4zmjQKSaWQqEF8VzYdvaEA6wsfGQ7dJaZgNa9QlaCrKCx9dN9EiT9nBFA1g5618vjsI9d8ge1P0fPzsQ/nEWN2KtJH+MqJS0WnoVrtBqix5E+Az/TXq+hGQ4wGfwhQs8YaQEv7FD0CsI5sdAAJL8Zthp2fykHgcYeOVdWYYJcBj4zSkKhlD6dEi/nhBwa75swLqv5ZeJwQyAKtkMvXfKj+E8AC0ZkQ2ZTuYIT/z4cqqeq8AZmd5AhRsenM7wPyBogXGMTivqXWH8WePDOI80sPpaYdhivFcZDLO2lVsbA1woKFD2loEH0CBeKwAxjw/SsQZBLBovKCAqxs+O8DeAEMr8SgQ2iVACthWh5zJObHBDfx8E+1//vnH6EUfw3ua0TS8IB/GQR7mvokB4qNw3agQDpQOv7EGAvYcHRNZQA46NrwhWHFsVKbQbCHSygsCP0aX/mKBLBLPF9YKHDe5+aXmjoav+bGkJhmbFlfF8oIvQvOB5L/9YbinnhDh6WHqQmPjxKBBBwJ9NP4/jsdF+SUBrAbE7P/Dk0IJbmgF5nxG+hLePNe5lVAIPvvj2fyeAoeFw+FozwAEyEAB2p4gAcMHInmpzksgiIBgVCAkAeAbVwRB4P39Rav+BBHGHGOHEPMGFniDAYANpHmURgATPB4ACkAqbkwVBkCSTdgKEUGYDtmQrkXisP3lgAVALoicHgVXcJwwWxtBLIHP5YTOVWiT1QHhLmjh6XHr/CM8iy8igOJX3CVxnqokLPH4rHAFuMjb1AIqaeb47uKrTche6WNhASdLc6hAc/EQ+kizVuAD6RBxwkcGu+CN8RyAYBrciWgEm2Dw24a1BZi5b6+Msl/GQEx24pdhk9Kz0pPSs9J25//yRsDgPH8RGRipsVQpMUnAPSh0/wGSPjMMJYY6IL+Qm18cVzgTtz+H25//EfR5+qNPQvDiern4+dd4ABAFl8PUpQwGO9AKe5sGq2GjnrHixmTgmX+MgRagM9n5XlBGOBpvr+rH5qwnBthzxPhrMJkSM2btH+aQQ4R0GPxuPCa1As+g42Peh+Ojz1pRDI8tSBEoBzDc9Xpb2n4zGbeseujhV/CDAt65vgGJUBj4jKh0jauhbEFuOh9e0/D0r6BA20P//xgHUJmKmdDjBz8ZPL50KDYuHEU1Rpb3w3n47i5ZBI4B65gwr1A8PXF8ZMcjcAEDWBB8WDN/+klYAZcWOiSu0sXD8ZSIFQhT2FomsQArExUiB+uFBRINNdkX0HQaEHGX/fc5GRpWg9Bnj+tH+Pm6AHIfh++AcQdbLG+WPxlNFxVT5/oEyHjVEg84QYt9eE1qSxGz1+awoJ/zsZOLkMgnaA2ugxn+c3Z5dcseLFFF7jTXZ8AAAAAIJMAAAClph4GAY8DNy7U0lycML1H5IZX7frljQHfsH5tqY55afPvlx49MqDBBzUKBC/n7qeuI2EHrpPhxajXJYMdABHfJttN+8N3FwGuTw7AufeH1qPXLTMP4b4jD6XX9KHEjnl25yD5OAZfjuE/GBQ2AQ4w4wxydCD61C5I0B3HwjxedeGVqLSOLA4W5KFm0FPF4QOO5NF5XLvh97C3H9hhpN4H1+3/KNBpBuvy7aaDCHJOBsqAM8nHnzwWd4+T2AaDHc3jkAAjcI8NJ3Yje37gcX18B00XoeC0H5csMbzcbEEoIFPJxl+pFqPdFQrUYd4ukNDr/YEMvkFXLpsAhlEMjOTzaHuWAhbsD29/xnNyqECD3JYgyg6dCtQDbiLBjIACdCp96DD3JTaxfNQZ8/CWUEAdPIB/E+NPnhO8Geq8IzYF/deFsBDvwN8KcK5fxuX//CmEooovx6XrpZ8z/hXLJcuFMA365neFmWTMv9ZLWS8X06LqFMJlcgL+tXLVy/Vyy1fhdl5OyydlzD0h9vBBBXy38K95l/yx4Dv4/kwQupm/iJWmQ9ZwxllHvDPCE0vywx8CgKaDReEofbnxyqfBVwjYQwMVNQiIQyECHDXAWG4FynQYKCnl2EGlqDZg6QGn8J4AEQfqm9J//xPcN8tMN4r/F40bu6Ifbn/E5VGpBwwPYYvk04fWomGh+B1TxcACZBhFBbFVRyuxnbg/BAOADg4F8SJs9VxoBD5ByPQAX/ABAx6C0RVyoG6OnDVjDjAAOBQIKpjZmJxuAABBXAws4D8SgS2ZUnPOZUr4CVkCruAYADyqYNmgPn+tEawHG57Ssy9z9943+AACAgAAICg0N+9YvH6StOfKxCmhwp/h37//ifBWsMsDD3hQNEB4Nc2GVqP5fjoACC+KsAjJY6Dh6FH64Rn2fEA5WAnSOGE57nexDK1CB+uLHwngET1pssjP/83Rm2VDTBr1/N6TT6cnl5owzxFNPpnDdDHcnSb8f0KSlB1FgYoGGQ8WBviWBwdLz+ZNPp6ZA1ycPpWvGcI20vCZI9fDSDz+XDiAdf5M8eE8AIGm0jN97Dwsn6J94lh83ph85wQ4ce4JmDnj+CASGAK9CwAx/aNEP3QgUBfEQVyvWOLvsyYBWhsB5TUaIVwZDjVC42R3F8in+8IcsfGTGXbD+bAj3n7qfmn6Q+iQQwi5LX5/4mD14NlTLAzRFAxWsASiP4QgAOwIAGSnxr4WgSqO2Qm//B6EAuLQUkMVkMpmZt7+AUCCC8O4knJJnbJwt/ioGtaDXnhoWK3hWFU79BAMqCPqtbgjGdQlXSZQl+TOazhMRIhEDN5/ieHEvwfHQdv5MHS8O+hPACK33e5/w4+y3+FsAYynNpl6l+/JD4vDv2CYKf//4eW8f/8JTy+Eepfl46XZH+P6U3/CfwnCJGl4SOl4QtlQpgBC+naZ6vfkhF/h37+XzRhbvhheowgwzx/BW8PHAGL30v93AYSRNLQRLfugEEW4cQusE14M7hDXZxT1e83DiXw8J4AQmzLiM9Xvhx9phZPzmHn/iYPXg2VMsOKBjFArxUNLUfziA/J0GGVqAhBryf4VB/joegUMYAOODUmVrHZZpJXhQOOgI4QBygALiAag+ClL1khegCgMOIGVCkymcyKX1wBjp/BqQxGyosgFwAAIAIBgABACCidW9B1fywopRLQUvvFYXDSUUgpaZ5/hbAQf+PT7ETh/4b+wt3YQ0Bi3hE1NGT6aRX/sAEAAIBwb75wGfs3SH/9JD8AYDnLAipVplIXYeNxW+SgEQn/+clHgxAABAQDGeMFI8q9L9eLBUtcCYhQhZ+4LOBD6+QABACAAEAQFyiUC+0v3M69l4dBADRrDaivo7TRKdR4HwAIAAQRGgT2TQDylR2hm0USCeANF03Hjwh4WT9ALJth+E8AIvk7aPV70a1uLu1v5aULtzCvN5ohI30/+H/hBgw53WWn7SwmRIf/0OZCRPTQlTfjIAAQDA4z2F1qatDx7+5iw9ZUKlqbIu8AAEAiAACCEAAsNresAyq4fMu85e+oYQupeVhq9Yn/zdFjROTJQQGbyoi8bEt4QvWshrFLOPSUGuewQAwsOIlSpbdxPm49JQ/AAiAACBYAWfJoXAIK8yeRcCx7tIIwSLuMtJWy4XPcWSFbv20DMgAAgBjNLj3qDH12Vochc1Dd99N0+yp8EFMA3KnTY39MyKyhAoTwBqq2o9+SERh8TYicAr3x0IEwkfzU9PppFfkYACABAuk3hG6PTOVGkh+MwAgGBEIizWyljC8ThbsG8IITREQ3fbwAYAMAAoNW8z/my9ZPlKChx5CCA8xahgFYsLXxOPf/vDwwAQrrrQE1Sco1Vx4eOAAikFLASW1UDbhICYdQ9AMAAQDgAwm6+FspsLGqj69eD4cPhgYlxrODaTzlePAxQM8DFAwScW0eBguxHXbNMoU/zQ//5ZowxTME5vp/8P4AtAIAMbmmAu3JfwFSKHJ+RYUAijIZQQBAA4mE3rG/4Z2BgqEC1GtiV6Ee21g6WoRmIrEAlwAgHQAEAP16GciDWz5SIYVSMtiysAn+9Abmwy8XdIRxz/v7wJpBvCMjf8I/wEJtI+JniTuYAGAUOV2MH4CJuJfSuABfAANvqKR5jroZPvsAAQDhuNHugMTgUN9sZUcIM11ZwCEaqf+E8BvXpR5dc11z8XdrctL4KDU3h9PCX3tt/0f5owPaIpd6r//g9cRrxRS62///P7DwEHEw0BTCikBYGUUgBtIACwCnz1EU670VpAAkph5MuKPENvREQl3CJymeggwFhc/k8PAIH8TK0g4xOAAIAYN2aFAXtAVBDmgPAABP//xWkHkAAIAFAAgPoNvQaG40YlgHMASgABCTAE5+C3Srxg6/+2+m4m2CIBbqwUw3tnTDkr1EX3isfLTpNY/i5pcMrUUWgvJx0f6grAufz+wdA+xP8KY8G2g4/hPYBJKCx4sYLyWDD8PwHhg/n5O8xmcz5tijoeARPFeUglX2CYS5YCXdgXL/4HfNwBCxJN1j3hY0ShOUiz3AhVuauOlT/mbAciAY3AFEZGSG3VllwYAqhaX7HqQ//f4QIc4MeYAiBammILwUwNBIoqULaJy5xn1hIgBsABwFolugAoCw7vzvAABAgQAAQNRQYrrCYU5jYemyEATaAfgAGAwJgWRaBmpGMP6xdKN/xgAYAYUCSHUSXkltRkJKNZTn5u/HQz+WGNz+TlwJfYDXEuPwnwww4w0tR/xOcAALDgMO3QOgEPrUGJ8yXYzGo2Aw2I+CPX/UCQOMwFD0l3iZ9tA9i3dY4f/HAGHUEoozxoS95v4VtJwDWBEa61Xb8UyAoigghmSz6sEN3EG/7wkD75d1G4kOLhtAGDBQpxeRRnixa5bBwQPrr/uAO6gmAfm0l83fHix/Jw4tR+TQFD6WGu9ChpN57wyvUcRyU7cJcsZA72gAP3ASt0Bcv6XF8RTAj3rOz/QKVFDHL4SOD8DHc0dFgYH/EU8dEpgzf+TDsW34IOWH1qN+oG4AAAAAgkwAAACsWHggBjwNnNtU/LTwIX8/9YCjk22m3yeHFqA/y7c5B8kPpWv4OeXOvhbkoWBL7+7AIXLtpoMIck4ayoACScngRPZ/6wFXNyqECAvc3LIO5by9LllXgnyU2sXzUGfMU8H6JH/fhTDjLf8clrJfrJayX8J4DDxUhX4/C/tIWTJMtm/4T7zL4Q75JQIvNQKHFqMCp3lUYo/n82v56RxcACwY5DyLSjGaU8n88EGxxVTblquz/9/oDJrvWnv4AAEBwAOMvShkpPm2utG/0OtN3edvBk99Vv/7eCg/n8/n4b7pp4w/n8/n4KD+fz+fgnP5/CePgqDguf/GBc/hJ3Bz8FB/N8ET/hSAExNuICTi/ylg5TNNTx8frAEQI72DFMX2j+yOY/uh+nXF/d+fz/uCY/n8/n/mw3JjgnP5/PwUH8/n4KQngAIyIzMiIjMyI//+AA4EKJIJX5xllJFNrk/n+sE5vn/8P+gw30QNYftXbWpf778n2AoTeEIAgAGALICFTJkqAQ79LPeQVBCwmYFR7XEO0c294AAIDQAOKXTlr9mD51wJckXJOIQfm0IuhN7DICTv2uggyABTw1eQkZvAO9iaeQlZ7eD+gYcs7hZoPgp5PLLzRoX//JjtOCnjMoIA4dQbz4em/9B4aRFMCt34wIL5qTWBW7w0tRxXFeUglX2CYQJ+XpJiDebCX2hCkABoyhZ56e3ROZxRs5DtrG5qe+8DAiMz3EgSS7pyX2BiyHQxYzAsyXEI4/Aw4oDc8qKUjiA+N4MAYgBL//BTlyKMXyaAobXqBZPBzBeBHC0F0VABbCZzmHVmqW54BGAAEAACkoImxqF1vB79cDIDwh2bS1P++4E6A/CNHsFflDJOXwyjodQJX/MNnArZnEQjE8KclgUMrUYJ+SwZvgh5eBC/n7qcBuAAAAAAgkwAAABtWHgoBjwNnNtUwU8m202CLl25yCDrlzr4Fjl200GAV7m5VCBAXubjBo/L5pBPkptYvmoM+YqutDS+Me8sGqaKD4T7zL4Cp7yqMZ3GUfwI3dNPAxn4Kj8FujZo4Hw/BUfwngAJCXvy582ITl/4AH660AZH7An6+DaIhX0ndvEzckHV/wngBHb6vOd/qHhkd2Hv+Ck/n/UFB/Pwmb/2i/CuBjruBn6ndWCN/rBBLAF4c+z5nF5Zv+Fj8JmD+F/wnACipzp3vfwNmXk5Igyn+8ARApoMJTwgbZOKtlJFQ+GgABARAdhwBweBODlkizBLGsHPwzzUmsIGaXya3wn0DMBALmHRLRgJCtxC8D3dBZvdQC2wABAD5QADglizlQgSLFbJhpccpl0UiJPsQv6TAJ9Gc8ZDMl94M8uG6Zwilaf0vuCbivKQSr7BMIoTwMZpnwruSXc+Jm1Ho0deswIuXpJiEC0CHQrGS/hOP/kQZvGK6z3/oE7gABAB8mATHQ/f90CScAEb5BAA4Iaw5mM9wU5cijC3FRlE8YM5QrViUa5VRR7mBcSHmTFU4sJWnQTIAsHfJYM3wSQAAAAAgkwAAACLWHgwBjwNnNtUwU8m202CLl25yCDrlzr4Fjl200GAV7m5VCBAcuSm1i+agz5n3rhfXDOuMNw0yxW2Wpeg9hTvMvhF8G5OGXvh0Rw7lvGmj4nuTDLLfbgJTvKowKXdNPAORxXljBikEopBNcv/8JQhZf8I+vxYKnAH9iZFF2Jt6BGh1fWzRv+//AZ44qBRxVkYgiNRpDZMiPOe5hN0/8wwEy/yW2d8Nc1JrCCsPRMAezEzAKBa0VA6/Px4E+DtBfIU8lryz6Dl7MDrCkdqsFQnwTcV5SCVfYJhBrm5YgIVj4ZzTRKE4E9/cCFW5q46VP+ZsByIBjcAURkZIbdWWXBgFIiH9F033+kwsisCwSJKtQ9+D/uI1PZTur8GHGcvSTEc3huCbhPm4Aq9NwcmgMYAlCeAD+zTElj+28Po0cYFVFIawwdzZWAGMpCnEdfs//+FcAE7///+AlNVs7p4f//z+fglCeABpB970EVUF93gnFmHgomZsBfwSBoaq6cATqKnPBSBtI3k0jrCjR38NZY0Skf8W39gw8K4CxMzMzN+EMxN7kSP2yu/P///P5/PwSG/jcNyxnBSOWwRAYcETpE1DMKgPDQSFiAiEsQ42bE3KE6wayACZPTS0nv3/gAAgBgAgKLl1PAMp/EQoiuyCYcJLG9cL73rfJko6OUP8TAEoDfLD/IcAA2lRKlQ1Btm63cqu9dLmGcGcZu+/G9/10AB/RGlZng/vtwYef+fgigAAAAAgkwAAACi2Hg4BjwNnNtUwU8m202CLl25yCDrlzr4Fjl200GAV7m5VCBAcuSm1i+agz5h/vMvjz/YNRMkvh73cuK4e9oMt8BMd5VGBS7pp4Bu+LyyB0sLAwYpknAyxYGWBwphxPN/1MtIj8ky2b/LC1csDD3hl4Z4vwAXGEhzqIUeso3aQTBtGAfEDcMLm3AIXHi8HVh4GWBg1LxYZYGKBwpgDEObCUjcsQ6DX4GP3//n8/hPAGbrTdflKtb/wwqgZueWPi+bKch3waEefz+E8AGevR4JjvXv4ejxzlHAzd/8RFAwsHIpvY9ZxvcdLH4ZP4TwAE6bdU26f//ACvyhlIYv6b8pOaqvfgANkzaE2Uqsyw0Ms15QPYPm4YACAAEAckNpagkcLD0Hvk2HQu8AACBaAAIFYB64mjmKBY8RzQYowDH/3M+K7LFeMfl3b/9wwIMFd8FYMYWSAxLjFx4BscQIrDIFN4yEKmhjaqtjyZUCfOHkDpwQXgOSrpi+RVt/wMvBRD4SrUzt1YwWSIBTyQNyo/jOK8pBKvsEwihP/Dv3/4T//jNz/hTmwSLXpBYQ0GfjOXpJiD+E8AGj8GglK956vB22RLQJfv/gA82ijV+3nD0DML7rziajEDpuZU3MFJ/YGEJYQwFyAHQ1xaay/cX/uGg1sERstIe990BcmALOlAUQVKOiCX/9batPHgYUgS0umWLpOH3CpRwGFwgAGA4lNOYVA6BiIcRvAagIUDYKT+b0NPnrCnwACCaAAIEBUrogPhyLhfgGYqB38YA0UHFLT+v0vJR2PABggafFJSFJOjiYWjxv/YCM5xW3ojO9w7/rjWneTcwQTQBQR3yCv6JDwXghYWN7GVFd/OBVBzioAAAAAIJMAAAASxh4QAY8DZzbVMFPJttNgi5ducgg65c6+BY5dtNBgFe5uVQgQHLkptYvmoM+Yf7zL4Cp7yqMCl3TTwDHc3hv0LYARVXKZ99hXLJcvJcvyjmP/4uKGFqigZYHw97BQFMAII9NmzvheHapfwMcx//+fwnh1F2f43c/4zc1y4e0uCY/n9wccBE8V5SCVfYJhAn5ekmJ5fAA1HrEIfdebeBUTwzxMLgjFQAi+nZQ7gggjSBWghRb94EsxEKe9a2Bj6AFIKV8B8yDtRMggAAQFNucABdwOw3Ef/4CAQ04FxaL+gGCE7f/oCqCEPivgCAGAApgSJ4TNC0jXmqNAG+jwYQEM9jnJbX0D9ff/vAQURBLs/vfboQEWmtobv8gVH/uADA1FUSO8GkSISbGZzgBEwAAAACCTAAAAD9YeEgGPA2c21TBTybbTYIuXbnIIOuXOvgWOXbTQYBXublUIEBy5KbWL5qDPmH+8y+EOaNNH/LHmj4CY7yqMCl3TTwBG5/5YACNhHQAMDwrTRIcFB+SlAfCIjBkB2vGk2BK0gwYKT/3ZSoiD32cJ4vivKQSr7BMIvJnj+WHqZ8KBPD6Rz//gDNq3MsN5ekmJ4mwwWVgePAJn8iNVdgiEj+fz8Lcfgh8b/315dwSCT/A16sC26wABwBYkrnIbA4VW8jpJNttYR5IClJbX/dMEvqrhjQqGAHCICgoRoyQXR4KMhF+0AQA0ELtE/p5fUhRXxD7synMYOtHDF6d+1g0gAAAAIJMAAAAbJh4UAY8DZzbVMFPJttNgi5ducgg65c6+BY5dtNBgFe5uVQgQHLkptYvmoM+Yf7zL4Cp7yqMCl3TTwBNvFeUglX2CYQJ+XpJiT8FR/Px5/4uCe6N4YuWIGPyKNY8J+ocVf8MoHMEIGk2AAwMAAQEwAHg552TiivVk6qpQJf1yayNGF3ZZv85n8EHgANcME4gfFJ/UG8O3/+D8AAEBQAAQA3CAc9paoKkj6teTkXABlwY2x4lahTX1YxfT8aE8ACD677v/8BHmWO/5+GzJidT8TZIrLkAwWl9Vv634AAEAIFEcngmt0gVmVXn8GFnLFCrlIwGV7ZTvOHYh6JMtOf+O/B+AAIURKhuey0MPkklaUM02TnE/fKiJCSkIpYf84MItohdDFW0sWn3/gUWUCpg95R+3SAM5L9tj/U3+out6wr8CTHoBcHJSZiilffmhFUSD+7Rk5LzxHBJ+kshanvx5IEMMgXh3j4AcJQC8bgx+cCBUgCQDw4sUqprGEORKG/wAAQEAAwsuXTNgA57iGkER8wJYePYABKBQA043YgJQA/OBmCcALfGCUh4KsksVMS1p/hEAAAAAIJMAAAA65h4WAY8DZzbVMFPJttNgi5ducgg65c6+BY5dtNBgFe5uVQgQHLkptYvmoM+Yf7zL4Cp7yqMCl3TTwDzhPACDfkhq29Q6tb/wSfynLBMyzkz4Uw3lv+PS+ulm58PhT/wsy//iPCmET3Nw9HkuWS5f/5v+utVgggu8t8EZ/P5/P5/CeGmW/82hXLyXLJcuE//7t/P/EwtXLDigYYpgoGgpgIWGQqCMLhHwSPYgAsI4qlUtKLiT/7uAIRFR2I6Dq8GAFlRooPIFCkEkD8liTIAUBATwbAVSroPzoUGlPJHcsYk1gmiSPfWptAABAFCekHidK/JWO4ZL4v//WKHB1uBe319JWVBwDaCILC9pGAfMTFDYdfA4gtEIhkYYP8HvwpgCvkcb8wrll3gtpCTL//NuMf/h+CvlvwpgCjTc34OS1kvy6Fr/1xfhv0DHKgnDkeBwngAhP/nmZqN8DH7//+E8ACI/Vf1//8LUHiYoGyIcA9oPfwS83B1YFw5QtgDIq+N3/zwrlu2GUYSOF5baLOJD/+FfFXk///4TwAIj9VvSf/+Ho/x0UDFAxQMKVChX4Y9/fFeUglX2CYQaPzLB7yf8HGP4Ayt3S5UMFubCcB8AJo4hx2QyY9gUAB02witzs6PQReTLVaoSvj4mAA/oA2o5ESwgJqU1sMPvV0ZN2d9aAA+cAlC1kZk3AhfqvAQAv8AgwqRGUr4QQ6NlgDYGv61P3eBJ4GImJRe67/3sNoYCtKVtoKWssWAAQzwAEAAIA4KgMs4V0y9ksCf+3mL2AMoOPD7MS5at1Z84fc0MOYHD//D2N+eP/Cf//4L4fjIoGKBigYoGKBigYoGDywUDDgHkHvQav/uKGD1n8vSTBKfwngAzmmtiQ/938AKOr9J+7WHCM5YCHYCCPXwdPB2TzgS/xEAPVL3AlbACAAIAgAAgDjejjcXFCFYshhFkHAeAz+Q0A3iUol0HTjB0EiXwhECmri9EGGXwIQHHEA66BADyAsAuLX+RiYE0rGIRO8CAg4dP5+GIVmwAOjAA9QQEC6RZm7RMXvz8dy8YGTDiCAGHHwBlB/HXHH8nhhZyxOUDnoTipThb7/cwBw5mDrIq/rlJeGGABYQqMe5KoXJDyv8QQeFwiLgSA1IWCniEyGNr477wJPwBPJzJGwcXUfAXBZA+RaqMzffmDAA11bdX3zgEA2JD/JkxBPF8J6jV/2hMwIeCEbtiHa/hHPE8PgZZxngGCDUnHsDfDArkaiZcgw54AAAAACCTAAAAG1YeGAGPA2c21TBTybbTYIuXbnIIOuXOvgWOXbTQYBXublUIEBy5KbWL5qDPmH+8y+Aqe8qjApd008A9gUwSvL7Ly7/wY3fB7Nw97BOfsKYAQenem5+G/pLuf4nAEPNHRwf8XJEnABxMfzI6sPgiDkNvit73oMbzsORYHCeGWlhXLR59+nR//n8/n8/n64jD4BqJTeSAeZH4ITUQVF//CUB4yOmAF6BwfomP38SnmHz5WmnWAUEuASpXKmgzY2yxeIAAQKWMAFGBAkXUOEReAGcUL4Ycz//+HvmADcoDgSqL9z4927U+Bh5/CeH01P/+CukhPACHKPsIp+/5v+Ho0Efl3BZ5E6PxEUDFAweWIPwWDkNyo/hP1L1//+XivKQSr7BMIEB/J4CZg2Ac54GiI8ATZtJjzAUGG9yGPBtY9c8SM//eAGAAIAZYUAmmCrVG+SIYL2sB4AAECPAxAOYRAAXEFFTqWE6EQxrMbQzSgDKRa2MP+AH9DbX/XN4Q3NJ8vSTBP3hxEn8Gx+CsJ///AGQbWmD3+WAASzJwgejzjns8FoHDNyLHAa3wEgFIQP8xuFsIGPCIAAAAACCTAAAAH2YeGgGPA2c21TBTybbTYIuXbnIIOuXOvgWOXbTQYBXublUIEBy5KbWL5qDPmH+8y+Aqe8qjApd008A9smCrm8sfF8GpeTgZbTgZZOBlvF8sDFA8UDFA4Uw3lv8LMsmZfkzLJmX9YJwI4uVBnioM8WBlgYAqsVsiU+r9sClICw13S2n7/qPA5IJE70n+D4FzFC4CvgAEAAIBIAAgKdZedAChQBOdhF94IN0DhQZIl6BU9OIAKugAP+YyoiEjNsHwiDBQOXvZBwaBmMohTNxgG4AK0kEm7lRFm/S87kHfZiWZGQAT1hlWpkSkQSVhoWW9ps2354cNn8/n5j+I8/z+fz+I/Dh/P0fz+fo/n8/n8/n8/D5/P5++IwYpkDN5BliwMUDQZZBlvHRQMUDQZZR4UDFA/6SfiIBsUjZwjGIAncfhHJpBKpQZoDDO0yAeqUJd+pzxECsBmtU7zCd/ARywABAfAAECYAzV+MAulLRJ4GGCB+QAAgEcFAcAEKiZFnEBiAoiANIAJHMAAQCRVjTgZW44sQKwAKkwAAQqv+DDmU3cM3H+J+AYABGaDy4AAgHooYrqQHWmBrw/FiQsQVW//JBgQqarhnld+xcBivpWOi/1rLLAffO5wYUX46xioYu8t4eBA4KGwdx/AQnNw+iKc/hP+ff/z80AAAAAIJMAAAALRh4cAY8DZzbVMFPJttNgi5ducgg65c6+BY5dtNBgFe5uVQgQHLkptYvmoM+Yf7zL4Cp7yqMCl3TTwBDNb5o9KoVBwOp/P5/P5/P5/PwRH8J4AQ8vmmf+tv/HOJEyzLafhPAXUncv/wV0hdk7LJ2XCmAKOSCUr8/wOdSxwOMlAdLKA6WBynLDlOX8KYA8NeIqrb/Hc0Axf3ARfRpoI8/Tgjt+il9Gmwn+bcNI//4T/D0f/+BlgAAAACCTAAAABLYeHgGPA2c21TBTybbTYIuXbnIIOuXOvgWOXbTQYBXublUIEBy5KbWL5qDPmH+8y+Aqe8qjApd008AV5zYb9dKfz/yc8vvyyAuH4mAAAAAgkwAAAAQGHiABjwNnNtUwU8m202CLl25yCDrlzr4Fjl200GAV7m5VCBAcuSm1i+agz5h/vMvgKnvKowKXdNPAGQn8/n8/gAAAACCTAAAAFMYeIgGPA2c21TBTybbTYIuXbnIIOuXOvgWOXbTQYBXublUIEBy5KbWL5qDPmH+8y+Aqe8qjApd008A0XLxpMYf5vAx1R4vk4ciwMO5Yo3iwMsDhTAFdN6fn+rlq5flqFVwtggfuMK5ZLl//+FMB1pS2Ny1cvVyy1f/hTD2W4Uy8kyyTL//CmA9JSwWZZMy/OdEJn/4Uw+nm+PS10v//pybz5eFOH0f//5/P4f4jw34FVYHgbsOCwOf5/P5/P5/P5/iFn8/BCfwngD30nc7/GZamX5yZEJnhTAN6bnmwrlkuXl2Jmf/hTDLLYczpTL1Ms5M//8fFAxQPgg1gzVTeHYBT6D8RAFcg+slVqIz8BuQE+6cpWcRWoaDAGAHHBRC6Eby/0gqW9iKFsAkZHOWfnPK4AwFsBMBMP39QAgAEGUkWBJgVCq4pMCUGHAIRAAAAACCTAAAALKYeJAGPA2c21TBTybbTYIuXbnIIOuXOvgWOXbTQYBXublUIEBy5KbWL5qDPmH+8y+Aqe8qjApd008CVzeNe8Xx1YDFMtOBlicOUKYAze/hWv+FmX5zohM8KYA/N6uP5dHpa6X58yfM8KYAy/7u1xuXq5Zav/hTA3rsOIyTLCzLJmWSZZJl//wpgO/S0/FctXL8tQGtj//Cv/gxu//4nwVlhkwaaICmYd5uHcsOrIUwBb09TP/DbOl0uXT5k+ZhTADfc3oVr/DrOlcvy1BXL8LYCJ7n5+Nyy1f/CmCc6kWTQplhZlnJkkyyTL//CuAnf9+Aq8j9///n8/n8J4Artqb8/8K5Z/cTMgtpIUwJ2s4f/z7CuWF2WTsuFMAUfqb8/8cl+L6dF14WwARW+675+bQZu//ug9/DHNyyBje8XyimScDLRrxYGWBwpgBvub0K1/pWdK5flqCuX4WwET3Pzh1nWrllq//NvH/8JY17mrTpOy3wr79//+I+fwngJHrfn/zbgrpC7hTAH9qOj/xmWcmQ9GS5ZyZOTMLYCF+n5/nzIjvJvhTAFfJzfmFcsV0mXYUy//+IigYoGyWGgMsPLP4iDaZIMt7JcNBTADdurYrX+AcZLwDiqX4dqWOKM+FsBDvwN8KcK5fjcstX/wpgnOpFhxGSZYh0QmSTLJMv/+FeF2X///P8/hPAGc21MTef/CuXl2C2khTBGZyL/8LssK5Zdk7LJ2XC2CV4Z5/wrlgtpGb/8KYAr5Ob81ksX06y6CzL//4iGgMsPLPg9YGMtwQH8J4CR635//hXLPmYUwEy1GcR/4zLOTIejP6cmTkzC2AMjf1Ov5tEzIUy//CmAM55OYh+YazpZLy6CzL//4iFg+HlnB6wY9wS8RgsruPLAes/cY98BWhTAdSct/irEJnEJkFXk8R4jxHiPEeI6rVYID+fz+fz8F94BC4AAAAAgkwAAADGWHiYBjwNnNtUwU8m202CLl25yCDrlzr4Fjl200GAV7m5VCBAcuSm1i+Lh330GfMP95l8BU95VGBS7pp4J+bh3LJct4vlFMiimWnAyycDLeL5YYoHDuWFAywOuQXACTMlYflpIlhQ+3/+8YTTAGCNWUQHaiPOnWYzp5hha/yw792AyPYYa6nICLxJTIdWAAZYHJ/gQYNkLgGUjRskQWFg8DPAwAeBYgwcHXnVGRoOSajKvmDKcHGviP8+rti5Vp598KsBBT8fvVnYnbYYC9cocHpqZh7m8kvF8OMt6Bll5ckvyeSS5JJfyYae8T8/z+f+I8/hfmw+B4HVywOFsAIN3taN2sOs6FHnWWoK5f/+FMAV+lp+F0Q7xCZEu//CmAEH2tpi8cMiTLxRvf+I/oR4ey3h9lvffL3Ifz+fz+fwnhllufYejC7Ldsv/4UwBF93fa/GkkCrRYzLtx/+YXMQEv/CUCbAAEB+wwAAgFADAZGMVeIT3YBQAwqQeDoInPzSbq4VgIXYAwvIMhBXEiN0usyrivAK0NoF5Yil0PieWnvAQGEUFHzo6kZnup5iDE92JkBdRZqXw5OxpxAQrHxv1rYKyO+SDUqFgaXyDLT8nL476FP//xmXEeI8R4jxHiPEeI8KYAER+q/r//zQCmXN/488K8AK8MiUPJSaphP/3sBoAAICJ4AEgCw9c1AQHEQAIQD0AAIFP5gBFgAOAHB4XL1Lm/jsFMmmX2DQVuqRykdXTU3/30eFfioAgsJjkpUfvgJnEA+7y8+Ff/sGsKXvvVL0E/hSLEVu+0/CVYnvySBG3971eCWsDTxfAA03el00//gcy+PRp31t2+lgh4vw7ltLlh1ZCmAj3z8//x6Wul+L5YYoHDuWFAywOFMBM/wD0/8bl9XLLV4UwQvXH8Mo4cR8ky3GX8KYCJ7n5/G5auX/+FMAUba0/NdLXS8+ZEzP/wpgCv0tPwLMsmZflrH+/+hH4bCmAie5+fhZlkzL//hh9Iy3w4Txj0KYfTzfl0LMv//Bw6Rlv4cB4SaQYy3iPn8/n8/n8/n4BW4AAAACCTAAAARxYeKAGPA2c21TBTybbTYIuXbnIIOuXOvgWOXbTQYBXublUIEBy5KbWL5s+Yf7zL4KuMsPABE7eimaAAYn+U3OA45GLxThH7+04Kx1YGf9V3EEeZbTP70Mp6eYp9BC/bC6VzA3gBWDbxfyLY8TzDCSobyDgpnamH3/+EoAoDIQFCiIp7NuQLVLDvxEIxAAwAAgHhKyag2AxCehCiGH4PCk5/rxuPW9a/APA4+hcJvZt5C8Ukn60hhwruLbbbfnKIhX0iN3LcUv5TZ9g///4I+L8O5bKKZFUveL5OHIsDDuWKKZFgZYHC2GWlhXLJcvds91Oj/8KYAo2yyfmNyy1YGtjJcv/8KYAqfIsn4FmWcmeJdPv/xPn8/D3Nw7liimXi+nAyxYGNeHVhYGWBwpgJFvRfH8LMsNs6XS/PmT5nhTAFG2tPzVyxR51lqCuX/+FMAI6X5FkbtBZlnJniXQ+j//E/P8/hPAGcNmUYm8/8K5Z8ziOhiOFMAF89J6Uxf8K5frOIslfB9h+xQFEHYFAHQ6KBigYoGAAgGBDh5kXaGzTZSL1NsVkkI4WOGqClvA0BB8AFhobbNawfhVBWI4U6GahHhL6//++RqzgYXp4FAHQiDwKhsoEawAup0DtCrCuJiqABfNMMFYqlmhzgAsAAQEzABwCBAEUJRtkU3gogFZpAAEMwEGHMdmwkDD8J/QNcgAHA8g1Ei8WOGx2kozFYmJlwyRGyYGABXESAeHWPHJpJND9YhaE2Wpu4djPUKBmEFahe3k6CEdg4b+8i/D/GvcKYCd1qqUMow4jcZYs8gq8jjLcZf/8K+nR///+f5/P5/CeBPUxsb8K5Z8yG4ydl+TssnZfwpgD8nOjGZZgNhCuWcmTkz/818eL/wlK2y+EGX8R9YEMEouKGKGKBigYEPxD62BSQA8mQBQ2id8d0SgexS8BBkn+D4PhIGouDXDL0OKaiu5E8Xo1yUBCY4bwu8AvVyCBiH0OPJqB9FbaDmzlgrOk/wbhEHwIhmVQNlkADw1YwAQCwjfLUZFglQU78MEYSPbAyoVWftwRCnoMW1bQ6lY8IhtVsKdVrXTyhpFsGoSyjYxhcYbwf4Ez1g/K/BUIbkJfUwOBPACAza0ZiD77fD4eEkPBTiQ/P5/P5/P5/P5/P5/EeI/iPDvJjHvEfEeI8R4jxHhTADYfiPKdf+IdEJnC7L4UwAiJXGeRu1/l0VeCryJ0fzD/H/CXgxXtHlk2WhPAFR8zzfgUyy6+GBxxV5P/4T9+//+fz8OcXh3LB8Dx4GUUyKKZFgZYHCmG8t/o2dLpfrpZufD4U/4ZRkzL//CmCf1H8blq5f/wph7LePS9dLXS//wph7LeFMvJMsky//wpgJWufnwsyyZl//wpgO/S0/FcsUedeNbGS5f/8/z+fz+fz+fhrm4dyxRTKFMAMLNWYvTviuGxIVo2dLpdKIz5k+Zn+fz+fz+fz+fz8PboK8Po///8/z+fz8XyYwP/h21Fc3Hafl8eDUA9K3WAYeAAAAAAgkwAAACcmHioBjwNnNtUwU8m202CLl25yCDrlzr4Fjl200GAV7m5VCBAcuSm1iwngJ3/P93n/8LzHDvF8DHVBOHLLAxQOsFpRfFAxQMASvOgHbcOCpgNH3w8DEbB6G6iT/B8DALA9CGZfAEEAPGWqQABABLAHAXfVcOgAOgPHIAAQEkHCVQABADg+RhI8qwAzAHP//+pBIBhQhdRkXMjguMjxM9gYq+ksol45I6PwGdkEt3CBoYtLXoZiwHOMl9TpdUArvU3HE1AQwC4FTmpguyjFVlKuR9xk66nffeCQv0WNiA//qEkG5bGLf7fD+VI0E2F9f/MOHMpjN+r/z8EvFYKqwk4aSUOIslhP/EeIw5/PwS8njvuE8BO/8eBn7OTI/3//PwSbn4nyoSGaFT9yS0GHtxXNx4TX5aFDiTH4nKoHQkUPHYcMpZfgTa2167j/vhzi+NeS5bHVgMUyhTAFHk9Pz/0bOl0vNz4HzPi+GPYcZb/i4cT4wH5Zfk5pS7hrm4dyw6shTAR75+f/HpebnwPmYUwBXTen5/l0Q7xCZEu8LYZaWFcsly/v3/hTAFG2tPzG5Yo86y1BXL//CmAEdv643ahZl+c6ITP/wpgCv0tPwNs6XS/PmRMz/8/xHh8yf/+J4NunwWaWwndfCmAKNtafmrlijzrLUFcv/8KYAr9LT8LoLPJ5awuy//xPz+fwn//+bYTwAifrvvv/E9EzOGFVz+f+5JcfyYYp9wifwngCpsyjfn/hXLPmcR0mwtgCh8zifn/CuXy7FvhbDed/wrlhTL//xEUDFAx5YPWCgYoGgyzJeIigYaAy3jywG0y/ugyzJcAUfAAAAAAgkwAAAA6WHiwBjwNnNtUwU8m202CLl25yCDrlzr4Fjl200GAV7m5VCBAcuSm1i+bDp7h/vMv+aaJo4FDcFZ/CeABDa+vq//4FzKw8n+DlYuAJQ4mEFOp4KG274CDBjrxQA1QB4XKggAEQAARX+dmmp1oxf70T/vAl4hACCPYx71HLJLCSWdmCLaGf614viANXWiKAgJLQLKkKG9NDYAkBBjgSRBG0dFUQZphBhAUQABE24wYcFi7sxMXR8ZlMIAAhHAAUu8veQnj0BumpBEdgS8kHFcUDihz+fxHxH8/4G7m4fT1YJtwSbl5vHfACuYAAAAAgkwAAAA5WHi4BjwNnNtUwU8m202CLl25yCDrlzr4Fjl200GAV7m5VCBAcuSm1iz/x3ATeJafKCAOGRnuk23/D3eZfA+n8/hPAAhe7u+/gAOgS9+eKhIRLD/4Tw209DPVhl///wRn8/n4DCvAUawezQ+yydlvhTAdbcsMyzkzxCZEJn/8R4jxHiPEeI8R4jxHiPCmAjat+f/jMtTL+I8KYCR649/+OcfM4VoA4fz+fz+fz+fz+fz+fz+fz+FMACI/Vf1//+Md74YpmG+TA3rvEfEeI8R4jxHiPEeI8R4jxHiP4iDaZD1nJLwDaQAAAACCTAAAAE/YeMAGPA2c21TBTybbTYIuXbnIIOuXOvgWOXbTQYBXublUIEBy5KbWM4SyggDhIKnz4e7zL4D3CeAEJ9tszfeCmWp8hff8tw++/n8J4JhmaXIEBgrhICEyTsv/gfz/sRwxllHgRebmR4I/+4MdyATb4CTxOI8R4jxHiPEeI9xPiP1iPEeI8R4jxHiPJ/gQYPgdC4CcWeT8Ajn7e9mbUeBgAeuEABgAkErIZBY9ltUYcAFgRRSgsDrfqfQnBSLPMuu73S73B1sHZatbH5nJ2W8ER/P5/P5/P5/P5+CIR4j+Ig9YGMt0GWQZb4j4jwp//+GX3iIYyyDLeAQhE+5KxGd9bAKZx7lU22bcVbrwQPxHwwHaSBIiBknoM3iygiAaE8EZwAAQNgABBOAAEBIAEANgrEoVn4H4+RKWUEvogDWwAAAAAIJMAAAAFhh4yAY8DZzbVMFPJttNgi5ducgg65c6+BY5dtNBgFe5uVQgQHLkptYKu8y/Nh84/hOCL/bN3SwBSyrEpSKj/fn/A/H8/AMrWK5rEHEuvgU+TD6L7YDANdAAAAAAgkwAAAB3WHjQBjwNnNtUwU8m202CLl25yCDrlzr4Fjl200GAV7m5VCBAcuKptQBhFL2m/4KZCA7ADLrg23wAEmLLb5kKUTzoBlXQgFXQKifg4BblBoOwJHs7HzAQ7ZNEAAIAoACbdAGi3vYGv5QVpYuqrKYZ727+IPFcxSDPOL9w1ZBBz8A2nNjBVeI5j+fwngn2My/hXL8LssXaT4UwBXyc35rJYvp1l0FmX//hTAFGm5vwK5Zd8Wwpl//hTTssTssnZfk7LJ2X//EfEeI8R4jxHiPEeI8KYAEM17E+nZ/iAwiAw80CZl+T/AgweAlFwAjgEGc0AGgrwPRYYBdB0BvcEgcPiLmRB+PDGJAA4hjAAEBsfQApgAABLqHvxTbPBdTpUTh0xMO5g8Kn8/n8/n8/n8/n8/n8/n8/n8/n8/n8/n8/hUR4j+Ig2mRWmXlaZFaZfEfEeI8R4jxHiP4iDaZFaZeVpkVpl8R8R4jxHiPEeI8R4UwxlodZ11ctXL//8RC/EpUJveAC0MLkgyn2rlUhN5wwMgAKeAAIACgGScKzOCGAcB3AAEILwYcygye4/wn9AnCG6Gxe+y0Sm3eX++uxogEg6QRAqF+NkW6st8QA8MqU2ou/wUiQSYTOVl8H8AQBAAAAAIJMAAAAOth42AY8DZzbVMFPJttNgi5ducgg65c6+BY5dtNBgFe5uVQgQEjmyghQIAUP+GR5HcywKuKgBBE8gWOcgqoXWROIcQDXF1iVWBzj/VSsvYhJAZ9LRQNSDuv4MMD99O99eCriMMQQkheH7OTG2v+AXk/n4KObwAJ5WZshZVRPwnWJ78kveOtHF80dp+T/yhII+4VjhYqcb98ABZ7aRHnXnDKECZ0WYGLlAAQxCKF/0Sqi1ZmpNiGf0lLQUpPz+f8CkT+DniBPgkTJGhD6lq78/ApE/gQeDAVAIF0Z/u8Y23jXvrxp+eg6v/PwDWwAAAAAgkwAAAAY2HjgBjwNnNtUwU8m202CLl25yCDrlzr4Fjl200GAV7m5VCBAcuTh9D6XAwA5PNxqicDLT/y8J5IwUcVKKQHgZRSAsDfErTLz/xNEBTNEBTMZl3/JsTQ8PsCjyZYxqk/n4AgGAAAAAIJMAAAAMRh46AY8DZzbVMFPJttNgi5ducgg65c6+BY5dtNBgFe5uVQgQAjsJ//w05X6cM+E8ACD0nemm//ABc3p6l7fgFohb9UTK5Vw4JuKw36Ol4Npl5/0FMALtUmaMHQruUduMCTYxV6/v/+JwwKATwAhdvttwTMyw+ff8/ApmHh7N+EvGqBE+V/hPD6Rz//hFiVPEwTsVGLVhmGb+/goCvDYsn//4jgewngBAk3lma9w6JIfEg7/z+ghH3wAJjknUiJyK8GAQiAAAAAAgkwAAAAWWHjwBjwNnNtUwU8m202CLl25yCDrlzr4Fjl200GAV7m5VCBACPuXw2IWwBoBPACAfv2//1B75mmWJU8AYNfO7+r/iAc3j/+CjuE3BXj/LA9cV41Sl95+AQqAAADOG1vb3YAAABsbXZoZAAAAADZCUPV2QlD1QAAdTAAAHkXAAEAAAEAAAAAAAAAAAAAAAABAAAAAAAAAAAAAAAAAAAAAQAAAAAAAAAAAAAAAAAAQAAAAAAAAAAAAAAAAAAAAAAAAAAAAAAAAAAAAAAAAAIAAAKAdHJhawAAAFx0a2hkAAAAAdkJQ9XZCUPVAAAAAQAAAAAAAHkXAAAAAAAAAAAAAAAAAAAAAAABAAAAAAAAAAAAAAAAAAAAAQAAAAAAAAAAAAAAAAAAQAAAAAKYAAAC0AAAAAACHG1kaWEAAAAgbWRoZAAAAADZCUPV2QlD1QAAdTAAAHkXVcQAAAAAAC1oZGxyAAAAAAAAAAB2aWRlAAAAAAAAAAAAAAAAVmlkZW9IYW5kbGVyAAAAAcdtaW5mAAAAFHZtaGQAAAABAAAAAAAAAAAAAAAkZGluZgAAABxkcmVmAAAAAAAAAAEAAAAMdXJsIAAAAAEAAAGHc3RibAAAAJNzdHNkAAAAAAAAAAEAAACDYXZjMQAAAAAAAAABAAAAAAAAAAAAAAAAAAAAAAKYAtAASAAAAEgAAAAAAAAAAQpBVkMgQ29kaW5nAAAAAAAAAAAAAAAAAAAAAAAAAAAAABj//wAAAC1hdmNDAULAH//hABZnQsAflaAqBb5eaIAAAfQAAHUwB6VQAQAEaM48gAAAABhzdHRzAAAAAAAAAAEAAAAfAAAD6AAAABxzdHNjAAAAAAAAAAEAAAABAAAAHwAAAAEAAACQc3RzegAAAAAAAAAAAAAAHwAAYpwAAClTAAARPwAACmQAAAK7AAABvwAAAjcAAAKVAAABNgAAAQcAAAG8AAADuAAAAb8AAAIAAAAAvgAAAFUAAABKAAABVgAAAtQAAAMjAAAEewAAAnwAAADzAAAA7wAAAUkAAABiAAAB5wAAAPUAAABtAAAAzgAAAGMAAAAUc3RjbwAAAAAAAAABAAAAUAAAABRzdHNzAAAAAAAAAAEAAAABAAAARHVkdGEAAAA0bWV0YQAAAAAAAAAgaGRscgAAAAAAAAAAbWRpcgAAAAAAAAAAAAAAAAAAAAhpbHN0AAAACFh0cmFQSwcIjKGpenjXAAAAAAAAeNcAAAAAAABQSwMELQAIAAgANW+1TgAAAAAAAAAAAAAAABMAAABbQ29udGVudF9UeXBlc10ueG1sbY7LDoIwEEV/pZk9DBpjjKGw8PEF+AFNGUqVPkIrwb+3wM64nDP3zJ2yns3AJhqDdpbDLi+AkZWu1VZxeDT37AR1VTYfT4GlqA0c+hj9GTHInowIufNk06ZzoxExjaNCL+RLKMJ9URxROhvJxiwuN6Aqr9SJ9xDZbU54q316Beyy5ZYqDtos/srxr2L84UeZdEsOV54UXF+uvlBLBwiIehbEmgAAAAAAAADgAAAAAAAAAFBLAQItAC0ACAAAADVvtU7ln8AE//////////8ZABwAAAAAAAAAAAAAAP////9mb3JtYXRzL2xpdmluZy9saXZpbmcuanBnAQAYALNoAAAAAAAAs2gAAAAAAADfXwAAAAAAAFBLAQItAC0ACAAAADVvtU6Moal6//////////8ZABwAAAAAAAAAAAAAAP////9mb3JtYXRzL2xpdmluZy9saXZpbmcubXA0AQAYAHjXAAAAAAAAeNcAAAAAAADhyAAAAAAAAFBLAQItAC0ACAAIADVvtU6IehbE//////////8TABwAAAAAAAAAAAAAAP////9bQ29udGVudF9UeXBlc10ueG1sAQAYAOAAAAAAAAAAmgAAAAAAAACooAEAAAAAAFBLBgYsAAAAAAAAAC0ALQAAAAAAAAAAAAMAAAAAAAAAAwAAAAAAAAAjAQAAAAAAAIuhAQAAAAAAUEsGBwAAAACuogEAAAAAAAEAAABQSwUG/////////////////////wAA;" parent="1" vertex="1">
          <mxGeometry x="55.5" y="10" width="711" height="771" as="geometry" />
        </mxCell>
        <mxCell id="k4Nb-jH2joKSZ2VRX0Bj-138" value="" style="rounded=0;whiteSpace=wrap;html=1;shadow=0;glass=1;comic=0;strokeWidth=2;fontFamily=Times New Roman;fontSize=16;strokeColor=#FFFFFF;" parent="1" vertex="1">
          <mxGeometry x="81" y="230" width="680" height="120" as="geometry" />
        </mxCell>
        <mxCell id="k4Nb-jH2joKSZ2VRX0Bj-102" value="" style="rounded=0;whiteSpace=wrap;html=1;fontFamily=Times New Roman;fillColor=#3399FF;strokeColor=#000000;glass=0;comic=0;shadow=0;strokeWidth=2;opacity=40;" parent="1" vertex="1">
          <mxGeometry x="290" y="370" width="97" height="190" as="geometry" />
        </mxCell>
        <mxCell id="k4Nb-jH2joKSZ2VRX0Bj-52" value="" style="rounded=0;whiteSpace=wrap;html=1;fontFamily=Times New Roman;fillColor=#FFFF66;strokeColor=#000000;glass=0;comic=0;shadow=0;strokeWidth=2;opacity=40;" parent="1" vertex="1">
          <mxGeometry x="178" y="259" width="252" height="111" as="geometry" />
        </mxCell>
        <mxCell id="k4Nb-jH2joKSZ2VRX0Bj-78" value="" style="rounded=0;whiteSpace=wrap;html=1;fontFamily=Times New Roman;fillColor=#FFB366;strokeColor=#000000;glass=0;comic=0;shadow=0;strokeWidth=2;opacity=40;" parent="1" vertex="1">
          <mxGeometry x="276" y="560" width="305" height="90" as="geometry" />
        </mxCell>
        <mxCell id="k4Nb-jH2joKSZ2VRX0Bj-59" value="" style="rounded=0;whiteSpace=wrap;html=1;fontFamily=Times New Roman;fillColor=#FFFF66;strokeColor=#000000;glass=0;comic=0;shadow=0;strokeWidth=2;opacity=40;" parent="1" vertex="1">
          <mxGeometry x="430" y="254" width="240" height="116" as="geometry" />
        </mxCell>
        <mxCell id="k4Nb-jH2joKSZ2VRX0Bj-13" value="" style="shape=image;html=1;verticalAlign=top;verticalLabelPosition=bottom;labelBackgroundColor=#ffffff;imageAspect=0;aspect=fixed;image=https://cdn4.iconfinder.com/data/icons/essential-app-2/16/record-round-circle-dot-128.png;fontFamily=Times New Roman;" parent="1" vertex="1">
          <mxGeometry x="170" y="330" width="18" height="18" as="geometry" />
        </mxCell>
        <mxCell id="k4Nb-jH2joKSZ2VRX0Bj-18" value="" style="shape=image;html=1;verticalAlign=top;verticalLabelPosition=bottom;labelBackgroundColor=#ffffff;imageAspect=0;aspect=fixed;image=https://cdn4.iconfinder.com/data/icons/essential-app-2/16/record-round-circle-dot-128.png;fontFamily=Times New Roman;" parent="1" vertex="1">
          <mxGeometry x="280" y="252" width="18" height="18" as="geometry" />
        </mxCell>
        <mxCell id="k4Nb-jH2joKSZ2VRX0Bj-19" value="19" style="text;html=1;strokeColor=none;fillColor=none;align=center;verticalAlign=middle;whiteSpace=wrap;rounded=0;fontFamily=Times New Roman;fontStyle=1;fontSize=20;" parent="1" vertex="1">
          <mxGeometry x="278" y="270" width="20" height="20" as="geometry" />
        </mxCell>
        <mxCell id="k4Nb-jH2joKSZ2VRX0Bj-26" value="" style="shape=image;html=1;verticalAlign=top;verticalLabelPosition=bottom;labelBackgroundColor=#ffffff;imageAspect=0;aspect=fixed;image=https://cdn4.iconfinder.com/data/icons/essential-app-2/16/record-round-circle-dot-128.png;fontFamily=Times New Roman;" parent="1" vertex="1">
          <mxGeometry x="421" y="364" width="18" height="18" as="geometry" />
        </mxCell>
        <mxCell id="k4Nb-jH2joKSZ2VRX0Bj-27" value="28" style="text;html=1;strokeColor=none;fillColor=none;align=center;verticalAlign=middle;whiteSpace=wrap;rounded=0;fontFamily=Times New Roman;fontStyle=1;fontSize=20;" parent="1" vertex="1">
          <mxGeometry x="395.5" y="348" width="20" height="20" as="geometry" />
        </mxCell>
        <mxCell id="k4Nb-jH2joKSZ2VRX0Bj-28" value="" style="shape=image;html=1;verticalAlign=top;verticalLabelPosition=bottom;labelBackgroundColor=#ffffff;imageAspect=0;aspect=fixed;image=https://cdn4.iconfinder.com/data/icons/essential-app-2/16/record-round-circle-dot-128.png;fontFamily=Times New Roman;" parent="1" vertex="1">
          <mxGeometry x="550" y="244" width="18" height="18" as="geometry" />
        </mxCell>
        <mxCell id="k4Nb-jH2joKSZ2VRX0Bj-29" value="24" style="text;html=1;strokeColor=none;fillColor=none;align=center;verticalAlign=middle;whiteSpace=wrap;rounded=0;fontFamily=Times New Roman;fontStyle=1;fontSize=20;" parent="1" vertex="1">
          <mxGeometry x="550" y="262" width="20" height="20" as="geometry" />
        </mxCell>
        <mxCell id="k4Nb-jH2joKSZ2VRX0Bj-32" value="" style="shape=image;html=1;verticalAlign=top;verticalLabelPosition=bottom;labelBackgroundColor=#ffffff;imageAspect=0;aspect=fixed;image=https://cdn4.iconfinder.com/data/icons/essential-app-2/16/record-round-circle-dot-128.png;fontFamily=Times New Roman;" parent="1" vertex="1">
          <mxGeometry x="660" y="328" width="18" height="18" as="geometry" />
        </mxCell>
        <mxCell id="k4Nb-jH2joKSZ2VRX0Bj-33" value="16" style="text;html=1;strokeColor=none;fillColor=none;align=center;verticalAlign=middle;whiteSpace=wrap;rounded=0;fontFamily=Times New Roman;fontStyle=1;fontSize=20;" parent="1" vertex="1">
          <mxGeometry x="640" y="339" width="20" height="20" as="geometry" />
        </mxCell>
        <mxCell id="k4Nb-jH2joKSZ2VRX0Bj-38" value="" style="shape=image;html=1;verticalAlign=top;verticalLabelPosition=bottom;labelBackgroundColor=#ffffff;imageAspect=0;aspect=fixed;image=https://cdn4.iconfinder.com/data/icons/essential-app-2/16/record-round-circle-dot-128.png;fontFamily=Times New Roman;" parent="1" vertex="1">
          <mxGeometry x="395.5" y="552" width="18" height="18" as="geometry" />
        </mxCell>
        <mxCell id="k4Nb-jH2joKSZ2VRX0Bj-39" value="50" style="text;html=1;strokeColor=none;fillColor=none;align=center;verticalAlign=middle;whiteSpace=wrap;rounded=0;fontFamily=Times New Roman;fontStyle=1;fontSize=20;" parent="1" vertex="1">
          <mxGeometry x="384.5" y="572" width="20" height="20" as="geometry" />
        </mxCell>
        <mxCell id="k4Nb-jH2joKSZ2VRX0Bj-46" value="" style="shape=image;html=1;verticalAlign=top;verticalLabelPosition=bottom;labelBackgroundColor=#ffffff;imageAspect=0;aspect=fixed;image=https://cdn4.iconfinder.com/data/icons/essential-app-2/16/record-round-circle-dot-128.png;fontFamily=Times New Roman;" parent="1" vertex="1">
          <mxGeometry x="450" y="554" width="18" height="18" as="geometry" />
        </mxCell>
        <mxCell id="k4Nb-jH2joKSZ2VRX0Bj-47" value="52" style="text;html=1;strokeColor=none;fillColor=none;align=center;verticalAlign=middle;whiteSpace=wrap;rounded=0;fontFamily=Times New Roman;fontStyle=1;fontSize=20;" parent="1" vertex="1">
          <mxGeometry x="461" y="572" width="20" height="20" as="geometry" />
        </mxCell>
        <mxCell id="k4Nb-jH2joKSZ2VRX0Bj-48" value="" style="shape=image;html=1;verticalAlign=top;verticalLabelPosition=bottom;labelBackgroundColor=#ffffff;imageAspect=0;aspect=fixed;image=https://cdn4.iconfinder.com/data/icons/essential-app-2/16/record-round-circle-dot-128.png;fontFamily=Times New Roman;" parent="1" vertex="1">
          <mxGeometry x="570" y="640" width="18" height="18" as="geometry" />
        </mxCell>
        <mxCell id="k4Nb-jH2joKSZ2VRX0Bj-50" value="" style="shape=image;html=1;verticalAlign=top;verticalLabelPosition=bottom;labelBackgroundColor=#ffffff;imageAspect=0;aspect=fixed;image=https://cdn4.iconfinder.com/data/icons/essential-app-2/16/record-round-circle-dot-128.png;fontFamily=Times New Roman;" parent="1" vertex="1">
          <mxGeometry x="270" y="642" width="18" height="18" as="geometry" />
        </mxCell>
        <mxCell id="k4Nb-jH2joKSZ2VRX0Bj-51" value="5" style="text;html=1;strokeColor=none;fillColor=none;align=center;verticalAlign=middle;whiteSpace=wrap;rounded=0;fontFamily=Times New Roman;fontStyle=1;fontSize=20;" parent="1" vertex="1">
          <mxGeometry x="248" y="641" width="20" height="20" as="geometry" />
        </mxCell>
        <mxCell id="k4Nb-jH2joKSZ2VRX0Bj-58" value="" style="endArrow=classic;startArrow=classic;html=1;fontFamily=Times New Roman;fontSize=18;exitX=1;exitY=0.25;exitDx=0;exitDy=0;strokeColor=#0000FF;" parent="1" edge="1">
          <mxGeometry width="50" height="50" relative="1" as="geometry">
            <mxPoint x="432" y="238" as="sourcePoint" />
            <mxPoint x="670" y="238" as="targetPoint" />
          </mxGeometry>
        </mxCell>
        <mxCell id="k4Nb-jH2joKSZ2VRX0Bj-60" value="" style="endArrow=classic;startArrow=classic;html=1;fontFamily=Times New Roman;fontSize=18;exitX=1;exitY=0.25;exitDx=0;exitDy=0;strokeColor=#0000FF;" parent="1" edge="1">
          <mxGeometry width="50" height="50" relative="1" as="geometry">
            <mxPoint x="160" y="259" as="sourcePoint" />
            <mxPoint x="160" y="370" as="targetPoint" />
          </mxGeometry>
        </mxCell>
        <mxCell id="k4Nb-jH2joKSZ2VRX0Bj-61" value="y&lt;sub style=&quot;font-size: 20px;&quot;&gt;19&lt;/sub&gt;" style="text;html=1;strokeColor=none;fillColor=none;align=center;verticalAlign=middle;whiteSpace=wrap;rounded=0;fontFamily=Times New Roman;fontStyle=1;fontSize=20;" parent="1" vertex="1">
          <mxGeometry x="150" y="234" width="20" height="20" as="geometry" />
        </mxCell>
        <mxCell id="k4Nb-jH2joKSZ2VRX0Bj-62" value="y&lt;span style=&quot;font-size: 20px&quot;&gt;&lt;span style=&quot;font-size: 20px&quot;&gt;&lt;sub&gt;28&lt;/sub&gt;&lt;/span&gt;&lt;/span&gt;" style="text;html=1;strokeColor=none;fillColor=none;align=center;verticalAlign=middle;whiteSpace=wrap;rounded=0;fontFamily=Times New Roman;fontStyle=1;fontSize=20;" parent="1" vertex="1">
          <mxGeometry x="150" y="372" width="20" height="20" as="geometry" />
        </mxCell>
        <mxCell id="k4Nb-jH2joKSZ2VRX0Bj-63" value="0" style="text;html=1;strokeColor=none;fillColor=none;align=center;verticalAlign=middle;whiteSpace=wrap;rounded=0;fontFamily=Times New Roman;fontStyle=1;fontSize=20;" parent="1" vertex="1">
          <mxGeometry x="180" y="341" width="20" height="20" as="geometry" />
        </mxCell>
        <mxCell id="k4Nb-jH2joKSZ2VRX0Bj-65" value="" style="endArrow=classic;startArrow=classic;html=1;fontFamily=Times New Roman;fontSize=18;exitX=1;exitY=0.25;exitDx=0;exitDy=0;strokeColor=#0000FF;" parent="1" edge="1">
          <mxGeometry width="50" height="50" relative="1" as="geometry">
            <mxPoint x="188" y="252" as="sourcePoint" />
            <mxPoint x="420" y="251.5" as="targetPoint" />
          </mxGeometry>
        </mxCell>
        <mxCell id="k4Nb-jH2joKSZ2VRX0Bj-66" value="Eye region width" style="text;html=1;strokeColor=none;fillColor=none;align=center;verticalAlign=middle;whiteSpace=wrap;rounded=0;shadow=0;glass=1;comic=0;fontFamily=Times New Roman;rotation=0;fontStyle=0;fontSize=30;" parent="1" vertex="1">
          <mxGeometry x="183.25" y="200" width="241.5" height="20" as="geometry" />
        </mxCell>
        <mxCell id="k4Nb-jH2joKSZ2VRX0Bj-67" value="x&lt;sub style=&quot;font-size: 20px;&quot;&gt;0&lt;/sub&gt;" style="text;html=1;strokeColor=none;fillColor=none;align=center;verticalAlign=middle;whiteSpace=wrap;rounded=0;fontFamily=Times New Roman;fontStyle=1;fontSize=20;" parent="1" vertex="1">
          <mxGeometry x="200" y="230" width="20" height="20" as="geometry" />
        </mxCell>
        <mxCell id="k4Nb-jH2joKSZ2VRX0Bj-68" value="x&lt;sub style=&quot;font-size: 20px;&quot;&gt;28&lt;/sub&gt;" style="text;html=1;strokeColor=none;fillColor=none;align=center;verticalAlign=middle;whiteSpace=wrap;rounded=0;fontFamily=Times New Roman;fontStyle=1;direction=south;fontSize=20;" parent="1" vertex="1">
          <mxGeometry x="387" y="230" width="20" height="20" as="geometry" />
        </mxCell>
        <mxCell id="k4Nb-jH2joKSZ2VRX0Bj-73" value="x&lt;sub style=&quot;font-size: 20px;&quot;&gt;16&lt;/sub&gt;" style="text;html=1;strokeColor=none;fillColor=none;align=center;verticalAlign=middle;whiteSpace=wrap;rounded=0;fontFamily=Times New Roman;fontStyle=1;direction=south;fontSize=20;" parent="1" vertex="1">
          <mxGeometry x="640" y="214" width="20" height="20" as="geometry" />
        </mxCell>
        <mxCell id="k4Nb-jH2joKSZ2VRX0Bj-75" value="" style="endArrow=classic;startArrow=classic;html=1;fontFamily=Times New Roman;fontSize=18;exitX=1;exitY=0.25;exitDx=0;exitDy=0;strokeColor=#0000FF;" parent="1" edge="1">
          <mxGeometry width="50" height="50" relative="1" as="geometry">
            <mxPoint x="690" y="255" as="sourcePoint" />
            <mxPoint x="690" y="366" as="targetPoint" />
          </mxGeometry>
        </mxCell>
        <mxCell id="k4Nb-jH2joKSZ2VRX0Bj-76" value="y&lt;sub style=&quot;font-size: 20px;&quot;&gt;24&lt;/sub&gt;" style="text;html=1;strokeColor=none;fillColor=none;align=center;verticalAlign=middle;whiteSpace=wrap;rounded=0;fontFamily=Times New Roman;fontStyle=1;fontSize=20;" parent="1" vertex="1">
          <mxGeometry x="680" y="230" width="20" height="20" as="geometry" />
        </mxCell>
        <mxCell id="k4Nb-jH2joKSZ2VRX0Bj-77" value="y&lt;span style=&quot;font-size: 20px&quot;&gt;&lt;sub&gt;28&lt;/sub&gt;&lt;/span&gt;" style="text;html=1;strokeColor=none;fillColor=none;align=center;verticalAlign=middle;whiteSpace=wrap;rounded=0;fontFamily=Times New Roman;fontStyle=1;fontSize=20;" parent="1" vertex="1">
          <mxGeometry x="680" y="368" width="20" height="20" as="geometry" />
        </mxCell>
        <mxCell id="k4Nb-jH2joKSZ2VRX0Bj-79" value="" style="endArrow=classic;startArrow=classic;html=1;fontFamily=Times New Roman;fontSize=18;exitX=1;exitY=0.25;exitDx=0;exitDy=0;strokeColor=#0000FF;" parent="1" edge="1">
          <mxGeometry width="50" height="50" relative="1" as="geometry">
            <mxPoint x="240" y="559" as="sourcePoint" />
            <mxPoint x="240" y="649" as="targetPoint" />
          </mxGeometry>
        </mxCell>
        <mxCell id="k4Nb-jH2joKSZ2VRX0Bj-80" value="Mouth region&amp;nbsp;height" style="text;html=1;strokeColor=none;fillColor=none;align=center;verticalAlign=middle;whiteSpace=wrap;rounded=0;shadow=0;glass=1;comic=0;fontFamily=Times New Roman;rotation=-90;fontStyle=0;fontSize=30;" parent="1" vertex="1">
          <mxGeometry x="6" y="572" width="260" height="45" as="geometry" />
        </mxCell>
        <mxCell id="k4Nb-jH2joKSZ2VRX0Bj-81" value="max{y&lt;sub&gt;50&lt;/sub&gt;,y&lt;sub&gt;52&lt;/sub&gt;}" style="text;html=1;strokeColor=none;fillColor=none;align=center;verticalAlign=middle;whiteSpace=wrap;rounded=0;fontFamily=Times New Roman;fontStyle=1;fontSize=20;" parent="1" vertex="1">
          <mxGeometry x="190.5" y="540" width="60" height="20" as="geometry" />
        </mxCell>
        <mxCell id="k4Nb-jH2joKSZ2VRX0Bj-85" value="x&lt;sub style=&quot;font-size: 20px;&quot;&gt;28&lt;/sub&gt;" style="text;html=1;strokeColor=none;fillColor=none;align=center;verticalAlign=middle;whiteSpace=wrap;rounded=0;fontFamily=Times New Roman;fontStyle=1;direction=south;fontSize=20;" parent="1" vertex="1">
          <mxGeometry x="448" y="214" width="20" height="20" as="geometry" />
        </mxCell>
        <mxCell id="k4Nb-jH2joKSZ2VRX0Bj-88" value="11" style="text;html=1;strokeColor=none;fillColor=none;align=center;verticalAlign=middle;whiteSpace=wrap;rounded=0;fontFamily=Times New Roman;fontStyle=1;fontSize=20;" parent="1" vertex="1">
          <mxGeometry x="590" y="642" width="20" height="20" as="geometry" />
        </mxCell>
        <mxCell id="k4Nb-jH2joKSZ2VRX0Bj-89" value="min{y&lt;sub&gt;5&lt;/sub&gt;,y&lt;sub&gt;11&lt;/sub&gt;}" style="text;html=1;strokeColor=none;fillColor=none;align=center;verticalAlign=middle;whiteSpace=wrap;rounded=0;fontFamily=Times New Roman;fontStyle=1;fontSize=20;" parent="1" vertex="1">
          <mxGeometry x="188" y="660" width="60" height="20" as="geometry" />
        </mxCell>
        <mxCell id="k4Nb-jH2joKSZ2VRX0Bj-91" value="" style="endArrow=classic;startArrow=classic;html=1;fontFamily=Times New Roman;fontSize=18;strokeColor=#0000FF;" parent="1" edge="1">
          <mxGeometry width="50" height="50" relative="1" as="geometry">
            <mxPoint x="570" y="662" as="sourcePoint" />
            <mxPoint x="295.5" y="662" as="targetPoint" />
          </mxGeometry>
        </mxCell>
        <mxCell id="k4Nb-jH2joKSZ2VRX0Bj-93" value="Mouth region width" style="text;html=1;strokeColor=none;fillColor=none;align=center;verticalAlign=middle;whiteSpace=wrap;rounded=0;shadow=0;glass=1;comic=0;fontFamily=Times New Roman;rotation=0;fontStyle=0;fontSize=30;" parent="1" vertex="1">
          <mxGeometry x="293.25" y="700" width="273.5" height="20" as="geometry" />
        </mxCell>
        <mxCell id="k4Nb-jH2joKSZ2VRX0Bj-95" value="" style="shape=image;html=1;verticalAlign=top;verticalLabelPosition=bottom;labelBackgroundColor=#ffffff;imageAspect=0;aspect=fixed;image=https://cdn4.iconfinder.com/data/icons/essential-app-2/16/record-round-circle-dot-128.png;fontFamily=Times New Roman;" parent="1" vertex="1">
          <mxGeometry x="286" y="346" width="18" height="18" as="geometry" />
        </mxCell>
        <mxCell id="k4Nb-jH2joKSZ2VRX0Bj-97" value="" style="shape=image;html=1;verticalAlign=top;verticalLabelPosition=bottom;labelBackgroundColor=#ffffff;imageAspect=0;aspect=fixed;image=https://cdn4.iconfinder.com/data/icons/essential-app-2/16/record-round-circle-dot-128.png;fontFamily=Times New Roman;" parent="1" vertex="1">
          <mxGeometry x="377.5" y="490" width="18" height="18" as="geometry" />
        </mxCell>
        <mxCell id="k4Nb-jH2joKSZ2VRX0Bj-101" value="Projection" style="text;html=1;strokeColor=none;fillColor=none;align=center;verticalAlign=middle;whiteSpace=wrap;rounded=0;shadow=0;glass=1;comic=0;fontFamily=Times New Roman;rotation=90;fontStyle=0;fontSize=20;" parent="1" vertex="1">
          <mxGeometry x="331" y="388" width="72" height="20" as="geometry" />
        </mxCell>
        <mxCell id="k4Nb-jH2joKSZ2VRX0Bj-110" value="" style="endArrow=classic;startArrow=classic;html=1;fontFamily=Times New Roman;fontSize=18;strokeColor=#0000FF;dashed=1;endFill=1;startFill=1;" parent="1" edge="1">
          <mxGeometry width="50" height="50" relative="1" as="geometry">
            <mxPoint x="380" y="440" as="sourcePoint" />
            <mxPoint x="299" y="440" as="targetPoint" />
          </mxGeometry>
        </mxCell>
        <mxCell id="k4Nb-jH2joKSZ2VRX0Bj-111" value="" style="endArrow=none;startArrow=none;html=1;fontFamily=Times New Roman;fontSize=18;strokeColor=#0000FF;dashed=1;endFill=0;startFill=0;" parent="1" edge="1">
          <mxGeometry width="50" height="50" relative="1" as="geometry">
            <mxPoint x="386.5" y="355" as="sourcePoint" />
            <mxPoint x="306.5" y="355" as="targetPoint" />
          </mxGeometry>
        </mxCell>
        <mxCell id="k4Nb-jH2joKSZ2VRX0Bj-115" value="" style="endArrow=classic;startArrow=none;html=1;fontFamily=Times New Roman;fontSize=18;exitX=1;exitY=0.25;exitDx=0;exitDy=0;strokeColor=#0000FF;startFill=0;dashed=1;" parent="1" edge="1">
          <mxGeometry width="50" height="50" relative="1" as="geometry">
            <mxPoint x="340" y="358" as="sourcePoint" />
            <mxPoint x="340" y="440" as="targetPoint" />
          </mxGeometry>
        </mxCell>
        <mxCell id="k4Nb-jH2joKSZ2VRX0Bj-122" value="" style="endArrow=none;html=1;strokeColor=#0000FF;fontFamily=Times New Roman;fontSize=18;" parent="1" edge="1">
          <mxGeometry width="50" height="50" relative="1" as="geometry">
            <mxPoint x="386.5" y="364" as="sourcePoint" />
            <mxPoint x="386.5" y="344" as="targetPoint" />
          </mxGeometry>
        </mxCell>
        <mxCell id="k4Nb-jH2joKSZ2VRX0Bj-124" value="" style="endArrow=classic;startArrow=classic;html=1;fontFamily=Times New Roman;fontSize=18;strokeColor=#0000FF;" parent="1" edge="1">
          <mxGeometry width="50" height="50" relative="1" as="geometry">
            <mxPoint x="279" y="380" as="sourcePoint" />
            <mxPoint x="279" y="530" as="targetPoint" />
          </mxGeometry>
        </mxCell>
        <mxCell id="k4Nb-jH2joKSZ2VRX0Bj-125" value="Wrinkle region&lt;br style=&quot;font-size: 30px;&quot;&gt;height" style="text;html=1;strokeColor=none;fillColor=none;align=center;verticalAlign=middle;whiteSpace=wrap;rounded=0;shadow=0;glass=1;comic=0;fontFamily=Times New Roman;rotation=-90;fontStyle=0;fontSize=30;" parent="1" vertex="1">
          <mxGeometry x="140" y="430" width="200" height="20" as="geometry" />
        </mxCell>
        <mxCell id="k4Nb-jH2joKSZ2VRX0Bj-126" value="Wrinkle&lt;br style=&quot;font-size: 30px;&quot;&gt;region&lt;br style=&quot;font-size: 30px;&quot;&gt;width" style="text;html=1;strokeColor=none;fillColor=none;align=center;verticalAlign=middle;whiteSpace=wrap;rounded=0;shadow=0;glass=1;comic=0;fontFamily=Times New Roman;rotation=0;fontStyle=0;fontSize=30;" parent="1" vertex="1">
          <mxGeometry x="245.5" y="488" width="175.5" height="20" as="geometry" />
        </mxCell>
        <mxCell id="k4Nb-jH2joKSZ2VRX0Bj-127" value="" style="rounded=0;whiteSpace=wrap;html=1;fontFamily=Times New Roman;fillColor=#3399FF;strokeColor=#000000;glass=0;comic=0;shadow=0;strokeWidth=2;opacity=40;" parent="1" vertex="1">
          <mxGeometry x="480" y="370" width="97" height="190" as="geometry" />
        </mxCell>
        <mxCell id="k4Nb-jH2joKSZ2VRX0Bj-128" value="" style="endArrow=classic;startArrow=classic;html=1;fontFamily=Times New Roman;fontSize=18;strokeColor=#0000FF;" parent="1" edge="1">
          <mxGeometry width="50" height="50" relative="1" as="geometry">
            <mxPoint x="589.5" y="382" as="sourcePoint" />
            <mxPoint x="589.5" y="532" as="targetPoint" />
          </mxGeometry>
        </mxCell>
        <mxCell id="k4Nb-jH2joKSZ2VRX0Bj-131" value="41" style="text;html=1;strokeColor=none;fillColor=none;align=center;verticalAlign=middle;whiteSpace=wrap;rounded=0;fontFamily=Times New Roman;fontStyle=1;fontSize=20;" parent="1" vertex="1">
          <mxGeometry x="266" y="350" width="20" height="20" as="geometry" />
        </mxCell>
        <mxCell id="k4Nb-jH2joKSZ2VRX0Bj-132" value="31" style="text;html=1;strokeColor=none;fillColor=none;align=center;verticalAlign=middle;whiteSpace=wrap;rounded=0;fontFamily=Times New Roman;fontStyle=1;fontSize=20;" parent="1" vertex="1">
          <mxGeometry x="401" y="480" width="20" height="20" as="geometry" />
        </mxCell>
        <mxCell id="k4Nb-jH2joKSZ2VRX0Bj-133" value="35" style="text;html=1;strokeColor=none;fillColor=none;align=center;verticalAlign=middle;whiteSpace=wrap;rounded=0;fontFamily=Times New Roman;fontStyle=1;fontSize=20;" parent="1" vertex="1">
          <mxGeometry x="451" y="480" width="20" height="20" as="geometry" />
        </mxCell>
        <mxCell id="k4Nb-jH2joKSZ2VRX0Bj-134" value="" style="shape=image;html=1;verticalAlign=top;verticalLabelPosition=bottom;labelBackgroundColor=#ffffff;imageAspect=0;aspect=fixed;image=https://cdn4.iconfinder.com/data/icons/essential-app-2/16/record-round-circle-dot-128.png;fontFamily=Times New Roman;" parent="1" vertex="1">
          <mxGeometry x="563" y="343" width="18" height="18" as="geometry" />
        </mxCell>
        <mxCell id="k4Nb-jH2joKSZ2VRX0Bj-135" value="46" style="text;html=1;strokeColor=none;fillColor=none;align=center;verticalAlign=middle;whiteSpace=wrap;rounded=0;fontFamily=Times New Roman;fontStyle=1;fontSize=20;" parent="1" vertex="1">
          <mxGeometry x="577" y="348" width="20" height="20" as="geometry" />
        </mxCell>
        <mxCell id="k4Nb-jH2joKSZ2VRX0Bj-53" value="Eye region height" style="text;html=1;strokeColor=none;fillColor=none;align=center;verticalAlign=middle;whiteSpace=wrap;rounded=0;shadow=0;glass=1;comic=0;fontFamily=Times New Roman;rotation=-90;fontStyle=0;fontSize=30;" parent="1" vertex="1">
          <mxGeometry y="259" width="228" height="55.5" as="geometry" />
        </mxCell>
        <mxCell id="Lz0hylRylM_oDwEshEDG-1" value="x&lt;span style=&quot;font-size: 20px;&quot;&gt;&lt;sub style=&quot;font-size: 20px;&quot;&gt;11&lt;/sub&gt;&lt;/span&gt;" style="text;html=1;strokeColor=none;fillColor=none;align=center;verticalAlign=middle;whiteSpace=wrap;rounded=0;fontFamily=Times New Roman;fontStyle=1;fontSize=20;" parent="1" vertex="1">
          <mxGeometry x="540" y="662" width="20" height="20" as="geometry" />
        </mxCell>
        <mxCell id="Lz0hylRylM_oDwEshEDG-2" value="x&lt;span style=&quot;font-size: 20px;&quot;&gt;&lt;sub style=&quot;font-size: 20px;&quot;&gt;5&lt;/sub&gt;&lt;/span&gt;" style="text;html=1;strokeColor=none;fillColor=none;align=center;verticalAlign=middle;whiteSpace=wrap;rounded=0;fontFamily=Times New Roman;fontStyle=1;fontSize=20;" parent="1" vertex="1">
          <mxGeometry x="304" y="662" width="20" height="20" as="geometry" />
        </mxCell>
        <mxCell id="k4Nb-jH2joKSZ2VRX0Bj-98" value="" style="shape=image;html=1;verticalAlign=top;verticalLabelPosition=bottom;labelBackgroundColor=#ffffff;imageAspect=0;aspect=fixed;image=https://cdn4.iconfinder.com/data/icons/essential-app-2/16/record-round-circle-dot-128.png;fontFamily=Times New Roman;" parent="1" vertex="1">
          <mxGeometry x="471" y="490" width="18" height="18" as="geometry" />
        </mxCell>
        <mxCell id="_TdHG-n-CAeGMsGsKoNm-1" value="" style="endArrow=none;startArrow=none;html=1;fontFamily=Times New Roman;fontSize=18;strokeColor=#0000FF;dashed=1;endFill=0;startFill=0;" parent="1" edge="1">
          <mxGeometry width="50" height="50" relative="1" as="geometry">
            <mxPoint x="561" y="351.5" as="sourcePoint" />
            <mxPoint x="481" y="351.5" as="targetPoint" />
          </mxGeometry>
        </mxCell>
        <mxCell id="_TdHG-n-CAeGMsGsKoNm-4" value="" style="endArrow=none;html=1;strokeColor=#0000FF;fontFamily=Times New Roman;fontSize=18;" parent="1" edge="1">
          <mxGeometry width="50" height="50" relative="1" as="geometry">
            <mxPoint x="479.5" y="364" as="sourcePoint" />
            <mxPoint x="479.5" y="344" as="targetPoint" />
          </mxGeometry>
        </mxCell>
        <mxCell id="k4Nb-jH2joKSZ2VRX0Bj-139" value="" style="shape=image;verticalLabelPosition=bottom;labelBackgroundColor=#ffffff;verticalAlign=top;aspect=fixed;imageAspect=0;image=data:image/png,iVBORw0KGgoAAAANSUhEUgAAAfQAAAKfCAYAAACYDTqOAAAWcklEQVR4nO3dPa7kxr2HYR5hcifewEAXcKANeA+CAGeTKFHgVJlXcTOnCpRMosyAoT1oAwocCNqAE6/g3OC47/Sc0x9kk0VW/f7PkxmyRuxusl5WFbvn6fn5eQIAxvbF0QcAAKwn6AAQQNABIICgA0AAQQeAAIIOAAEEHQACCDoABBB0AAgg6AAQQNABIICgA0AAQQeAAIIOAAEEHQACCDoABBB0AAgg6AAQQNABIICgA0AAQQeAAIIOAAEEHQACCDoABBB0AAgg6AAQQNABIICgA0AAQQeAAIIOAAEEHQACCDoABBB0AAgg6AAQQNABIICgA0AAQQeAAIIOAAEEHQACCDoABBB0AAgg6AAQQNABIICgA0AAQQeAAIIOAAEEHQACCDoABBB0AAgg6AAQQNABIICgA0AAQQeAAIIOAAEEHQACCDoABBB0AAgg6AAQQNABIICgA0AAQQeAAIIOAAEEHQACCDoABBB0AAgg6AAQQNABIICgA0AAQQeAAIIOAAEEHQACCDoABBB0AAgg6AAQQNABIICgA0AAQQeAAIIOAAEEHQACCDoABBB0AAgg6AAQQNABIICgA0AAQQeAAIIOAAEEHQACCDoABBB0AAgg6AAQQNABIICgA0AAQQeAAIIOAAEEHQACCDoABBB0AAgg6AAQQNABIICgA0AAQQeAAIIOAAEEHQACCDoABBB0AAgg6AAQQNABIICgA0AAQQeAAIIOAAEEHQACCDoABBB0AAgg6AAQQNABIICgA0AAQQeAAIIOAAEEHQACCDoABBB0AAgg6AAQQNABIICgA0AAQQeAAIIOAAEEHQACCDoABBB0AAgg6AAQQNABIICgA0AAQQeAAIIOAAEEHQACCDoABBB0AAgg6AAQQNABIICgA0AAQQeAAIIOAAEEHQACCDoABBB0AAgg6AAQQNABIICgA0AAQQeAAIIOAAEEHQACCDoABBB0AAgg6AAQQNABIICgA0AAQQeAAIIOAAEEHQACCDoABBB0AAgg6AAQQNABIICgA0AAQQeAAIIOAAEEHQACCDoABBB0AAgg6AAQQNABIICgA0AAQQeAAIIOAAEEHQACCDoABBB0AAgg6AAQQNABIICgA0AAQQeAAIIOAAEEHQACCDoABBB0AAgg6AAQQNABIICgA0AAQQeAAIIOAAEEHQACCDoABBB0AAgg6AAQQNABIICgA0AAQQeAAIIOAAEEHQACCDoABBB0AAgg6AAQQNABIICgA0AAQQeAAIIOAAEEHQACCDoABBB0AAgg6AAQQNABIICgA0AAQQeAAIIOAAEEHQACCDoABBB0AAgg6AAQQNABIICgA0AAQQeAAIIOAAEEHQACCDoABBB0AAgg6AAQQNABIICgA0AAQQeAAIIOAAEEHQACCDoABBB0AAgg6AAQQNABIICgA0AAQQeAAIIOAAEEHQACCDoABBB0AAjw7ugDAOCt/3zzl+dr/+wP//zH057HwhgEHaADrwN+K9q3Yj/n3yfT0/Pz3fMCPnNpMDF4wDJLAr7Fn3+J6zaLoHPVtQHh0iDQenCCkfV6Eyz6WQSdaZq2H3B6HcBgD0k3uK7lcQh6MUtm3Xv8tw0MjK7ief2fb/7ynP4aRyTooY4M9xJJMxlqcM6+EPX+CHqApBlC0mshg4BfJ+p9EfSBjDLr3prIsycBX0bU+yHonTsfXFw0nxh02drpnHIuLSfqfRD0jrlI5hN4HiXk2/A+Hk/QOyXm6xhcuMc50oax6ziC3iEXxHZsWXDO+bAPY9gxBL0zLoR2zMjq8tnvz1i2P0HviAtgHwb3OnzWxzKm7UvQO+HE35/l11xC3g9j234EvQNO+OMJwPjcoPXLGLcPQT+YE70vojAeN2NjMNa1J+gHcoL3TSj65vMZjzGvLUE/iBN7HMLRDyso4zP2tSPoB3BCj0lMjuOmKosxsA1B35kTOYPA7MP7nMtnuz1B34mTN5NZexuulzpMcrYj6DtwwtYgQut5D2syRm5D0BtzotYjSrCcsXI9QW/ICVqbsMMyxsx1BL0RJybAcsbOx31x9AEkckICPOYP//zH0/nDpsxnhr4xMQfgCGboGxJzAI4i6BsRcwCOJOgbEHMAjiboK4k5AD0Q9BXEHIBeCPqDxByAnvjaGgAEMEMHgACCDgABBB0AAgg6AAQQdAAIIOgAEEDQASCAoANAAEEHgACCDgABBB0AAgg6AAQQdAAI8O7oAwCo7qe//nTzr7388MMHf1Uzdwk6wEbuhfmae8E+/bnCzi3+PnRWe3QQOzFIMYqjZ9I//fWnZ9cL1wg6D9tq1rDmhsDgxl56ianZOtcIOg/paXDr4TjI1uN51uMxcSxPubNYTwPJhx8+PK1d8odbejrfzzn3ec0Mndl6Xurr+dgYV68xP+fc50TQmWWEgW2axjlO+jfauTTa8bI9Qeeu0QaK0Y6Xvow84x352FlP0Llq5MFB1HlEynmT8jpYRtC5KGFASHgN7CftfBn5hpzHCDpvJA1sSa+FdpLPk+TXxucEnf+Xekef+rrYRoXgVXiNCDr/VeGCr/AaWabSOeHGdp7fvvr5+ctfvx7yPfLDMpQZ1PwQB+eqnPcnH3748OQayGaGXljVO/ZqA/kl7//08fn3f31b9j2ofg5UvfbnMENnOKcBreIFbZZSW/WYT5PZeqqIoP/21c9OygUMaJ+iXnFAO83O3//pY7nX7tx/cTr3vRdZ3h19AOzHMtvnTu+Dga0Gn/ML70MuQS/CRXzdabbu/cnkRvaF9yGfoBdxvl/mgn6rYtRPy+7JD8dV+0yv8T7UELGHzjwehLmtwnuTHvBzImavvJqIoH/569dPHoybr/IDYfdUiHoFIlb7myxVWXIvygNh19meGFv1c9q5+7iRv4M+TYJennhdVuWGJ20fPf3zusV1TMSSO+vYW78u6X1JCvclp88p5fNawvI602SGzhmz9bfOI+E96dv553Mt6mmfoeuVc4LOZ6osNV/zOgQV3oO0Zfdpuv65XQr9qJ9x1WuU6wSdi6rM1isGvLJLn+9oka9wXfIYQeeqxNl61YCnzcC3NDfy1/6/j1izz1/lnGU5QeeukWfrVQO+VOKy+xpLluy3/PNhjZign35cZuTvEPZslNm6gNOS84mexQSdffQ2WxdwgBeCzmLns/VejoXrLKVDDYLOw8Q0i310GJtfigOAAIIOAAEEHYItXUI/Lbu3PCagDUEHgACCDgABooJ++nGZo48DRmbZHcYUFXTgE19Bg/kSfmlU0AEggKADb1h2h/EIOgAEEHQIZP8c6hF0AAgg6MBF9tFhLIIOAAHigu7HZajO/jnUFBd0YDuW3WEcgg4AAQQdAAIIOgRpsX9u2R3GIOgAEEDQASCAoANAAEGHEC2/f24fHfoXGXQ/LgNANZFBB4C5fvvq5+cvf/16+F9XFHRgFsvu0DdBhwB+vx0QdAAIIOjAbJbdoV+CDoOz3A5Mk6ADQARBB4AAsUH34zLQhn106FNs0KEC++fAiaADQABBBxaz7A79EXQAykr5HfdpEnQYlv1z4JygAw+x7A59iQ66r64BUEV00AHgmqT982kSdBhSL/vnlt2hH4IOAAHig24fHYAK4oMOABUIOgyml/3zE/vojCjtgbhpEnQAiCDoABCgRNA9GAdtWXaH45UIOqTobf8cRpS4fz5Ngg4AEQQd2IRldziWoANAgDJB92Aco7N/DtxSJugAkPpA3DQJOrAh++hwHEEHgAClgm4fnVHZPwfuKRV0oD3L7vQqef98mgQdACIIOgAEEHTo3Ij755bdYX/lgu7BOAASlQs6APWkPxA3TYIONGLZHfYl6NCxEffPgWMIOgAEKBl0D8YB1FFh/3yaigYd2Id9dNiPoEOn7J8DSwg6AAQoG3T76LAPy+6wj7JBh55ZbodtVHkgbpoEHQAiCDrQnGV3aE/QASBA6aB7MI4e2T+HbVTaP5+m4kEHgBSCDuzCPjq0JegAEEDQoSP2z4FHlQ+6B+NgP5bd2Uu1B+KmSdABIIKgA0AAQYdOVNk/t+wObQj6ZB8dIEnF/fNpEnQAiCDoABBA0KEDVfbPT+yjw/YEHQACCPp/eTCO1t5//NH5tYD3i0dUfSBumgQddvH+44/Pv3/7XclB5pp7y+6/f/vdk6jDfIIOjd2LebX9c6ANQQe6ZZYO8wn6GfvobM1S+21znnYXdZhH0KERMYd9VX4gbpoEHZqYG3P75/OYpcN9gg4cau6PzIg63CbosDFL7cARBP0VD8axhpi3ZZbONdX3z6dJ0GEzS2Nu//wxog6XCTpwOH9ZC6wn6LABS+37MkuHtwT9AvvoLCHmxxB1+JygwwqPxtz++VuW3XmUB+JeCDowLLN0+ETQ4UGW2vsg6vBC0K+wj84tYt6GZXd4nKDDQmtjbv98e2bpIOiwiJk59MUDcZ8IOhDBLJ3qBB1mMjvfx5p9dFGnMkG/wYNxnGwVc/vnQCuCDneYmY/FLL0O++efE3SgO2u/vibqVCTocIPZ+TF8Fx2We3p+dt3cY1mnpq1jbv/8tvOIb/U+uSHLZmz+3LujDwB61CoEov65FhE/d1p6F3UqEHTYySlYr5eTKwW+8mtnW2bnbwk6vNJ6Rvc6YumRaz0Lv8csnSoEHc4cMfDfCvyoce/tNYg6FQj6DKcfmLG8k62XAf88gCPN3nuLOFQj6NCx3pfnR4q4WTrpfG1tJjP0bKMO9EcEfqSIXzLqZ80nxuPLzNApb+QBfo8ZfG+rAsBlZugLuCvMM3LM53g0xqPPwu9J/9zTGYsvM0OHYEtm8OkRP2c/nUSCTlkVB/TEr8gBLyy5L2CZJ0fFmPOW82A8xuHr/G1rC5y+j370cQDAa4IOAAEEHSjr9HDc0ccBWxB0yrFvCmOyf36boANAAEFfyINxAPRI0AEggKADQABBB0rzpPsYPBB3n6A/wD76uDzhDqQSdAAIIOgAEEDQAeia/fN5BP1B9tEB6ImgA+V50p0Egk4ZnnAHkgn6CpbdAdqyfz6foANAAEEHgACCvpJld4A2LLcvI+gAkyfdGZ+gU4In3IF0gr4By+4A27LcvpygA0AAQQeAAIIOAAEEfSP20WF8nnTvg/3zxwg68TzhDlQg6AAQQNA3ZNkdYB3L7Y8TdAAIIOgAZzwYx6gEfWOW3QE4gqATzRPuMA775+sIOgAEEPQGLLsDsDdBB+BwltvXE3SAVzzpzogEvRHL7gDs6d3RBwCtpD7h/v0vf/zsRvHvf/53F6/x/Lh6OSbGYLl9G4IOA7gVy6MCf+u/2+tNByQT9IZOy+7uPHnE3BnvnoHv8ZiAF4IOHdli2XrLmG4VYoGH9gQdDtZ673lJTPcK7a1j6iXupyfdE5/D6IlVzO0IemOW3Xnt6NlpjzG1/w7rCTqReptZ9RDNa3o/HoGHeQQdGuk54iPpcUWBbVi93Jag78Cyex1i096l5XnvNQg6rCbixzm93z4DEHR4mNlhP1rN2j3pzkgEHRYwE+yfWfsYbENuT9B3Yh99Py1mVGbj47n2VTifIakEHa4QgRwepKMCQYdXDPjZLMkfz2plG4K+I8vu/TK412PWThpBpzQDOdN0e9buSXdGIeiUYzbONWbt7VmlbEfQd2bZva1bMykDdK7Xv/e+/Z/9v63+eNiMoBPNbPy2liHcU6vP9vT+WG5nBIJOpNazcSHM9/0vf3z2/jCSp+fniHFpOJbd23j/8cfnb/7nb83/Owb6XLZm2jHutWWGTpTfv/3u6ftf/mZA5iFm5YzMDP1A7lbbMtNiLudKe8a79szQiXX+3WIDNdc4P0hhhn4wd637MAPjNefEfoxz+xD0DjjZ92M2xjQ5D/ZkfNuPJXdK+fuf//1kZlaXz55kZuidcBe7P4N7LWbl+zOu7csMnbI8NFeDGzeqMEPviLvZ4xj0M7lZO47xbH+C3hkXwbEEIIMbtGMZx45hyR3OeGhufG7KqMoMvUPubvsg7GPxefXB+HUcQe+Ui6IfZnz98xn1wbh1LEvucIdl+H75XOATM/SOudvtj5lgH4S8P8ar4wl651wk/RGTY5ze92ny3vfIWHU8S+6w0PkP0pz/b9rwPvdPzPtghj4AF0vfzBy35z0dh/GpH2bosNJ5cM5D9PqfcZuIwzpm6INwFzwmgb9NxMdmXOqLoA/ExTM+gRfxFMaj/lhyhx29DlilwHu4DdoyQx+Mu+JsaYE3G89kHOqToA/IxVTHKIF/fZwnvR4v6xiD+mTJHTp2b4l+6b+/1Nz/nnDXIeb9MkMflIuKOZbeALwm1Jwz7vRN0Afm4gL2ZMzp2xdHHwAA/RPz/gn6wL789eun37762RIL0JSYj0HQASCAoA/OLB1oyex8HIIeQNQBEHQALjI7H4ughzBLB7Yk5uMR9CCiDlCXoAPwGbPzMQl6GLN0YA0xH5egBxJ1gHoEHYBpmszORyfooczSAWoRdADMzgMIejCzdGAOMc8g6OFEHaAGQQcozOw8h6AXYJYOXCLmWQS9CFEHzol5HkEvRNSBaRLzVIJejKhDbWKeS9ALEnWoScyzCXpRog61iHk+QS9M1KEGMa9B0IsTdcgm5nUIOqIOocS8lqfnZ+M4L05RNwDA+MS8HkHnDQMBjM01XJMld96wBA/jEvO6BJ2LRB3GI+a1CTpXiTqMQ8wRdG4SdeifmDNNgs4Mog79EnNOBJ1ZRB36I+acE3RmE3Xoh5jzmu+hs5iBBI7jB6C4RtB5iKjD/lx33GLJnYdYfod9iTn3CDoPE3XYh5gzh6CziqhDW2LOXILOaqIObYg5Swg6mxB12JaYs5SgsxlRh22IOY8QdDYl6rCOmPMo30OnCT9+AcuJOWsIOk0ZoGAe1wprWXKnKUvwcJ+YswVBpzlRh+vEnK0IOrsQdXhLzNmSoLMbUYdPxJytCTq7EnUQc9oQdHYn6lQm5rQi6BxC1KlIzGlJ0DmMqFOJmNOaH5bhcH5VjmTOb/Yi6HTDDIY0zmn2JOh0xWyGBM5jjiDodMmAyKjMyjmKoNM1gyOjcBPK0QSd7hko6Z0bT3og6AzDoElv3GzSE0FnKAZQeuA8pEeCzpDM1jmKc49eCTrDMktiT843eifoDM9AS2tm5YxA0Ilh0GVrbhYZiaATxQDMVtwgMhpBJ5LBmEe5KWRUgk4sAzNLuRFkZIJOPIM097j5I4GgU4IBm2vc8JFC0ClF2DlxLpBG0CnJrKw2nz+JBJ2yzNDq8ZmTTNApz2wtn5BTgaDDZMBP5oaNKgQdzhj8c7hJoxpBh1eEYHxuzKhI0OEKYR+Pz4zKBB3uMNsbg8+J6gQdZjDz65fPBl4IOixwiseJiOzPZwCXCTqs8DouJyKznvcWlhF0aECM5vNewTYEHXZ0LV7TlB8w4Ya2BB06kRK8lNcBoxF06Fyvs3rhhr4IOgxsj6gKN4xB0CHQIxEWbhiboEMhvS7fA+sJOgAE+OLoAwAA1hN0AAgg6AAQQNABIICgA0AAQQeAAIIOAAEEHQACCDoABBB0AAgg6AAQQNABIICgA0AAQQeAAIIOAAEEHQACCDoABBB0AAgg6AAQQNABIICgA0AAQQeAAIIOAAEEHQACCDoABBB0AAgg6AAQQNABIICgA0AAQQeAAIIOAAEEHQACCDoABBB0AAgg6AAQQNABIICgA0CA/wOmfm5rPLOOgAAAAABJRU5ErkJggg==;" parent="1" vertex="1">
          <mxGeometry x="119.5" y="-41.5" width="613" height="823" as="geometry" />
        </mxCell>
      </root>
    </mxGraphModel>
  </diagram>
</mxfile>
